<svg width="1489" height="1489" viewBox="0 0 1489 1489" fill="none" xmlns="http://www.w3.org/2000/svg">
<path d="M744.5 1489C333.324 1489 7.15541e-05 1155.68 8.95272e-05 744.5C0.0001075 333.324 333.324 -5.05162e-05 744.5 -3.25431e-05C1155.68 -1.45701e-05 1489 333.324 1489 744.5C1489 1155.68 1155.68 1489 744.5 1489ZM744.5 253.659C473.416 253.659 253.659 473.416 253.659 744.5C253.659 1015.58 473.416 1235.34 744.5 1235.34C1015.58 1235.34 1235.34 1015.58 1235.34 744.5C1235.34 473.416 1015.58 253.659 744.5 253.659Z" fill="url(#paint0_linear_200_105)" fill-opacity="0.05"/>
<defs>
<linearGradient id="paint0_linear_200_105" x1="1489" y1="744.5" x2="8.95272e-05" y2="744.5" gradientUnits="userSpaceOnUse">
<stop stop-color="#194DA0"/>
<stop offset="1" stop-color="#132D57"/>
</linearGradient>
</defs>
</svg>
