<svg width="625" height="625" viewBox="0 0 625 625" fill="none" xmlns="http://www.w3.org/2000/svg">
<path d="M312.5 625C139.911 625 -2.12039e-05 485.089 -1.36598e-05 312.5C-6.11571e-06 139.911 139.911 -2.12039e-05 312.5 -1.36598e-05C485.089 -6.11571e-06 625 139.911 625 312.5C625 485.089 485.089 625 312.5 625ZM312.5 106.472C198.714 106.472 106.472 198.714 106.472 312.5C106.472 426.286 198.714 518.528 312.5 518.528C426.286 518.528 518.528 426.286 518.528 312.5C518.528 198.714 426.286 106.472 312.5 106.472Z" fill="#3EE03E" fill-opacity="0.5"/>
</svg>
