<svg width="1301" height="1301" viewBox="0 0 1301 1301" fill="none" xmlns="http://www.w3.org/2000/svg">
<path d="M650.5 1301C291.239 1301 -4.41381e-05 1009.76 -2.84343e-05 650.5C-1.27305e-05 291.239 291.239 -4.41381e-05 650.5 -2.84343e-05C1009.76 -1.27305e-05 1301 291.239 1301 650.5C1301 1009.76 1009.76 1301 650.5 1301ZM650.5 221.632C413.643 221.632 221.632 413.643 221.632 650.5C221.632 887.357 413.643 1079.37 650.5 1079.37C887.357 1079.37 1079.37 887.357 1079.37 650.5C1079.37 413.643 887.357 221.632 650.5 221.632Z" fill="white" fill-opacity="0.09"/>
</svg>
