<svg width="521" height="202" viewBox="0 0 521 202" fill="none" xmlns="http://www.w3.org/2000/svg">
<path d="M-1.43039e-06 157C-6.4041e-07 181.853 20.1472 202 45 202L427.91 202C439.094 202 449.74 197.198 457.143 188.815L511.234 127.56C517.527 120.433 521 111.253 521 101.745L521 44.9998C521 20.1471 500.801 -7.56519e-05 475.948 -0.000196932C280.509 -0.00109099 271.769 -0.000236218 76.6725 -4.69115e-05C66.3852 -3.13257e-05 56.4015 4.06459 49.0971 11.3086L11.5375 48.5578C4.15344 55.8808 -4.32774e-06 65.8496 -3.99718e-06 76.2492L-1.43039e-06 157Z" fill="url(#paint0_linear_493_2577)"/>
<defs>
<linearGradient id="paint0_linear_493_2577" x1="-528.998" y1="33.9994" x2="449.422" y2="33.9995" gradientUnits="userSpaceOnUse">
<stop stop-color="#F6F6F6"/>
<stop offset="1" stop-color="#E4E4E4"/>
</linearGradient>
</defs>
</svg>
