<svg viewBox="0 0 358 194" fill="none" xmlns="http://www.w3.org/2000/svg">
<path d="M-9.53597e-07 164C-4.26941e-07 180.569 13.4315 194 30 194L303.462 194C315.477 194 326.82 188.463 334.211 178.99L349.748 159.076C355.096 152.222 358 143.779 358 135.086L358 24.9999C358 11.1928 346.669 -3.01574e-05 332.862 -0.000106012C126.918 -0.00115232 251.213 -0.000256005 56.6855 -5.14574e-05C46.426 -3.58725e-05 36.4068 4.04266 29.1073 11.252L11.5947 28.5485C4.17572 35.8758 -4.70857e-06 45.869 -4.37712e-06 56.2964L-9.53597e-07 164Z" fill="url(#paint0_linear_493_3078)"/>
<defs>
<linearGradient id="paint0_linear_493_3078" x1="-527.998" y1="33.9995" x2="450.422" y2="33.9995" gradientUnits="userSpaceOnUse">
<stop stop-color="#F6F6F6"/>
<stop offset="1" stop-color="#E4E4E4"/>
</linearGradient>
</defs>
</svg>
