<svg width="740" height="202" viewBox="0 0 740 202" fill="none" xmlns="http://www.w3.org/2000/svg">
<path d="M-1.43039e-06 157C-6.4041e-07 181.853 20.1472 202 45 202L646.91 202C658.094 202 668.74 197.198 676.143 188.815L730.234 127.56C736.527 120.433 740 111.253 740 101.745L740 44.9998C740 20.1471 719.85 -7.56534e-05 694.997 -0.000181675C473.914 -0.00110543 282.229 -0.00022959 76.5687 -3.9947e-05C66.2813 -2.43612e-05 56.4015 4.0646 49.0971 11.3086L11.5375 48.5578C4.15344 55.8808 -4.32774e-06 65.8497 -3.99718e-06 76.2492L-1.43039e-06 157Z" fill="url(#paint0_linear_493_2578)"/>
<defs>
<linearGradient id="paint0_linear_493_2578" x1="-420.999" y1="33.9994" x2="557.421" y2="33.9995" gradientUnits="userSpaceOnUse">
<stop stop-color="#F6F6F6"/>
<stop offset="1" stop-color="#E4E4E4"/>
</linearGradient>
</defs>
</svg>
