<svg viewBox="0 0 147 38" fill="none" xmlns="http://www.w3.org/2000/svg">
<g clip-path="url(#clip0_493_2436)">
<path d="M-0.149883 9.04715C-0.149883 7.18125 -0.153314 5.40115 -0.142334 3.6212C-0.141614 3.50981 -0.0585536 3.35399 0.0286564 3.29603C3.11846 1.2345 6.43072 -0.00665979 10.0911 0.0753902C12.8245 0.13712 15.3986 0.91311 17.832 2.24984C18.6993 2.72627 19.5369 3.2712 20.3629 3.82967C20.6465 4.02086 20.8271 4.00056 21.0887 3.81314C23.1609 2.32511 25.3814 1.19083 27.8004 0.5729C31.6593 -0.41308 35.3868 0.06637 38.9725 1.88178C39.7807 2.29049 40.5531 2.78423 41.3331 3.25766C41.4402 3.32239 41.5582 3.49627 41.5596 3.62045C41.5739 5.35075 41.5684 7.08115 41.5664 8.81225C41.5664 8.85825 41.5473 8.90335 41.5266 8.99745C41.1361 8.68055 40.7769 8.38025 40.4089 8.09125C38.5405 6.62505 36.5266 5.49525 34.2644 4.96168C31.5576 4.32419 28.945 4.70052 26.4066 5.85805C24.4243 6.76205 22.6555 8.04455 21.0056 9.53255C20.7872 9.72975 20.6589 9.74335 20.4323 9.53865C18.5489 7.83985 16.5172 6.41055 14.2012 5.51255C10.7591 4.17817 7.39402 4.42202 4.09825 6.10415C2.70237 6.81465 1.41495 7.71715 0.206477 8.76105C0.110357 8.84385 0.00943662 8.91915 -0.149883 9.04715Z" fill="black"/>
<path d="M41.5525 17.4519C40.7256 17.0086 39.9484 16.56 39.1478 16.1671C34.1576 13.7187 29.1507 13.7443 24.1535 16.125C23.0762 16.6383 22.0455 17.2712 21.006 17.8749C20.7835 18.0043 20.6352 18.0089 20.4203 17.8681C18.2774 16.4644 16.0129 15.3738 13.5644 14.792C9.97202 13.9385 6.46682 14.2862 3.0694 15.8134C1.99349 16.2973 0.953247 16.8769 -0.120633 17.4218C-0.126143 17.3879 -0.148113 17.3104 -0.148793 17.2329C-0.150833 15.9541 -0.146043 14.6746 -0.154273 13.3958C-0.155663 13.1798 -0.0959031 13.0624 0.0881069 12.9668C3.13464 11.3802 6.33022 10.4567 9.71452 10.4454C12.7137 10.4356 15.5906 11.1438 18.3563 12.3978C19.0525 12.7131 19.7351 13.0684 20.4114 13.4334C20.6435 13.5591 20.8213 13.5471 21.0451 13.4214C23.2664 12.1735 25.5981 11.274 28.0597 10.7991C31.7097 10.0946 35.2794 10.4611 38.7648 11.8144C39.6148 12.1448 40.4372 12.5603 41.2743 12.9299C41.492 13.0262 41.5787 13.1692 41.5756 13.4402C41.5614 14.6686 41.5695 15.8976 41.5688 17.1268C41.5688 17.2246 41.5593 17.3224 41.5525 17.4519Z" fill="black"/>
<path d="M-0.149469 25.0302C-0.149469 23.981 -0.143278 22.9528 -0.154258 21.9254C-0.157018 21.6763 -0.0107586 21.6357 0.142341 21.592C1.49019 21.2059 2.82427 20.7415 4.18999 20.4563C9.49341 19.3476 14.7076 19.8255 19.8147 21.7079C20.4451 21.9405 20.9895 21.9465 21.6185 21.7109C24.6122 20.5872 27.6944 19.9813 30.8631 19.8902C34.4083 19.7886 37.8576 20.3629 41.2277 21.5589C41.4906 21.6522 41.5855 21.7809 41.5787 22.0888C41.5579 22.9408 41.5722 23.7943 41.5702 24.6471C41.5702 24.7675 41.5566 24.8879 41.5471 25.0513C40.9682 24.8443 40.4311 24.6418 39.8896 24.4597C37.0028 23.4872 34.0498 23.004 31.0307 23.0883C27.5804 23.1847 24.2517 23.9659 21.0266 25.3072C20.8467 25.3817 20.5961 25.3847 20.4169 25.3109C17.3559 24.0434 14.2016 23.2712 10.9271 23.1139C7.23311 22.9363 3.65992 23.5979 0.185602 24.9542C0.110062 24.9835 0.0345519 25.0121 -0.0416781 25.037C-0.0629681 25.043 -0.0869786 25.0347 -0.149469 25.0302Z" fill="black"/>
<path d="M41.572 31.8362C40.9417 31.7301 40.3608 31.6022 39.7744 31.5389C37.7611 31.3236 35.7495 31.058 33.7308 30.9444C29.4744 30.7056 25.2524 31.1134 21.0626 31.9491C20.8333 31.995 20.5827 31.9889 20.3527 31.943C17.5341 31.3852 14.6956 31.0427 11.8324 30.9246C7.91929 30.7627 4.03784 31.0668 0.18107 31.7896C0.0924997 31.8059 0.00185992 31.8127 -0.1478 31.8314C-0.1478 31.341 -0.15399 30.8712 -0.14576 30.4022C-0.13957 30.0433 -0.23226 29.5811 -0.0661002 29.3552C0.0863098 29.1484 0.52577 29.1876 0.84094 29.1325C3.48852 28.6695 6.15269 28.4303 8.83319 28.3776C12.7579 28.3016 16.647 28.675 20.5085 29.4297C20.6403 29.4556 20.7839 29.4569 20.9157 29.4314C24.1991 28.791 27.5059 28.4273 30.8427 28.3739C33.4094 28.3325 35.9645 28.4815 38.5111 28.8134C39.4196 28.9314 40.3216 29.1069 41.2295 29.2304C41.5087 29.2689 41.5863 29.3906 41.5788 29.6859C41.5597 30.3859 41.572 31.0848 41.572 31.8362Z" fill="black"/>
<path d="M41.5678 36.4141C41.5678 36.9502 41.5767 37.4628 41.559 37.9737C41.5563 38.0505 41.4403 38.1492 41.3576 38.189C41.2808 38.2257 41.1777 38.1988 41.0865 38.1988C27.5059 38.1988 13.9245 38.1988 0.343853 38.1988C0.196913 38.1988 0.0506531 38.1988 -0.123047 38.1988C-0.123047 37.592 -0.123047 37.0216 -0.123047 36.4148C13.7508 36.4141 27.6322 36.4141 41.5678 36.4141Z" fill="black"/>
<path d="M82.6847 3.91012C82.6408 5.70828 82.5976 7.48988 82.5565 9.19688C82.7711 8.59098 83.0198 7.89478 83.2643 7.19778C83.6129 6.20348 83.964 5.21078 84.301 4.21195C84.3834 3.96808 84.4878 3.85668 84.7432 3.86797C85.2776 3.8928 85.813 3.87552 86.3691 3.87552C86.3691 6.43918 86.3691 8.96508 86.3691 11.5136C85.8419 11.5136 85.333 11.5136 84.8276 11.5136C84.8276 9.72298 84.8276 7.94148 84.8276 6.18098C84.6143 6.80638 84.3881 7.47028 84.1609 8.13488C83.7997 9.19008 83.4402 10.2469 83.0701 11.2983C83.0364 11.3932 82.9313 11.5219 82.8558 11.5241C82.2534 11.543 81.65 11.5347 81.0293 11.5347C81.0293 8.97558 81.0293 6.46018 81.0293 3.91012C81.547 3.91012 82.0653 3.91012 82.6847 3.91012Z" fill="black"/>
<path d="M79.4905 38.1732C79.5283 36.3667 79.564 34.6218 79.6018 32.8246C79.4205 33.3507 79.2528 33.8368 79.0861 34.3239C78.6844 35.4967 78.278 36.6671 77.8878 37.8443C77.8035 38.0984 77.6844 38.1888 77.4388 38.179C76.9038 38.1589 76.3684 38.1732 75.8086 38.1732C75.8086 35.6096 75.8086 33.0851 75.8086 30.5382C76.3375 30.5382 76.8572 30.5382 77.4518 30.5382C77.4127 32.3106 77.3742 34.0695 77.3358 35.8052C77.4229 35.5667 77.5286 35.2888 77.6269 35.0089C78.1137 33.6171 78.6038 32.2263 79.079 30.8293C79.1596 30.5929 79.2576 30.498 79.496 30.5086C80.0314 30.5314 80.5684 30.5154 81.1429 30.5154C81.1508 30.6674 81.163 30.799 81.163 30.93C81.1644 33.2001 81.1576 35.4701 81.1705 37.7395C81.1725 38.082 81.0922 38.2055 80.7701 38.1797C80.3735 38.1497 79.9732 38.1732 79.4905 38.1732Z" fill="black"/>
<path d="M99.446 11.5243C98.906 11.5243 98.405 11.5243 97.902 11.5243C97.902 9.75626 97.902 7.99806 97.902 6.22406C97.812 6.48146 97.716 6.74636 97.624 7.01286C97.532 7.28226 97.443 7.55396 97.351 7.82346C96.959 8.97276 96.57 10.1236 96.166 11.2677C96.127 11.3783 95.992 11.5198 95.898 11.5236C95.3167 11.5469 94.735 11.5356 94.1211 11.5356C94.1211 8.98406 94.1211 6.46036 94.1211 3.90656C94.636 3.90656 95.1537 3.90656 95.6463 3.90656C95.6463 5.66626 95.6463 7.41396 95.6463 9.11956C95.6524 9.10746 95.6969 9.03446 95.7245 8.95546C96.264 7.42526 96.816 5.90036 97.329 4.35891C97.457 3.97204 97.624 3.83959 97.989 3.86667C98.465 3.90204 98.944 3.87571 99.446 3.87571C99.446 6.43856 99.446 8.96226 99.446 11.5243Z" fill="black"/>
<path d="M82.4668 17.1931C83.7705 17.2721 85.0678 17.0124 86.3263 17.4866C87.1984 17.8155 87.6219 18.6638 87.3892 19.6227C87.2423 20.2286 86.8226 20.5364 86.3008 20.7765C86.495 20.8646 86.6641 20.9346 86.8273 21.0166C87.3712 21.2891 87.6974 21.7369 87.7277 22.4068C87.7627 23.185 87.6433 23.9354 86.9477 24.3057C86.4658 24.5624 85.9151 24.7393 85.3821 24.7882C84.4729 24.871 83.5542 24.8266 82.6406 24.8326C82.5862 24.8326 82.5314 24.8093 82.4675 24.795C82.4668 22.2713 82.4668 19.7597 82.4668 17.1931ZM84.1379 23.5516C84.5651 23.5124 84.9552 23.5094 85.3328 23.4334C85.8195 23.3356 86.0062 23.0608 86.013 22.5551C86.0209 22.0079 85.8229 21.6504 85.3644 21.551C84.9709 21.4659 84.559 21.478 84.1379 21.4464C84.1379 22.1712 84.1379 22.8185 84.1379 23.5516ZM84.142 20.3159C84.5726 20.2391 84.9743 20.2165 85.345 20.0878C85.6981 19.9651 85.7654 19.5963 85.742 19.2185C85.7198 18.87 85.5392 18.6502 85.2433 18.5885C84.8906 18.5148 84.5287 18.4944 84.142 18.4478C84.142 19.0763 84.142 19.6347 84.142 20.3159Z" fill="black"/>
<path d="M74.3359 11.5208C74.3359 8.96617 74.3359 6.44927 74.3359 3.87747C74.5046 3.87747 74.6604 3.87145 74.8158 3.87822C75.7618 3.92114 76.7087 3.95951 77.6543 4.01822C77.8437 4.03026 78.0325 4.1123 78.2158 4.18155C78.9196 4.44798 79.2937 4.97937 79.3152 5.77417C79.3349 6.51847 79.0118 7.03717 78.3958 7.34267C78.3444 7.36827 78.2948 7.39687 78.2022 7.44737C78.2934 7.50227 78.3505 7.54817 78.4148 7.57377C79.2788 7.91697 79.6206 8.42657 79.6056 9.35677C79.5903 10.318 79.1777 10.9728 78.3519 11.237C77.9056 11.3793 77.4373 11.4861 76.975 11.5087C76.1107 11.5509 75.242 11.5208 74.3359 11.5208ZM75.9815 10.2322C76.4403 10.1848 76.8604 10.1743 77.2675 10.0907C77.672 10.0072 77.8478 9.73837 77.8774 9.30567C77.9118 8.80357 77.7414 8.37837 77.3584 8.27977C76.9169 8.16607 76.4512 8.16687 75.9815 8.11717C75.9815 8.85857 75.9815 9.49387 75.9815 10.2322ZM76.0097 6.97317C76.3914 6.92497 76.7686 6.91897 77.124 6.82187C77.4696 6.72697 77.6342 6.37857 77.6165 5.97287C77.5985 5.57467 77.4243 5.32027 77.0424 5.24497C76.7019 5.17807 76.3509 5.17577 75.9692 5.14187C75.9692 5.70717 75.9679 6.19417 75.9706 6.68037C75.9706 6.75187 75.9893 6.82337 76.0097 6.97317Z" fill="black"/>
<path d="M120.074 20.9616C120.179 20.3768 120.231 19.7573 120.405 19.1823C120.844 17.7304 121.981 16.9348 123.4 17.0086C124.993 17.0921 125.99 18.0209 126.317 19.7385C126.472 20.5574 126.483 21.3808 126.327 22.202C125.919 24.3501 124.371 25.4309 122.422 24.9221C121.329 24.6369 120.653 23.8533 120.352 22.6965C120.208 22.1478 120.167 21.5675 120.074 20.9616ZM121.838 21.0323C121.909 21.5569 121.941 22.0868 122.057 22.5926C122.228 23.3363 122.68 23.6975 123.311 23.6863C123.934 23.6757 124.368 23.2821 124.528 22.5384C124.749 21.5223 124.75 20.4994 124.524 19.4841C124.364 18.7683 123.931 18.3769 123.321 18.3604C122.677 18.3431 122.222 18.6961 122.057 19.4337C121.941 19.9538 121.909 20.4957 121.838 21.0323Z" fill="black"/>
<path d="M81.0371 21.0254C80.9442 21.5907 80.8997 22.171 80.7514 22.7174C80.3051 24.362 78.9738 25.2373 77.3677 25.001C76.0541 24.8076 75.2344 23.9992 74.8793 22.6143C74.5936 21.4996 74.6102 20.3819 74.9198 19.2777C75.4041 17.5504 76.9062 16.6788 78.6391 17.1018C79.9272 17.4156 80.781 18.5514 80.932 20.1553C80.9589 20.4421 80.9759 20.7296 80.9973 21.0164C81.0102 21.0194 81.0232 21.0224 81.0371 21.0254ZM76.3871 20.9885C76.399 20.9915 76.4099 20.9946 76.4215 20.9976C76.4436 21.3476 76.4544 21.6983 76.4915 22.046C76.5136 22.256 76.5609 22.466 76.6235 22.667C76.8459 23.3813 77.2647 23.7102 77.8983 23.6861C78.482 23.6643 78.9153 23.2751 79.0732 22.5729C79.3048 21.5463 79.3062 20.5098 79.0766 19.4825C78.9167 18.7659 78.4813 18.3791 77.8718 18.361C77.2269 18.3422 76.7874 18.6831 76.6096 19.4365C76.4895 19.9408 76.4579 20.4699 76.3871 20.9885Z" fill="black"/>
<path d="M72.3393 31.9447C71.627 31.9447 70.979 31.9447 70.2937 31.9447C70.2937 34.0076 70.2937 36.058 70.2937 38.1406C69.7273 38.1406 69.1957 38.1406 68.6348 38.1406C68.6348 35.6223 68.6348 33.0971 68.6348 30.543C70.4056 30.543 72.1797 30.543 73.9719 30.543C73.9719 33.0736 73.9719 35.5896 73.9719 38.1389C73.4396 38.1389 72.911 38.1389 72.3386 38.1389C72.3393 36.0889 72.3393 34.0399 72.3393 31.9447Z" fill="black"/>
<path d="M139.521 21.1185C139.466 21.5136 139.436 22.0179 139.322 22.4988C138.862 24.4354 137.342 25.3936 135.511 24.9284C134.532 24.6801 133.867 24.0298 133.51 23.0084C133.126 21.9088 133.101 20.7715 133.342 19.6417C133.767 17.6419 135.283 16.6476 137.148 17.1C138.399 17.4033 139.234 18.4638 139.423 20.0015C139.464 20.3365 139.483 20.6744 139.521 21.1185ZM137.828 21.0326C137.711 20.3996 137.644 19.7622 137.469 19.1623C137.308 18.6083 136.879 18.3629 136.343 18.3592C135.803 18.3554 135.391 18.6136 135.215 19.1631C134.82 20.3952 134.817 21.6513 135.224 22.8804C135.402 23.4186 135.804 23.6948 136.351 23.6895C136.891 23.6843 137.309 23.4306 137.469 22.8767C137.64 22.2881 137.709 21.6641 137.828 21.0326Z" fill="black"/>
<path d="M73.1887 24.8133C72.6285 24.8133 72.1064 24.8133 71.5496 24.8133C71.5496 22.7367 71.5496 20.6856 71.5496 18.5789C71.1081 18.5789 70.6996 18.5609 70.2945 18.5955C70.2196 18.6023 70.1159 18.816 70.1003 18.9455C69.9696 20.0263 69.8669 21.1109 69.7322 22.191C69.6849 22.5733 69.5901 22.9519 69.4843 23.3215C69.2145 24.2691 68.6275 24.8359 67.6901 25.018C67.5727 24.6492 67.4479 24.2773 67.3407 23.8988C67.3251 23.8431 67.3764 23.7212 67.4271 23.6926C67.9506 23.3937 68.0904 22.8563 68.1577 22.2835C68.3404 20.7285 68.5196 19.1735 68.6802 17.6163C68.7118 17.3092 68.7819 17.1903 69.088 17.1955C70.3469 17.2166 71.6054 17.2038 72.8639 17.2053C72.9642 17.2053 73.0645 17.2166 73.188 17.2242C73.1887 19.7569 73.1887 22.2708 73.1887 24.8133Z" fill="black"/>
<path d="M100.556 38.1526C100.012 38.1526 99.4901 38.1526 98.9301 38.1526C98.9301 36.0785 98.9301 34.0176 98.9301 31.9077C98.4861 31.9077 98.0781 31.8922 97.6731 31.9221C97.5971 31.9276 97.4851 32.1089 97.4711 32.2218C97.3051 33.499 97.1811 34.7829 96.9901 36.055C96.8231 37.1707 96.3091 38.0149 95.2359 38.3084C95.1924 38.3207 95.1478 38.3245 95.054 38.3412C94.9254 37.933 94.7965 37.5258 94.6562 37.0802C95.3702 36.7618 95.4686 36.0544 95.5509 35.3521C95.7247 33.8732 95.8801 32.3918 96.0451 30.9115C96.0581 30.7887 96.0761 30.6676 96.0931 30.5312C97.5881 30.5312 99.0581 30.5312 100.555 30.5312C100.556 33.0612 100.556 35.5853 100.556 38.1526Z" fill="black"/>
<path d="M119.363 24.8376C118.78 24.8376 118.255 24.8511 117.733 24.8255C117.635 24.821 117.508 24.678 117.454 24.5651C117.061 23.7312 116.686 22.8859 116.301 22.0482C116.03 21.4611 116.026 21.4634 115.363 21.5838C115.363 22.6466 115.363 23.7191 115.363 24.812C114.789 24.812 114.258 24.812 113.71 24.812C113.704 24.675 113.694 24.5644 113.694 24.4545C113.694 22.1732 113.7 19.8926 113.686 17.612C113.684 17.2711 113.779 17.1747 114.075 17.1988C114.405 17.2251 114.738 17.2169 115.069 17.2011C115.295 17.1905 115.369 17.2831 115.366 17.527C115.356 18.2661 115.363 19.006 115.363 19.7451C115.363 19.8805 115.363 20.016 115.363 20.1417C116 20.3088 116.065 20.281 116.339 19.7187C116.705 18.9675 117.073 18.2179 117.429 17.4622C117.519 17.2711 117.63 17.1935 117.829 17.2011C118.26 17.2169 118.692 17.2056 119.192 17.2056C118.894 17.8069 118.625 18.3511 118.355 18.8961C118.126 19.3582 117.911 19.8301 117.663 20.2795C117.517 20.5451 117.513 20.7604 117.644 21.0404C118.195 22.2085 118.722 23.3902 119.257 24.5674C119.286 24.6314 119.309 24.7006 119.363 24.8376Z" fill="black"/>
<path d="M55.4307 30.5315C56.0093 30.5315 56.5314 30.5315 57.0902 30.5315C57.0902 31.5183 57.0902 32.4907 57.0902 33.4502C57.7025 33.6295 57.8028 33.5812 58.0651 33.0356C58.4378 32.2594 58.811 31.4836 59.1981 30.7166C59.246 30.6217 59.3814 30.5285 59.479 30.5237C59.9348 30.5036 60.393 30.5149 60.9106 30.5149C60.7685 30.8159 60.6491 31.0778 60.5219 31.336C60.1297 32.1292 59.7413 32.9247 59.3368 33.7108C59.2344 33.9094 59.2344 34.0608 59.3287 34.2632C59.9205 35.5343 60.4991 36.8132 61.1198 38.1724C60.6817 38.1724 60.2865 38.1339 59.9004 38.1822C59.444 38.2394 59.2062 38.0611 59.0236 37.5965C58.6991 36.7696 58.3076 35.9741 57.9423 35.1656C57.8049 34.8622 57.4753 34.7094 57.2157 34.857C57.147 34.8962 57.1059 35.0587 57.1045 35.1649C57.0957 36.0176 57.0998 36.8696 57.0998 37.7224C57.0998 37.8564 57.0998 37.9904 57.0998 38.1686C56.5685 38.1686 56.08 38.1761 55.5919 38.1581C55.5365 38.156 55.4477 38.0166 55.4389 37.9322C55.4161 37.7224 55.43 37.507 55.43 37.2941C55.43 35.2002 55.43 33.1064 55.43 31.0125C55.4307 30.8656 55.4307 30.7166 55.4307 30.5315Z" fill="black"/>
<path d="M67.6167 38.1718C67.0531 38.1718 66.5415 38.1806 66.0306 38.1619C65.9551 38.1588 65.8426 38.0371 65.8177 37.9473C65.716 37.5762 65.631 37.1983 65.5609 36.819C65.5225 36.6122 65.4464 36.5204 65.2439 36.5248C64.7297 36.5367 64.2147 36.5167 63.7017 36.5398C63.6062 36.5445 63.4633 36.6738 63.4337 36.7769C63.3317 37.1343 63.2623 37.5041 63.1956 37.8721C63.1565 38.0894 63.0735 38.1874 62.8545 38.1792C62.3888 38.1602 61.9226 38.1738 61.4062 38.1738C61.5301 37.7095 61.6371 37.2925 61.7511 36.8779C62.3045 34.8643 62.8633 32.8534 63.4092 30.8377C63.4752 30.5945 63.5623 30.4966 63.8058 30.5088C64.2963 30.5337 64.7885 30.5064 65.2796 30.5238C65.3762 30.5275 65.5334 30.6126 65.5568 30.6962C66.2442 33.1588 66.9191 35.6269 67.6167 38.1718ZM64.5229 32.0939C64.494 32.0945 64.4643 32.0952 64.4357 32.0962C64.216 33.1122 63.997 34.1275 63.7718 35.1694C64.2613 35.1694 64.713 35.1694 65.1949 35.1694C64.9677 34.1275 64.7454 33.1109 64.5229 32.0939Z" fill="black"/>
<path d="M67.3465 11.5205C66.771 11.5205 66.2237 11.5205 65.6332 11.5205C65.5084 10.9929 65.3805 10.4547 65.2461 9.88487C64.6342 9.88487 64.0295 9.87507 63.4257 9.89617C63.3455 9.89917 63.2268 10.0415 63.1999 10.1431C63.0968 10.5269 63.0359 10.9251 62.9308 11.3082C62.9046 11.4023 62.7734 11.522 62.687 11.5258C62.2084 11.5468 61.7285 11.5355 61.2012 11.5355C61.2244 11.3993 61.2342 11.2939 61.2608 11.1953C61.8938 8.87937 62.5346 6.56487 63.158 4.24592C63.2376 3.9501 63.3577 3.85303 63.6353 3.86881C64.1029 3.89592 64.573 3.86432 65.0414 3.88612C65.1438 3.89065 65.3043 3.99752 65.3312 4.09313C66.006 6.50017 66.6672 8.91247 67.3291 11.3248C67.3417 11.3699 67.338 11.4211 67.3465 11.5205ZM64.9604 8.52557C64.7353 7.49147 64.5162 6.48667 64.2978 5.48107C64.2648 5.48177 64.2319 5.48257 64.1989 5.48337C63.9819 6.49037 63.7642 7.49747 63.5424 8.52557C64.0376 8.52557 64.4785 8.52557 64.9604 8.52557Z" fill="black"/>
<path d="M107.798 38.1695C107.228 38.1695 106.706 38.1787 106.183 38.1583C106.114 38.1552 106.016 38.0137 105.99 37.9174C105.889 37.5457 105.8 37.1685 105.732 36.7885C105.695 36.5858 105.613 36.5205 105.432 36.5236C104.941 36.5324 104.448 36.5378 103.957 36.5212C103.734 36.5137 103.629 36.5868 103.586 36.8358C103.509 37.277 103.401 37.7103 103.304 38.1559C102.736 38.1559 102.188 38.1559 101.596 38.1559C101.686 37.8059 101.769 37.4742 101.859 37.1443C102.432 35.0566 103.014 32.9715 103.575 30.88C103.655 30.5827 103.77 30.4916 104.047 30.5052C104.583 30.5314 105.121 30.5127 105.698 30.5127C106.393 33.0515 107.089 35.5865 107.798 38.1695ZM104.701 32.0804C104.673 32.0865 104.644 32.0933 104.616 32.0994C104.398 33.1154 104.179 34.1307 103.958 35.1603C104.453 35.1603 104.902 35.1603 105.373 35.1603C105.145 34.1134 104.923 33.0974 104.701 32.0804Z" fill="black"/>
<path d="M94.2928 38.1738C93.7183 38.1738 93.2156 38.185 92.7142 38.1622C92.6312 38.1585 92.5098 38.0231 92.4823 37.9231C92.3792 37.552 92.301 37.1728 92.2275 36.7925C92.1911 36.6037 92.119 36.5207 91.9316 36.5255C91.4173 36.5381 90.9017 36.5381 90.3874 36.5255C90.1972 36.5207 90.1285 36.6112 90.0928 36.7979C90.02 37.1779 89.9452 37.5588 89.8442 37.9299C89.8176 38.0275 89.6931 38.1585 89.6095 38.1622C89.12 38.1843 88.6295 38.1728 88.084 38.1728C88.1894 37.7741 88.2809 37.418 88.3785 37.0636C88.9469 34.9877 89.5197 32.9132 90.0819 30.8353C90.1479 30.5904 90.2445 30.4986 90.487 30.5085C91.0459 30.5319 91.6068 30.516 92.1932 30.516C92.888 33.0527 93.5809 35.5792 94.2928 38.1738ZM91.8697 35.1734C91.6425 34.134 91.4207 33.1194 91.1989 32.1041C91.1687 32.1078 91.1387 32.1126 91.1085 32.1163C90.8908 33.1279 90.6724 34.1394 90.45 35.1728C90.9469 35.1734 91.3891 35.1734 91.8697 35.1734Z" fill="black"/>
<path d="M57.0994 11.5323C56.5776 11.5323 56.1106 11.5263 55.6436 11.5346C55.4103 11.5384 55.43 11.3683 55.43 11.2049C55.4293 10.1896 55.4293 9.17503 55.4293 8.15973C55.4293 6.85603 55.4365 5.55243 55.4239 4.24954C55.4212 3.956 55.4994 3.8574 55.7729 3.86794C56.6742 3.90332 57.5814 3.86192 58.478 3.9477C59.6297 4.05835 60.378 4.77716 60.5463 5.79933C60.8416 7.58993 59.8953 8.86113 58.1827 8.97033C57.9433 8.98533 57.7014 9.00263 57.4633 8.98163C57.1844 8.95753 57.0821 9.05233 57.0919 9.37443C57.1137 10.0729 57.0994 10.7736 57.0994 11.5323ZM57.115 7.63813C57.7202 7.62073 58.3382 7.80593 58.7287 7.13753C58.9739 6.71833 58.947 5.96043 58.6753 5.60963C58.2508 5.06173 57.6824 5.18143 57.115 5.19413C57.115 6.02213 57.115 6.80413 57.115 7.63813Z" fill="black"/>
<path d="M94.505 17.2148C95.0536 17.2148 95.5539 17.2148 96.098 17.2148C96.105 17.354 96.119 17.485 96.119 17.616C96.121 18.3551 96.114 19.095 96.123 19.8341C96.125 20.0584 96.144 20.2864 96.189 20.5039C96.283 20.9653 96.553 21.213 96.986 21.2378C97.166 21.2483 97.352 21.2318 97.529 21.1927C98.069 21.0737 98.18 20.9149 98.18 20.3098C98.18 19.2959 98.18 18.2821 98.18 17.2351C98.732 17.2351 99.262 17.2351 99.822 17.2351C99.822 19.7408 99.822 22.2532 99.822 24.8009C99.293 24.8009 98.755 24.8009 98.182 24.8009C98.182 23.9045 98.182 23.0216 98.182 22.1222C97.856 22.2689 97.575 22.4428 97.273 22.5241C95.794 22.9215 94.6339 22.0514 94.5192 20.3963C94.4458 19.3539 94.505 18.3002 94.505 17.2148Z" fill="black"/>
<path d="M56.6294 17.206C56.6294 17.8179 56.6294 18.3688 56.6294 18.919C56.6294 19.2577 56.6271 19.5956 56.6301 19.9344C56.6335 20.3965 56.6628 20.8729 57.0859 21.113C57.5328 21.3667 57.9958 21.2748 58.4345 21.0295C58.626 20.9218 58.7002 20.7645 58.6968 20.5169C58.6828 19.5648 58.6913 18.6119 58.6913 17.659C58.6913 17.5243 58.6913 17.3896 58.6913 17.23C59.2495 17.23 59.7699 17.23 60.3206 17.23C60.3206 19.7545 60.3206 22.2759 60.3206 24.8184C59.789 24.8184 59.2672 24.8184 58.6988 24.8184C58.6988 23.9144 58.6988 23.0225 58.6988 22.105C58.3924 22.2518 58.1434 22.4053 57.876 22.4934C56.3594 22.9909 55.0981 22.0546 55.0046 20.328C54.9532 19.3789 54.9815 18.4237 54.991 17.4709C54.9917 17.3813 55.1124 17.2202 55.1825 17.2172C55.6468 17.1947 56.1138 17.206 56.6294 17.206Z" fill="black"/>
<path d="M62.1719 17.2227C63.5801 17.2227 64.9712 17.2227 66.4226 17.2227C66.3699 17.6149 66.3307 17.9942 66.2559 18.3645C66.2426 18.4285 66.0767 18.4917 65.9804 18.4932C65.3967 18.5052 64.8141 18.4992 64.2304 18.4992C64.1066 18.4992 63.9831 18.4992 63.8382 18.4992C63.8382 19.1104 63.8382 19.6802 63.8382 20.2913C64.5311 20.2913 65.2114 20.2913 65.9182 20.2913C65.9182 20.7369 65.9182 21.1411 65.9182 21.5904C65.2134 21.5904 64.5318 21.5904 63.8335 21.5904C63.8335 22.246 63.8335 22.8564 63.8335 23.5067C64.6869 23.5067 65.528 23.5067 66.3981 23.5067C66.3981 23.953 66.3981 24.3602 66.3981 24.8021C65.0035 24.8021 63.6035 24.8021 62.1719 24.8021C62.1719 22.2859 62.1719 19.7652 62.1719 17.2227Z" fill="black"/>
<path d="M105.528 3.90625C105.473 4.32924 105.422 4.72438 105.363 5.17675C104.557 5.17675 103.752 5.17675 102.934 5.17675C102.934 5.80605 102.934 6.37575 102.934 6.98845C103.634 6.98845 104.315 6.98845 105.019 6.98845C105.019 7.42425 105.019 7.81865 105.019 8.26875C104.333 8.26875 103.644 8.26875 102.935 8.26875C102.935 8.93185 102.935 9.53995 102.935 10.2001C103.788 10.2001 104.638 10.2001 105.505 10.2001C105.505 10.66 105.505 11.0694 105.505 11.5082C104.103 11.5082 102.703 11.5082 101.277 11.5082C101.277 8.98525 101.277 6.46005 101.277 3.907C102.672 3.90625 104.071 3.90625 105.528 3.90625Z" fill="black"/>
<path d="M101.666 17.2266C103.092 17.2266 104.493 17.2266 105.924 17.2266C105.873 17.6113 105.841 17.9725 105.767 18.3233C105.75 18.4015 105.587 18.4903 105.49 18.4926C104.895 18.5084 104.3 18.5009 103.705 18.5009C103.582 18.5009 103.459 18.5009 103.321 18.5009C103.321 19.1098 103.321 19.6713 103.321 20.2787C104.012 20.2787 104.702 20.2787 105.421 20.2787C105.421 20.7273 105.421 21.1315 105.421 21.5846C104.726 21.5846 104.034 21.5846 103.324 21.5846C103.324 22.2424 103.324 22.852 103.324 23.5084C104.176 23.5084 105.027 23.5084 105.904 23.5084C105.904 23.9607 105.904 24.3671 105.904 24.8067C104.497 24.8067 103.087 24.8067 101.666 24.8067C101.666 22.274 101.666 19.7601 101.666 17.2266Z" fill="black"/>
<path d="M93.4282 17.2232C93.3745 17.6146 93.3456 17.9646 93.2673 18.301C93.2469 18.3891 93.0745 18.4877 92.9701 18.4915C92.3871 18.5095 91.8037 18.5005 91.22 18.5005C91.0969 18.5005 90.9741 18.5005 90.832 18.5005C90.832 19.1101 90.832 19.6694 90.832 20.2881C91.5207 20.2881 92.2095 20.2881 92.9371 20.2881C92.9371 20.6937 92.9524 21.0423 92.9255 21.387C92.9194 21.4622 92.7636 21.5766 92.6735 21.5804C92.1935 21.6 91.7129 21.5902 91.2323 21.5902C91.1088 21.5902 90.985 21.5902 90.8367 21.5902C90.8367 22.2397 90.8367 22.8471 90.8367 23.5215C91.2524 23.5215 91.6704 23.5215 92.0877 23.5215C92.5109 23.5215 92.933 23.5215 93.3905 23.5215C93.3905 23.9566 93.3905 24.3713 93.3905 24.8116C91.984 24.8116 90.5833 24.8116 89.1415 24.8116C89.1415 24.6633 89.1415 24.5406 89.1415 24.4187C89.1415 22.1486 89.1456 19.8786 89.1367 17.6086C89.1354 17.3113 89.1939 17.1909 89.4932 17.1954C90.6939 17.2134 91.8956 17.2021 93.0973 17.2036C93.1864 17.2029 93.2758 17.2134 93.4282 17.2232Z" fill="black"/>
<path d="M71.4322 7.48344C71.4601 7.49404 71.5118 7.51884 71.5659 7.53464C72.2451 7.73414 72.7594 8.13524 72.8809 8.94064C73.0135 9.81524 72.769 10.5475 72.105 11.0902C70.9982 11.9956 68.9574 11.9016 67.9387 10.8922C67.8645 10.8185 67.8026 10.7289 67.6934 10.5949C67.9605 10.321 68.2077 10.0455 68.4802 9.80474C68.5346 9.75654 68.7104 9.80474 68.7873 9.86944C69.1849 10.2021 69.6193 10.3842 70.1241 10.3533C70.7468 10.3157 71.1479 9.91534 71.1713 9.29964C71.1951 8.66294 70.8176 8.22484 70.1673 8.16994C69.8625 8.14434 69.5536 8.16534 69.1917 8.16534C69.2513 7.73484 69.2934 7.35554 69.3656 6.98374C69.3778 6.91894 69.5152 6.85354 69.6002 6.84144C69.8377 6.80984 70.0836 6.83544 70.3162 6.78504C70.7921 6.68184 71.0326 6.29124 70.9795 5.76734C70.9336 5.31574 70.6356 5.04254 70.1713 5.01924C69.6145 4.99069 69.156 5.26314 68.6836 5.61914C68.4356 5.32704 68.1907 5.03884 67.8829 4.67681C68.2271 4.44048 68.5217 4.1846 68.854 4.02052C69.6894 3.60953 70.5615 3.56814 71.4302 3.88501C72.6261 4.32157 73.1047 5.80504 72.3455 6.76394C72.1098 7.06344 71.7479 7.24184 71.4322 7.48344Z" fill="black"/>
<path d="M111.756 23.0105C111.997 23.3522 112.227 23.6774 112.477 24.0311C111.942 24.6498 111.287 24.9629 110.537 25.0171C108.685 25.1511 107.373 23.9355 107.158 21.9003C107.009 20.4898 107.107 19.135 108.031 18.0188C109.095 16.7318 111.339 16.6588 112.386 17.8849C112.133 18.2123 111.878 18.5419 111.662 18.8212C111.27 18.6631 110.941 18.4682 110.592 18.4019C109.869 18.265 109.31 18.6466 109.071 19.412C108.75 20.4387 108.745 21.4849 109.051 22.5145C109.347 23.5095 110.244 23.9002 111.095 23.4313C111.308 23.3123 111.509 23.1678 111.756 23.0105Z" fill="black"/>
<path d="M87.6133 5.27986C87.6133 4.78761 87.6133 4.36387 87.6133 3.90625C89.3759 3.90625 91.128 3.90625 92.9351 3.90625C92.8865 4.34805 92.8385 4.78686 92.7848 5.27986C92.5467 5.27986 92.3222 5.27456 92.097 5.28136C91.7688 5.29116 91.2991 5.17296 91.1487 5.35966C90.9736 5.57796 91.0627 6.06566 91.0613 6.43596C91.0559 7.97736 91.0586 9.51886 91.0586 11.0603C91.0586 11.2071 91.0586 11.3546 91.0586 11.5127C90.4916 11.5127 89.9712 11.5127 89.4025 11.5127C89.4025 11.3464 89.4025 11.2003 89.4025 11.0536C89.4025 9.26146 89.3963 7.46936 89.4079 5.67726C89.4103 5.37016 89.3382 5.25726 89.0463 5.27306C88.5821 5.29796 88.115 5.27986 87.6133 5.27986Z" fill="black"/>
<path d="M85.8385 38.173C85.3038 38.173 84.8368 38.1713 84.3698 38.1737C84.1255 38.1751 84.1783 37.9758 84.1776 37.8251C84.1742 36.7465 84.1755 35.6679 84.1755 34.5894C84.1755 33.8625 84.1582 33.1339 84.1823 32.4074C84.1946 32.0411 84.1198 31.8822 83.7524 31.919C83.3783 31.9567 82.998 31.922 82.6204 31.9288C82.4459 31.9319 82.3725 31.8625 82.3772 31.6656C82.3861 31.3033 82.38 30.9407 82.38 30.5469C84.166 30.5469 85.93 30.5469 87.7075 30.5469C87.6657 30.9186 87.6146 31.2778 87.5881 31.6384C87.5714 31.8635 87.4823 31.9356 87.2823 31.9302C86.815 31.9183 86.3473 31.9264 85.8371 31.9264C85.8385 34.0128 85.8385 36.0625 85.8385 38.173Z" fill="black"/>
<path d="M127.916 17.2227C129.403 17.2227 130.862 17.2227 132.365 17.2227C132.31 17.6593 132.27 18.0777 132.192 18.4887C132.179 18.5557 131.996 18.6212 131.891 18.6227C131.137 18.634 130.382 18.6287 129.577 18.6287C129.577 20.6985 129.577 22.7458 129.577 24.8118C128.994 24.8118 128.463 24.8118 127.916 24.8118C127.916 22.2806 127.916 19.775 127.916 17.2227Z" fill="black"/>
</g>
<defs>
<clipPath id="clip0_493_2436">
<rect width="146" height="38" fill="white" transform="translate(0.0429688)"/>
</clipPath>
</defs>
</svg>
