<svg width="70" height="63" viewBox="0 0 70 63" fill="none" xmlns="http://www.w3.org/2000/svg">
<path d="M51 63L69.2343 48.8281L47.8439 40.1227L51 63ZM64.4157 30.0357L66.2682 30.7896L64.4157 30.0357ZM43.5068 11.9251L42.3012 10.3293L43.5068 11.9251ZM56.2064 55.5128L58.4423 50.0188L54.7374 48.511L52.5015 54.005L56.2064 55.5128ZM60.6783 44.5247L62.9143 39.0307L59.2093 37.5228L56.9734 43.0169L60.6783 44.5247ZM65.1502 33.5366L66.2682 30.7896L62.5633 29.2818L61.4453 32.0288L65.1502 33.5366ZM66.2682 30.7896C66.6179 29.9302 66.9379 29.0611 67.2279 28.1836L63.43 26.9283C63.1681 27.7207 62.8791 28.5056 62.5633 29.2818L66.2682 30.7896ZM68.6118 22.8079C68.952 20.987 69.1692 19.1452 69.2621 17.2952L65.2671 17.0947C65.1832 18.7655 64.987 20.4289 64.6798 22.0734L68.6118 22.8079ZM69.167 11.745C69.0891 10.8242 68.9801 9.9044 68.8399 8.98725L64.8859 9.59163C65.0125 10.42 65.1109 11.2506 65.1812 12.0822L69.167 11.745ZM68.8399 8.98725C68.5613 7.16415 67.8301 5.55557 66.7873 4.23834L63.6511 6.72117C64.2699 7.50288 64.7139 8.46633 64.8859 9.59163L68.8399 8.98725ZM57.5237 0.473058C55.8576 0.689224 54.2115 1.3315 52.7399 2.44321L55.1511 5.63481C56.0594 4.94862 57.0496 4.56809 58.0383 4.43981L57.5237 0.473058ZM52.7399 2.44321L50.1303 4.41474L52.5414 7.60634L55.1511 5.63481L52.7399 2.44321ZM44.9109 8.35779L42.3012 10.3293L44.7124 13.5209L47.3221 11.5494L44.9109 8.35779ZM42.3012 10.3293C41.5628 10.8872 40.8142 11.4291 40.0558 11.955L42.3351 15.242C43.138 14.6853 43.9306 14.1115 44.7124 13.5209L42.3012 10.3293ZM35.3758 14.9261C33.7739 15.854 32.1372 16.7152 30.47 17.5084L32.1883 21.1205C33.9528 20.281 35.6852 19.3695 37.3808 18.3873L35.3758 14.9261ZM25.3711 19.686C23.6429 20.3429 21.8887 20.9298 20.1131 21.4454L21.2284 25.2867C23.1073 24.7412 24.9636 24.1201 26.7924 23.425L25.3711 19.686ZM14.7303 22.7755C12.9214 23.1458 11.0958 23.4436 9.25794 23.6675L9.74171 27.6382C11.6866 27.4012 13.6184 27.086 15.5325 26.6942L14.7303 22.7755ZM3.73168 24.1153C2.80936 24.1526 1.88514 24.1714 0.959571 24.1714L0.959569 28.1714C1.93916 28.1714 2.91729 28.1515 3.8934 28.112L3.73168 24.1153Z" fill="white"/>
</svg>
