<svg width="64" height="81" viewBox="0 0 64 81" fill="none" xmlns="http://www.w3.org/2000/svg">
<path d="M46.8945 80.1484L62.9263 63.5257L40.5148 57.9531L46.8945 80.1484ZM60.1839 26.7021L62.1248 27.1847L62.1558 27.0601L62.1706 26.9325L60.1839 26.7021ZM61.3963 16.2447L59.4097 16.0143L61.3963 16.2447ZM3.92867 17.1714L3.92867 19.1714L3.92867 17.1714ZM50.8288 72.6141L52.1578 67.2695L48.276 66.3043L46.947 71.6489L50.8288 72.6141ZM53.4867 61.9248L54.8156 56.5802L50.9338 55.615L49.6049 60.9596L53.4867 61.9248ZM56.1446 51.2356L57.4735 45.8909L53.5917 44.9257L52.2628 50.2704L56.1446 51.2356ZM58.8024 40.5463L60.1314 35.2017L56.2496 34.2365L54.9206 39.5811L58.8024 40.5463ZM61.4603 29.857L62.1248 27.1847L58.243 26.2195L57.5785 28.8918L61.4603 29.857ZM62.1706 26.9325L62.4737 24.3181L58.5003 23.8574L58.1972 26.4718L62.1706 26.9325ZM63.0799 19.0894L63.383 16.475L59.4097 16.0143L59.1065 18.6287L63.0799 19.0894ZM63.383 16.475C63.4952 15.5078 63.5152 14.5605 63.4502 13.6392L59.4601 13.921C59.5075 14.5917 59.4936 15.2905 59.4097 16.0143L63.383 16.475ZM61.9352 8.15252C61.0565 6.4241 59.8481 4.9191 58.4191 3.6938L55.8153 6.73032C56.8625 7.62821 57.7375 8.72211 58.3696 9.96539L61.9352 8.15252ZM53.5105 0.885814C51.7299 0.27512 49.8201 -0.00368943 47.8847 0.114894L48.1293 4.1074C49.5215 4.02211 50.908 4.22194 52.2128 4.66945L53.5105 0.885814ZM42.3873 1.59009C41.5601 2.001 40.7536 2.49849 39.9767 3.08541L42.3879 6.27702C42.9693 5.83774 43.5646 5.47157 44.1668 5.17242L42.3873 1.59009ZM39.9767 3.08541C39.1173 3.73469 38.2423 4.3593 37.3528 4.95886L39.5885 8.27573C40.5375 7.63606 41.471 6.9697 42.3879 6.27702L39.9767 3.08541ZM31.8219 8.26796C29.9173 9.2722 27.9626 10.1714 25.9667 10.9626L27.4407 14.6811C29.5701 13.837 31.6556 12.8776 33.6875 11.8062L31.8219 8.26796ZM19.8556 13.0115C17.7861 13.5833 15.6844 14.0441 13.5594 14.3909L14.2036 18.3387C16.4708 17.9687 18.713 17.4771 20.9209 16.867L19.8556 13.0115ZM7.15164 15.0845C6.08048 15.1423 5.0058 15.1714 3.92868 15.1714L3.92867 19.1714C5.0778 19.1714 6.22435 19.1404 7.36715 19.0787L7.15164 15.0845ZM3.92868 15.1714L3.1864 15.1714L3.1864 19.1714L3.92867 19.1714L3.92868 15.1714ZM1.70186 15.1714L0.959582 15.1714L0.959588 19.1714L1.70186 19.1714L1.70186 15.1714Z" fill="white"/>
</svg>
