<svg width="814" height="127" viewBox="0 0 814 127" fill="none" xmlns="http://www.w3.org/2000/svg">
<path d="M0 22C0 9.84973 9.84974 0 22 0H814V92H435.866C425.079 92 414.416 94.2962 404.585 98.7358L356.915 120.264C347.084 124.704 336.421 127 325.634 127H22C9.84973 127 0 117.15 0 105V22Z" fill="white"/>
<path d="M0 22C0 9.84973 9.84974 0 22 0H814V92H435.866C425.079 92 414.416 94.2962 404.585 98.7358L356.915 120.264C347.084 124.704 336.421 127 325.634 127H22C9.84973 127 0 117.15 0 105V22Z" fill="url(#paint0_linear_493_2504)"/>
<defs>
<linearGradient id="paint0_linear_493_2504" x1="846.999" y1="0" x2="846.999" y2="233.441" gradientUnits="userSpaceOnUse">
<stop stop-color="#F6F6F6"/>
<stop offset="1" stop-color="#E4E4E4"/>
</linearGradient>
</defs>
</svg>
