<svg viewBox="0 0 187 38" fill="none" xmlns="http://www.w3.org/2000/svg">
<g clip-path="url(#clip0_493_2416)">
<path d="M73.0646 9.78538V4.69138H70.3016L70.2566 6.01437C70.2386 6.45837 70.2086 6.88437 70.1666 7.29237C70.1306 7.70037 70.0766 8.06938 70.0046 8.39937C69.9326 8.72337 69.8306 8.99038 69.6986 9.20038C69.5726 9.41038 69.4106 9.53938 69.2126 9.58738L68.2406 9.42537C68.4746 9.44338 68.6666 9.36538 68.8166 9.19138C68.9726 9.01138 69.0926 8.76237 69.1766 8.44438C69.2666 8.12038 69.3326 7.74538 69.3746 7.31938C69.4166 6.88737 69.4466 6.42537 69.4646 5.93338L69.5276 3.90838H73.9556V9.78538H73.0646ZM68.0156 11.5854L68.0246 9.42537H74.8826V11.5854H74.0456V10.2084H68.8616L68.8526 11.5854H68.0156ZM79.218 10.2804C78.738 10.2804 78.291 10.1994 77.877 10.0374C77.469 9.87537 77.115 9.65038 76.815 9.36238C76.515 9.06838 76.281 8.72638 76.113 8.33638C75.945 7.94638 75.861 7.52038 75.861 7.05838C75.861 6.59638 75.945 6.17038 76.113 5.78038C76.281 5.39038 76.515 5.05137 76.815 4.76338C77.115 4.46938 77.469 4.24137 77.877 4.07938C78.285 3.91738 78.732 3.83637 79.218 3.83637C79.698 3.83637 80.139 3.91738 80.541 4.07938C80.949 4.23537 81.303 4.46038 81.603 4.75438C81.909 5.04238 82.143 5.38137 82.305 5.77137C82.473 6.16138 82.557 6.59038 82.557 7.05838C82.557 7.52638 82.473 7.95538 82.305 8.34538C82.143 8.73537 81.909 9.07737 81.603 9.37138C81.303 9.65938 80.949 9.88437 80.541 10.0464C80.139 10.2024 79.698 10.2804 79.218 10.2804ZM79.218 9.47937C79.566 9.47937 79.887 9.41938 80.181 9.29938C80.481 9.17938 80.739 9.01137 80.955 8.79537C81.177 8.57337 81.348 8.31538 81.468 8.02138C81.594 7.72738 81.657 7.40638 81.657 7.05838C81.657 6.71038 81.594 6.38937 81.468 6.09537C81.348 5.80137 81.177 5.54638 80.955 5.33037C80.739 5.10838 80.481 4.93737 80.181 4.81737C79.887 4.69738 79.566 4.63738 79.218 4.63738C78.864 4.63738 78.537 4.69738 78.237 4.81737C77.943 4.93737 77.685 5.10838 77.463 5.33037C77.241 5.54638 77.067 5.80137 76.941 6.09537C76.821 6.38937 76.761 6.71038 76.761 7.05838C76.761 7.40638 76.821 7.72738 76.941 8.02138C77.067 8.31538 77.241 8.57337 77.463 8.79537C77.685 9.01137 77.943 9.17938 78.237 9.29938C78.537 9.41938 78.864 9.47937 79.218 9.47937ZM84.2819 10.2084V3.90838H89.0339V4.67337H85.1729V6.47338H87.1349C87.8849 6.47338 88.4549 6.62937 88.8449 6.94137C89.2349 7.25337 89.4299 7.70638 89.4299 8.30037C89.4299 8.91237 89.2169 9.38338 88.7909 9.71338C88.3709 10.0434 87.7679 10.2084 86.9819 10.2084H84.2819ZM85.1729 9.49738H86.9459C87.4679 9.49738 87.8609 9.39838 88.1249 9.20038C88.3949 9.00238 88.5299 8.70838 88.5299 8.31838C88.5299 7.56238 88.0019 7.18437 86.9459 7.18437H85.1729V9.49738ZM91.1349 10.2084V3.90838H93.5919C94.1439 3.90838 94.6149 3.99538 95.0049 4.16938C95.3949 4.34338 95.6949 4.59538 95.9049 4.92538C96.1149 5.25538 96.2199 5.64838 96.2199 6.10438C96.2199 6.56038 96.1149 6.95337 95.9049 7.28337C95.6949 7.60737 95.3949 7.85938 95.0049 8.03938C94.6149 8.21338 94.1439 8.30037 93.5919 8.30037H91.6299L92.0349 7.87737V10.2084H91.1349ZM92.0349 7.96737L91.6299 7.51737H93.5649C94.1409 7.51737 94.5759 7.39437 94.8699 7.14837C95.1699 6.90237 95.3199 6.55438 95.3199 6.10438C95.3199 5.65438 95.1699 5.30638 94.8699 5.06037C94.5759 4.81437 94.1409 4.69138 93.5649 4.69138H91.6299L92.0349 4.24138V7.96737ZM100.665 10.2804C100.185 10.2804 99.7378 10.1994 99.3238 10.0374C98.9158 9.87537 98.5618 9.65038 98.2618 9.36238C97.9618 9.06838 97.7278 8.72638 97.5598 8.33638C97.3918 7.94638 97.3078 7.52038 97.3078 7.05838C97.3078 6.59638 97.3918 6.17038 97.5598 5.78038C97.7278 5.39038 97.9618 5.05137 98.2618 4.76338C98.5618 4.46938 98.9158 4.24137 99.3238 4.07938C99.7318 3.91738 100.179 3.83637 100.665 3.83637C101.145 3.83637 101.586 3.91738 101.988 4.07938C102.396 4.23537 102.75 4.46038 103.05 4.75438C103.356 5.04238 103.59 5.38137 103.752 5.77137C103.92 6.16138 104.004 6.59038 104.004 7.05838C104.004 7.52638 103.92 7.95538 103.752 8.34538C103.59 8.73537 103.356 9.07737 103.05 9.37138C102.75 9.65938 102.396 9.88437 101.988 10.0464C101.586 10.2024 101.145 10.2804 100.665 10.2804ZM100.665 9.47937C101.013 9.47937 101.334 9.41938 101.628 9.29938C101.928 9.17938 102.186 9.01137 102.402 8.79537C102.624 8.57337 102.795 8.31538 102.915 8.02138C103.041 7.72738 103.104 7.40638 103.104 7.05838C103.104 6.71038 103.041 6.38937 102.915 6.09537C102.795 5.80137 102.624 5.54638 102.402 5.33037C102.186 5.10838 101.928 4.93737 101.628 4.81737C101.334 4.69738 101.013 4.63738 100.665 4.63738C100.311 4.63738 99.9838 4.69738 99.6838 4.81737C99.3898 4.93737 99.1318 5.10838 98.9098 5.33037C98.6878 5.54638 98.5138 5.80137 98.3878 6.09537C98.2678 6.38937 98.2078 6.71038 98.2078 7.05838C98.2078 7.40638 98.2678 7.72738 98.3878 8.02138C98.5138 8.31538 98.6878 8.57337 98.9098 8.79537C99.1318 9.01137 99.3898 9.17938 99.6838 9.29938C99.9838 9.41938 100.311 9.47937 100.665 9.47937ZM105.728 10.2084V3.90838H108.437C109.121 3.90838 109.658 4.04638 110.048 4.32238C110.438 4.59838 110.633 5.00037 110.633 5.52837C110.633 6.04437 110.447 6.44038 110.075 6.71638C109.703 6.98638 109.214 7.12138 108.608 7.12138L108.77 6.85137C109.472 6.85137 110.009 6.99237 110.381 7.27437C110.759 7.55037 110.948 7.95538 110.948 8.48938C110.948 9.02938 110.75 9.45238 110.354 9.75838C109.964 10.0584 109.382 10.2084 108.608 10.2084H105.728ZM106.619 9.49738H108.59C109.07 9.49738 109.43 9.41037 109.67 9.23637C109.916 9.05638 110.039 8.78338 110.039 8.41738C110.039 8.05138 109.916 7.78438 109.67 7.61637C109.43 7.44837 109.07 7.36438 108.59 7.36438H106.619V9.49738ZM106.619 6.68038H108.374C108.812 6.68038 109.145 6.59338 109.373 6.41938C109.607 6.24538 109.724 5.99037 109.724 5.65437C109.724 5.31237 109.607 5.05438 109.373 4.88038C109.145 4.70638 108.812 4.61937 108.374 4.61937H106.619V6.68038ZM115.557 10.2804C115.077 10.2804 114.63 10.1994 114.216 10.0374C113.808 9.87537 113.454 9.65038 113.154 9.36238C112.854 9.06838 112.62 8.72638 112.452 8.33638C112.284 7.94638 112.2 7.52038 112.2 7.05838C112.2 6.59638 112.284 6.17038 112.452 5.78038C112.62 5.39038 112.854 5.05137 113.154 4.76338C113.454 4.46938 113.808 4.24137 114.216 4.07938C114.624 3.91738 115.071 3.83637 115.557 3.83637C116.037 3.83637 116.478 3.91738 116.88 4.07938C117.288 4.23537 117.642 4.46038 117.942 4.75438C118.248 5.04238 118.482 5.38137 118.644 5.77137C118.812 6.16138 118.896 6.59038 118.896 7.05838C118.896 7.52638 118.812 7.95538 118.644 8.34538C118.482 8.73537 118.248 9.07737 117.942 9.37138C117.642 9.65938 117.288 9.88437 116.88 10.0464C116.478 10.2024 116.037 10.2804 115.557 10.2804ZM115.557 9.47937C115.905 9.47937 116.226 9.41938 116.52 9.29938C116.82 9.17938 117.078 9.01137 117.294 8.79537C117.516 8.57337 117.687 8.31538 117.807 8.02138C117.933 7.72738 117.996 7.40638 117.996 7.05838C117.996 6.71038 117.933 6.38937 117.807 6.09537C117.687 5.80137 117.516 5.54638 117.294 5.33037C117.078 5.10838 116.82 4.93737 116.52 4.81737C116.226 4.69738 115.905 4.63738 115.557 4.63738C115.203 4.63738 114.876 4.69738 114.576 4.81737C114.282 4.93737 114.024 5.10838 113.802 5.33037C113.58 5.54638 113.406 5.80137 113.28 6.09537C113.16 6.38937 113.1 6.71038 113.1 7.05838C113.1 7.40638 113.16 7.72738 113.28 8.02138C113.406 8.31538 113.58 8.57337 113.802 8.79537C114.024 9.01137 114.282 9.17938 114.576 9.29938C114.876 9.41938 115.203 9.47937 115.557 9.47937ZM120.148 10.2804C120.058 10.2804 119.968 10.2744 119.878 10.2624C119.788 10.2504 119.689 10.2324 119.581 10.2084L119.644 9.40738C119.74 9.43138 119.836 9.44338 119.932 9.44338C120.196 9.44338 120.406 9.33838 120.562 9.12838C120.718 8.91838 120.832 8.60038 120.904 8.17438C120.982 7.74838 121.033 7.21138 121.057 6.56338L121.156 3.90838H125.593V10.2084H124.711V4.45737L124.927 4.69138H121.732L121.93 4.44837L121.858 6.53638C121.84 7.16038 121.798 7.70638 121.732 8.17438C121.666 8.64238 121.567 9.03238 121.435 9.34438C121.303 9.65638 121.132 9.89037 120.922 10.0464C120.718 10.2024 120.46 10.2804 120.148 10.2804ZM130.589 6.10438C131.333 6.10438 131.906 6.27237 132.308 6.60837C132.71 6.93837 132.911 7.43338 132.911 8.09338C132.911 8.78938 132.692 9.31737 132.254 9.67737C131.822 10.0314 131.213 10.2084 130.427 10.2084H127.826V3.90838H128.717V6.10438H130.589ZM130.391 9.49738C130.913 9.49738 131.312 9.38038 131.588 9.14638C131.87 8.91238 132.011 8.56737 132.011 8.11137C132.011 7.66737 131.873 7.34037 131.597 7.13037C131.321 6.92037 130.919 6.81538 130.391 6.81538H128.717V9.49738H130.391ZM139.03 3.90838H139.93V10.2084H139.03V3.90838ZM135.412 10.2084H134.512V3.90838H135.412V10.2084ZM139.111 7.40038H135.322V6.61738H139.111V7.40038ZM144.927 6.10438C145.671 6.10438 146.244 6.27237 146.646 6.60837C147.048 6.93837 147.249 7.43338 147.249 8.09338C147.249 8.78938 147.03 9.31737 146.592 9.67737C146.16 10.0314 145.551 10.2084 144.765 10.2084H142.164V3.90838H143.055V6.10438H144.927ZM144.729 9.49738C145.251 9.49738 145.65 9.38038 145.926 9.14638C146.208 8.91238 146.349 8.56737 146.349 8.11137C146.349 7.66737 146.211 7.34037 145.935 7.13037C145.659 6.92037 145.257 6.81538 144.729 6.81538H143.055V9.49738H144.729ZM148.248 10.2084V3.90838H149.139V10.2084H148.248ZM151.373 10.2084V3.90838H152.264V8.76838L155.99 3.90838H156.818V10.2084H155.936V5.35737L152.201 10.2084H151.373ZM154.082 3.46738C153.59 3.46738 153.209 3.35937 152.939 3.14337C152.675 2.92737 152.54 2.62437 152.534 2.23438H153.173C153.179 2.46837 153.263 2.65138 153.425 2.78338C153.587 2.90938 153.806 2.97237 154.082 2.97237C154.352 2.97237 154.568 2.90938 154.73 2.78338C154.898 2.65138 154.985 2.46837 154.991 2.23438H155.621C155.615 2.62437 155.477 2.92737 155.207 3.14337C154.943 3.35937 154.568 3.46738 154.082 3.46738ZM73.1186 20.2084L70.8326 17.1034L71.5616 16.6534L74.1446 20.2084H73.1186ZM68.8796 20.2084V13.9084H69.7616V20.2084H68.8796ZM69.4916 17.4364V16.6444H71.5346V17.4364H69.4916ZM71.6426 17.1574L70.8146 17.0314L73.0736 13.9084H74.0366L71.6426 17.1574ZM75.3371 20.2084V13.9084H78.0461C78.7301 13.9084 79.2671 14.0464 79.6571 14.3224C80.0471 14.5984 80.2421 15.0004 80.2421 15.5284C80.2421 16.0444 80.0561 16.4404 79.6841 16.7164C79.3121 16.9864 78.8231 17.1214 78.2171 17.1214L78.3791 16.8514C79.0811 16.8514 79.6181 16.9924 79.9901 17.2744C80.3681 17.5504 80.5571 17.9554 80.5571 18.4894C80.5571 19.0294 80.3591 19.4524 79.9631 19.7584C79.5731 20.0584 78.9911 20.2084 78.2171 20.2084H75.3371ZM76.2281 19.4974H78.1991C78.6791 19.4974 79.0391 19.4104 79.2791 19.2364C79.5251 19.0564 79.6481 18.7834 79.6481 18.4174C79.6481 18.0514 79.5251 17.7844 79.2791 17.6164C79.0391 17.4484 78.6791 17.3644 78.1991 17.3644H76.2281V19.4974ZM76.2281 16.6804H77.9831C78.4211 16.6804 78.7541 16.5934 78.9821 16.4194C79.2161 16.2454 79.3331 15.9904 79.3331 15.6544C79.3331 15.3124 79.2161 15.0544 78.9821 14.8804C78.7541 14.7064 78.4211 14.6194 77.9831 14.6194H76.2281V16.6804ZM81.4578 20.2084L84.3108 13.9084H85.2018L88.0638 20.2084H87.1188L84.5718 14.4124H84.9318L82.3848 20.2084H81.4578ZM82.6728 18.6334L82.9158 17.9134H86.4618L86.7228 18.6334H82.6728ZM89.1241 20.2804C89.0341 20.2804 88.9441 20.2744 88.8541 20.2624C88.7641 20.2504 88.6651 20.2324 88.5571 20.2084L88.6201 19.4074C88.7161 19.4314 88.8121 19.4434 88.9081 19.4434C89.1721 19.4434 89.3821 19.3384 89.5381 19.1284C89.6941 18.9184 89.8081 18.6004 89.8801 18.1744C89.9581 17.7484 90.0091 17.2114 90.0331 16.5634L90.1321 13.9084H94.5691V20.2084H93.6871V14.4574L93.9031 14.6914H90.7081L90.9061 14.4484L90.8341 16.5364C90.8161 17.1604 90.7741 17.7064 90.7081 18.1744C90.6421 18.6424 90.5431 19.0324 90.4111 19.3444C90.2791 19.6564 90.1081 19.8904 89.8981 20.0464C89.6941 20.2024 89.4361 20.2804 89.1241 20.2804ZM96.8014 20.2084V13.9084H97.6924V18.7684L101.418 13.9084H102.246V20.2084H101.364V15.3574L97.6294 20.2084H96.8014ZM107.558 19.7854C106.79 19.7854 106.133 19.6804 105.587 19.4704C105.041 19.2544 104.624 18.9424 104.336 18.5344C104.048 18.1264 103.904 17.6314 103.904 17.0494C103.904 16.4674 104.048 15.9724 104.336 15.5644C104.624 15.1564 105.041 14.8444 105.587 14.6284C106.133 14.4124 106.79 14.3044 107.558 14.3044C107.57 14.3044 107.591 14.3044 107.621 14.3044C107.657 14.3044 107.69 14.3044 107.72 14.3044C107.756 14.3044 107.777 14.3044 107.783 14.3044C108.551 14.3044 109.205 14.4124 109.745 14.6284C110.291 14.8444 110.708 15.1564 110.996 15.5644C111.284 15.9724 111.428 16.4674 111.428 17.0494C111.428 17.6254 111.284 18.1204 110.996 18.5344C110.714 18.9424 110.303 19.2544 109.763 19.4704C109.229 19.6804 108.581 19.7854 107.819 19.7854C107.807 19.7854 107.78 19.7854 107.738 19.7854C107.702 19.7854 107.666 19.7854 107.63 19.7854C107.594 19.7854 107.57 19.7854 107.558 19.7854ZM107.657 19.0834C107.669 19.0834 107.684 19.0834 107.702 19.0834C107.72 19.0834 107.729 19.0834 107.729 19.0834C108.341 19.0774 108.857 18.9994 109.277 18.8494C109.697 18.6934 110.015 18.4654 110.231 18.1654C110.453 17.8594 110.564 17.4844 110.564 17.0404C110.564 16.6024 110.453 16.2334 110.231 15.9334C110.009 15.6334 109.688 15.4054 109.268 15.2494C108.854 15.0934 108.347 15.0154 107.747 15.0154C107.741 15.0154 107.726 15.0154 107.702 15.0154C107.684 15.0154 107.669 15.0154 107.657 15.0154C107.039 15.0154 106.514 15.0934 106.082 15.2494C105.656 15.3994 105.332 15.6244 105.11 15.9244C104.888 16.2244 104.777 16.5994 104.777 17.0494C104.777 17.4994 104.891 17.8744 105.119 18.1744C105.347 18.4744 105.674 18.7024 106.1 18.8584C106.532 19.0084 107.051 19.0834 107.657 19.0834ZM107.252 20.4424V13.6744H108.089V20.4424H107.252ZM113.082 20.2084V13.9084H113.973V18.7684L117.699 13.9084H118.527V20.2084H117.645V15.3574L113.91 20.2084H113.082ZM125.001 20.2084L122.715 17.1034L123.444 16.6534L126.027 20.2084H125.001ZM120.762 20.2084V13.9084H121.644V20.2084H120.762ZM121.374 17.4364V16.6444H123.417V17.4364H121.374ZM123.525 17.1574L122.697 17.0314L124.956 13.9084H125.919L123.525 17.1574ZM126.258 20.2084L129.111 13.9084H130.002L132.864 20.2084H131.919L129.372 14.4124H129.732L127.185 20.2084H126.258ZM127.473 18.6334L127.716 17.9134H131.262L131.523 18.6334H127.473ZM134.222 20.2084V13.9084H135.113V19.4254H138.623V13.9084H139.514V20.2084H134.222ZM139.649 21.6394V19.9744L139.865 20.2084H138.623V19.4254H140.486V21.6394H139.649ZM141.953 20.2084V13.9084H142.844V18.7684L146.57 13.9084H147.398V20.2084H146.516V15.3574L142.781 20.2084H141.953ZM152.468 20.2804C151.988 20.2804 151.541 20.1994 151.127 20.0374C150.719 19.8754 150.365 19.6504 150.065 19.3624C149.765 19.0684 149.531 18.7264 149.363 18.3364C149.195 17.9464 149.111 17.5204 149.111 17.0584C149.111 16.5964 149.195 16.1704 149.363 15.7804C149.531 15.3904 149.765 15.0514 150.065 14.7634C150.365 14.4694 150.719 14.2414 151.127 14.0794C151.535 13.9174 151.982 13.8364 152.468 13.8364C152.948 13.8364 153.389 13.9174 153.791 14.0794C154.199 14.2354 154.553 14.4604 154.853 14.7544C155.159 15.0424 155.393 15.3814 155.555 15.7714C155.723 16.1614 155.807 16.5904 155.807 17.0584C155.807 17.5264 155.723 17.9554 155.555 18.3454C155.393 18.7354 155.159 19.0774 154.853 19.3714C154.553 19.6594 154.199 19.8844 153.791 20.0464C153.389 20.2024 152.948 20.2804 152.468 20.2804ZM152.468 19.4794C152.816 19.4794 153.137 19.4194 153.431 19.2994C153.731 19.1794 153.989 19.0114 154.205 18.7954C154.427 18.5734 154.598 18.3154 154.718 18.0214C154.844 17.7274 154.907 17.4064 154.907 17.0584C154.907 16.7104 154.844 16.3894 154.718 16.0954C154.598 15.8014 154.427 15.5464 154.205 15.3304C153.989 15.1084 153.731 14.9374 153.431 14.8174C153.137 14.6974 152.816 14.6374 152.468 14.6374C152.114 14.6374 151.787 14.6974 151.487 14.8174C151.193 14.9374 150.935 15.1084 150.713 15.3304C150.491 15.5464 150.317 15.8014 150.191 16.0954C150.071 16.3894 150.011 16.7104 150.011 17.0584C150.011 17.4064 150.071 17.7274 150.191 18.0214C150.317 18.3154 150.491 18.5734 150.713 18.7954C150.935 19.0114 151.193 19.1794 151.487 19.2994C151.787 19.4194 152.114 19.4794 152.468 19.4794ZM162.05 13.9084H162.95V20.2084H162.05V13.9084ZM158.432 20.2084H157.532V13.9084H158.432V20.2084ZM162.131 17.4004H158.342V16.6174H162.131V17.4004ZM169.702 13.9084H170.602V20.2084H169.702V13.9084ZM166.084 20.2084H165.184V13.9084H166.084V20.2084ZM169.783 17.4004H165.994V16.6174H169.783V17.4004ZM175.6 16.1044C176.344 16.1044 176.917 16.2724 177.319 16.6084C177.721 16.9384 177.922 17.4334 177.922 18.0934C177.922 18.7894 177.703 19.3174 177.265 19.6774C176.833 20.0314 176.224 20.2084 175.438 20.2084H172.837V13.9084H173.728V16.1044H175.6ZM175.402 19.4974C175.924 19.4974 176.323 19.3804 176.599 19.1464C176.881 18.9124 177.022 18.5674 177.022 18.1114C177.022 17.6674 176.884 17.3404 176.608 17.1304C176.332 16.9204 175.93 16.8154 175.402 16.8154H173.728V19.4974H175.402ZM178.921 20.2084V13.9084H179.812V20.2084H178.921ZM182.046 20.2084V13.9084H182.937V18.7684L186.663 13.9084H187.491V20.2084H186.609V15.3574L182.874 20.2084H182.046ZM184.755 13.4674C184.263 13.4674 183.882 13.3594 183.612 13.1434C183.348 12.9274 183.213 12.6244 183.207 12.2344H183.846C183.852 12.4684 183.936 12.6514 184.098 12.7834C184.26 12.9094 184.479 12.9724 184.755 12.9724C185.025 12.9724 185.241 12.9094 185.403 12.7834C185.571 12.6514 185.658 12.4684 185.664 12.2344H186.294C186.288 12.6244 186.15 12.9274 185.88 13.1434C185.616 13.3594 185.241 13.4674 184.755 13.4674ZM69.8066 27.3734V26.6354H73.1816V27.3734H69.8066ZM70.6166 23.8364C71.0726 23.8364 71.4926 23.9174 71.8766 24.0794C72.2606 24.2354 72.5936 24.4604 72.8756 24.7544C73.1636 25.0424 73.3856 25.3814 73.5416 25.7714C73.7036 26.1614 73.7846 26.5904 73.7846 27.0584C73.7846 27.5264 73.7036 27.9554 73.5416 28.3454C73.3856 28.7354 73.1636 29.0774 72.8756 29.3714C72.5936 29.6594 72.2606 29.8844 71.8766 30.0464C71.4926 30.2024 71.0726 30.2804 70.6166 30.2804C70.1126 30.2804 69.6476 30.1964 69.2216 30.0284C68.8016 29.8604 68.4476 29.6144 68.1596 29.2904L68.7266 28.7234C68.9786 28.9814 69.2576 29.1704 69.5636 29.2904C69.8756 29.4104 70.2116 29.4704 70.5716 29.4704C70.9016 29.4704 71.2076 29.4104 71.4896 29.2904C71.7716 29.1704 72.0146 29.0054 72.2186 28.7954C72.4286 28.5794 72.5906 28.3244 72.7046 28.0304C72.8186 27.7304 72.8756 27.4064 72.8756 27.0584C72.8756 26.7104 72.8186 26.3894 72.7046 26.0954C72.5906 25.7954 72.4286 25.5404 72.2186 25.3304C72.0146 25.1144 71.7716 24.9464 71.4896 24.8264C71.2076 24.7064 70.9016 24.6464 70.5716 24.6464C70.2116 24.6464 69.8756 24.7064 69.5636 24.8264C69.2576 24.9464 68.9786 25.1354 68.7266 25.3934L68.1596 24.8264C68.4476 24.5024 68.8016 24.2564 69.2216 24.0884C69.6476 23.9204 70.1126 23.8364 70.6166 23.8364ZM79.7519 30.2084L77.4659 27.1034L78.1949 26.6534L80.7779 30.2084H79.7519ZM75.5129 30.2084V23.9084H76.3949V30.2084H75.5129ZM76.1249 27.4364V26.6444H78.1679V27.4364H76.1249ZM78.2759 27.1574L77.4479 27.0314L79.7069 23.9084H80.6699L78.2759 27.1574ZM81.0225 29.5244L81.3375 28.8584C81.6135 29.0744 81.9165 29.2364 82.2465 29.3444C82.5825 29.4524 82.9155 29.5094 83.2455 29.5154C83.5755 29.5154 83.8785 29.4704 84.1545 29.3804C84.4365 29.2904 84.6615 29.1554 84.8295 28.9754C84.9975 28.7954 85.0815 28.5734 85.0815 28.3094C85.0815 27.9854 84.9495 27.7394 84.6855 27.5714C84.4275 27.4034 84.0675 27.3194 83.6055 27.3194H82.2015V26.5904H83.5425C83.9445 26.5904 84.2565 26.5094 84.4785 26.3474C84.7065 26.1794 84.8205 25.9484 84.8205 25.6544C84.8205 25.4324 84.7515 25.2464 84.6135 25.0964C84.4815 24.9404 84.2985 24.8234 84.0645 24.7454C83.8365 24.6674 83.5755 24.6284 83.2815 24.6284C82.9935 24.6224 82.6965 24.6614 82.3905 24.7454C82.0845 24.8234 81.7905 24.9494 81.5085 25.1234L81.2205 24.3854C81.6045 24.1694 82.0035 24.0194 82.4175 23.9354C82.8375 23.8454 83.2425 23.8184 83.6325 23.8544C84.0225 23.8844 84.3735 23.9744 84.6855 24.1244C85.0035 24.2684 85.2555 24.4604 85.4415 24.7004C85.6335 24.9344 85.7295 25.2164 85.7295 25.5464C85.7295 25.8464 85.6515 26.1134 85.4955 26.3474C85.3395 26.5754 85.1235 26.7524 84.8475 26.8784C84.5715 26.9984 84.2505 27.0584 83.8845 27.0584L83.9205 26.8154C84.3405 26.8154 84.7035 26.8844 85.0095 27.0224C85.3215 27.1544 85.5615 27.3434 85.7295 27.5894C85.9035 27.8354 85.9905 28.1204 85.9905 28.4444C85.9905 28.7504 85.9125 29.0234 85.7565 29.2634C85.6005 29.4974 85.3875 29.6954 85.1175 29.8574C84.8535 30.0134 84.5505 30.1274 84.2085 30.1994C83.8725 30.2714 83.5185 30.2954 83.1465 30.2714C82.7745 30.2474 82.4055 30.1754 82.0395 30.0554C81.6795 29.9354 81.3405 29.7584 81.0225 29.5244ZM86.8869 30.2084L89.7399 23.9084H90.6309L93.4929 30.2084H92.5479L90.0009 24.4124H90.3609L87.8139 30.2084H86.8869ZM88.1019 28.6334L88.3449 27.9134H91.8909L92.1519 28.6334H88.1019ZM94.8503 30.2084V23.9084H95.5883L98.4143 28.6694H98.0183L100.808 23.9084H101.546L101.555 30.2084H100.691L100.682 25.2674H100.889L98.4053 29.4434H97.9913L95.4893 25.2674H95.7143V30.2084H94.8503ZM104.605 26.6264H107.845V27.3914H104.605V26.6264ZM104.686 29.4254H108.358V30.2084H103.786V23.9084H108.232V24.6914H104.686V29.4254ZM114.559 23.9084H115.459V30.2084H114.559V23.9084ZM110.941 30.2084H110.041V23.9084H110.941V30.2084ZM114.64 27.4004H110.851V26.6174H114.64V27.4004Z" fill="black"/>
<path d="M2.07819 25.7881C4.62091 21.9255 5.06099 17.085 5.06099 12.9045V8.40625H17.8479V33.0487H14.1317V28.9907H3.44734V33.0487H0V25.7635H2.07819V25.7881ZM14.1317 25.7881V11.6333H8.63058V13.1735C8.63058 17.2072 8.11715 22.3166 5.96561 25.7881H14.1317Z" fill="black"/>
<path d="M23.0312 0.0195312H26.772V8.40484H29.437L34.278 0.0195312H38.3365L32.5177 9.82276V9.87165L38.7033 20.6038H34.4735L29.4614 11.6074H26.7964V20.6038H23.0557V0.0195312H23.0312Z" fill="black"/>
<path d="M43.6151 32.2113C45.0576 33.6048 47.3558 34.6071 49.7274 34.6071C53.4681 34.6071 55.9375 32.0891 56.4265 28.8621H46.549V25.8062H56.4509C56.0108 22.5303 53.4437 20.0856 49.7518 20.0856C47.6003 20.0856 45.6199 20.8923 43.884 22.4081L42.0748 19.5967C43.9818 17.6409 46.9402 16.6875 49.8496 16.6875C56.2798 16.6875 60.3872 21.3568 60.3872 27.2241C60.3872 33.3359 55.9375 37.9808 49.7029 37.9808C46.3045 37.9808 43.5906 36.6117 41.6836 34.8271L43.6151 32.2113Z" fill="black"/>
<path d="M17.8724 0.117188H0V3.17306H17.8724V0.117188Z" fill="#EE3235"/>
<path d="M60.2199 8.40625H41.7363V11.4622H60.2199V8.40625Z" fill="#EE3235"/>
<path d="M38.7033 25.8359H23.0312V28.8918H38.7033V25.8359Z" fill="#EE3235"/>
</g>
<defs>
<clipPath id="clip0_493_2416">
<rect width="187" height="38" fill="white"/>
</clipPath>
</defs>
</svg>
