<svg viewBox="0 0 167 38" fill="none" xmlns="http://www.w3.org/2000/svg">
<mask id="mask0_493_2424" style="mask-type:luminance" maskUnits="userSpaceOnUse" x="0" y="0" width="167" height="38">
<path d="M166.044 0H0V38H166.044V0Z" fill="white"/>
</mask>
<g mask="url(#mask0_493_2424)">
<mask id="mask1_493_2424" style="mask-type:luminance" maskUnits="userSpaceOnUse" x="0" y="0" width="166" height="38">
<path d="M165.744 0.40625H0.527344V38.0006H165.744V0.40625Z" fill="white"/>
</mask>
<g mask="url(#mask1_493_2424)">
<path d="M15.4557 8.44737C15.5277 8.41846 15.6058 8.4097 15.6822 8.42184C15.7585 8.43407 15.8303 8.46671 15.89 8.51644C15.7204 8.73064 15.5983 8.69602 15.4557 8.44737ZM38.8324 6.81016H37.8485V4.82061H38.2284C38.8596 4.29555 39.2056 3.43898 39.2056 1.58062V0.751638H42.2523V4.82061H42.931V6.81016H41.9199V5.74633H38.8663L38.8324 6.81016ZM39.3142 4.82061H41.2413V1.67736H40.1488C40.1217 3.20404 39.8841 4.17816 39.3142 4.82061ZM47.3484 4.82061H44.9667V3.55636H46.6699V2.69286H44.9667V1.67736H47.2602V0.751638H43.9556V5.74633H47.3484V4.82061ZM49.5401 1.67736H51.576V5.74633H52.5732V0.751638H48.5699V5.74633H49.5741L49.5401 1.67736ZM54.6093 5.74633H53.53L55.7218 0.661842H56.0542L58.2396 5.74633H57.1602L56.8893 5.09694H54.8531L54.6093 5.74633ZM55.2266 4.25409H56.536L55.8578 2.56853L55.2266 4.25409ZM60.2411 5.74633H59.2235V0.751638H61.0622C61.2847 0.727516 61.5093 0.751142 61.7225 0.820863C61.9352 0.890589 62.1317 1.00501 62.2983 1.15659C62.465 1.30826 62.5991 1.4938 62.6911 1.70131C62.7831 1.90874 62.8316 2.1336 62.8331 2.36128C62.8316 2.58952 62.7831 2.81479 62.6911 3.02297C62.5991 3.23106 62.4656 3.41742 62.2988 3.57008C62.1326 3.72283 61.9363 3.83856 61.7235 3.90993C61.5104 3.98131 61.2852 4.00675 61.0622 3.9847H60.2411V5.74633ZM60.2411 3.09352H61.076C61.174 3.10384 61.2734 3.0921 61.3663 3.05939C61.4599 3.0266 61.545 2.97348 61.6162 2.90376C61.687 2.83403 61.7423 2.74936 61.7779 2.65569C61.8136 2.56201 61.8284 2.46156 61.8224 2.36128C61.8224 2.26445 61.8032 2.16855 61.7651 2.07991C61.7265 1.99127 61.6706 1.91179 61.6004 1.84662C61.5296 1.78152 61.4464 1.73212 61.3565 1.70181C61.266 1.67149 61.1705 1.66075 61.076 1.6705H60.2411V3.09352ZM65.1807 5.74633H66.1854V1.67736H67.7599V0.751638H63.6338V1.67736H65.2015L65.1807 5.74633ZM67.7194 5.74633L69.8968 0.661842H70.2362L72.4146 5.74633H71.3422L71.0979 5.09694H69.0624L68.7844 5.74633H67.7194ZM69.4224 4.25409H70.7319L70.0531 2.56853L69.4224 4.25409ZM74.4166 3.07971L75.6512 4.65481H75.9772L77.2055 3.07971V5.74633H78.2097V0.661842H77.8841L75.8076 3.36298L73.7315 0.661842H73.3986V5.74633H74.4032L74.4166 3.07971ZM83.0409 4.82061H80.6528V3.55636H82.3416V2.69286H80.6528V1.67736H82.9458V0.751638H79.6481V5.74633H83.0409V4.82061ZM85.2325 3.5909H87.3836V5.74633H88.3815V0.751638H87.3836V2.66527H85.2127V0.751638H84.2081V5.74633H85.2127L85.2325 3.5909ZM90.9522 5.74633H91.9577V1.67736H93.5322V0.751638H89.4191V1.67736H90.987L90.9522 5.74633ZM42.2387 14.8236V9.82899H38.2353V14.8236H39.2395V10.7685H41.2752V14.8374L42.2387 14.8236ZM44.6884 14.8236H43.6841V9.82899H45.5299C45.7539 9.80471 45.9806 9.82884 46.1949 9.89979C46.4092 9.97076 46.6064 10.087 46.7736 10.2409C46.9406 10.3948 47.0741 10.5828 47.165 10.7928C47.2558 11.0028 47.3023 11.2299 47.301 11.4594C47.2981 11.6872 47.249 11.9121 47.1567 12.1196C47.0643 12.3272 46.9308 12.5133 46.7645 12.6657C46.598 12.8182 46.4024 12.9341 46.19 13.0058C45.9775 13.0775 45.7527 13.1038 45.5299 13.0827H44.6884V14.8236ZM44.6884 12.1709H45.5299C45.6256 12.1798 45.7223 12.1678 45.8132 12.1358C45.9042 12.1037 45.9875 12.0523 46.0574 11.9851C46.1273 11.9176 46.1824 11.8361 46.219 11.7454C46.2555 11.6548 46.2727 11.5573 46.2695 11.4594C46.2699 11.3631 46.2504 11.2678 46.2126 11.1798C46.1747 11.0917 46.1193 11.0125 46.0496 10.9475C45.98 10.8824 45.8979 10.833 45.8084 10.8021C45.7188 10.7714 45.6239 10.7599 45.5299 10.7685H44.6884V12.1709ZM51.7318 13.898H49.3434V12.6338H51.0329V11.7633H49.3434V10.7685H51.6438V9.82899H48.346V14.8236H51.7387L51.7318 13.898ZM53.6116 15.8875H52.6074V13.898H52.9873C53.6185 13.373 53.9642 12.4817 53.9642 10.658V9.82899H57.0113V13.898H57.6896V15.8875H56.6651V14.8236H53.6116V15.8875ZM54.0933 13.898H56.0136V10.7685H54.9278C54.9007 12.2814 54.6296 13.2555 54.0933 13.898ZM59.7459 10.7685H61.7814V14.8374H62.7791V9.82899H58.7753V14.8236H59.7795L59.7459 10.7685ZM67.8073 11.4594C67.8044 11.6872 67.7555 11.9121 67.6629 12.1196C67.5704 12.3272 67.4373 12.5133 67.2707 12.6657C67.1039 12.8182 66.909 12.9341 66.6963 13.0058C66.4837 13.0775 66.2591 13.1038 66.0364 13.0827H65.1951V14.8443H64.1973V9.82899H66.0364C66.2601 9.80471 66.4866 9.82884 66.7008 9.89979C66.9155 9.97076 67.1124 10.087 67.2796 10.2409C67.4467 10.3948 67.5808 10.5828 67.6713 10.7928C67.7619 11.0028 67.8083 11.2299 67.8073 11.4594ZM66.7824 11.4594C66.7834 11.3625 66.7636 11.2666 66.7251 11.178C66.687 11.0894 66.631 11.0099 66.5609 10.9447C66.49 10.8796 66.407 10.8303 66.3165 10.7998C66.2264 10.7695 66.1305 10.7588 66.0364 10.7685H65.1951V12.1502H66.0364C66.1305 12.1599 66.2264 12.1493 66.3165 12.1188C66.407 12.0884 66.49 12.0392 66.5609 11.974C66.631 11.9088 66.687 11.8294 66.7251 11.7407C66.7636 11.652 66.7834 11.5562 66.7824 11.4594ZM69.8499 9.84974H68.8521V14.9135H69.1781L72.0957 11.7563V14.8236H73.1335V9.7392H72.8015L69.8499 12.8411V9.84974ZM77.7145 11.7633H75.5428V9.82899H74.5383V14.8236H75.5428V12.6683H77.7145V14.8236H78.7186V9.82899H77.7145V11.7633ZM81.1618 12.8411V9.80141H80.1571V14.9135H80.4832L83.4068 11.7563V14.8236H84.4048V9.7392H84.0727L81.1618 12.8411ZM88.2526 12.4127L86.1759 9.71154H85.8504V14.796H86.8541V12.1502L88.0627 13.7322H88.3882L89.643 12.1502V14.8167H90.6483V9.7392H90.322L88.2526 12.4127ZM91.6454 14.796L93.837 9.71154H94.1691L96.3549 14.796H95.2827L95.0042 14.1467H92.9688L92.697 14.796H91.6454ZM93.3479 13.3038H94.6573L93.9791 11.6183L93.3479 13.3038ZM97.8947 14.796H98.92V10.7685H100.494V9.82899H96.3475V10.7685H97.9154L97.8947 14.796ZM104.836 13.8703H102.455V12.6338H104.144V11.7633H102.455V10.7685H104.748V9.82899H101.45V14.8236H104.843L104.836 13.8703ZM108.99 14.796H109.994V9.82899H106.804V10.7685C106.804 12.9515 106.431 13.815 105.643 13.9118V14.872C106.878 14.7822 107.734 13.9739 107.768 10.7685H108.99V14.796ZM113.448 14.796H111.412V9.82899H112.416V11.5491H113.421C113.644 11.5282 113.87 11.555 114.082 11.6278C114.295 11.7005 114.491 11.8176 114.656 11.9718C114.823 12.1258 114.955 12.3134 115.046 12.5225C115.137 12.7317 115.184 12.9578 115.184 13.1864C115.184 13.4149 115.137 13.641 115.046 13.8502C114.955 14.0593 114.823 14.247 114.656 14.401C114.491 14.5551 114.295 14.6723 114.082 14.7451C113.87 14.8179 113.644 14.8446 113.421 14.8236L113.448 14.796ZM114.207 13.1587C114.216 13.0561 114.203 12.9527 114.166 12.8562C114.131 12.7597 114.075 12.6725 114.002 12.6008C113.93 12.5294 113.843 12.4752 113.746 12.4428C113.649 12.4102 113.547 12.3999 113.448 12.4127H112.443V13.8911H113.448C113.543 13.9009 113.64 13.8898 113.732 13.8587C113.822 13.8275 113.907 13.7769 113.977 13.7103C114.048 13.6436 114.104 13.5624 114.14 13.4721C114.179 13.3818 114.197 13.2844 114.195 13.1864L114.207 13.1587ZM118.755 14.8858C119.191 14.8978 119.624 14.7882 120.006 14.5693C120.386 14.3501 120.702 14.0298 120.919 13.6423L120.166 13.1036C120.025 13.3579 119.822 13.5696 119.575 13.7166C119.328 13.8636 119.047 13.9406 118.761 13.9394C118.55 13.9462 118.339 13.9086 118.142 13.8288C117.947 13.7491 117.769 13.6289 117.62 13.4758C117.473 13.3227 117.356 13.1401 117.28 12.9393C117.204 12.7384 117.171 12.5239 117.18 12.309C117.168 12.0927 117.201 11.8763 117.277 11.6735C117.352 11.4708 117.466 11.2859 117.615 11.1309C117.763 10.9758 117.942 10.8537 118.139 10.7722C118.336 10.6909 118.548 10.6519 118.761 10.658C119.047 10.6568 119.328 10.7338 119.575 10.8809C119.822 11.0278 120.025 11.2395 120.166 11.4939L120.919 10.955C120.702 10.5691 120.387 10.2498 120.007 10.0309C119.627 9.81215 119.197 9.7017 118.761 9.71154C118.415 9.69344 118.072 9.74688 117.748 9.86873C117.423 9.9905 117.126 10.1782 116.877 10.4202C116.626 10.6623 116.428 10.9535 116.291 11.2764C116.156 11.5995 116.085 11.9473 116.085 12.2987C116.085 12.6502 116.156 12.998 116.291 13.3209C116.428 13.6438 116.626 13.9352 116.877 14.1772C117.126 14.4193 117.423 14.6069 117.748 14.7287C118.072 14.8505 118.415 14.9039 118.761 14.8858H118.755ZM121.727 10.7409H123.294V14.8098H124.298V10.7685H125.872V9.82899H121.727V10.7409ZM129.041 14.8098H126.856V9.82899H128.593C128.786 9.80901 128.98 9.82949 129.164 9.88922C129.349 9.94894 129.52 10.0467 129.666 10.1762C129.81 10.3058 129.929 10.4645 130.012 10.6424C130.094 10.8204 130.141 11.0139 130.148 11.2106C130.15 11.378 130.119 11.544 130.056 11.6986C129.993 11.8531 129.899 11.9928 129.781 12.1088C130.038 12.1876 130.263 12.351 130.419 12.5735C130.578 12.7957 130.658 13.0647 130.649 13.3383C130.65 13.5479 130.606 13.755 130.523 13.9465C130.439 14.1378 130.317 14.3092 130.163 14.4493C130.011 14.5894 129.831 14.6951 129.635 14.7597C129.439 14.8241 129.232 14.8459 129.027 14.8236L129.041 14.8098ZM127.82 11.8324H128.498C128.912 11.8324 129.136 11.6044 129.136 11.259C129.136 10.9137 128.912 10.6925 128.498 10.6925H127.82V11.8324ZM128.966 13.9049C129.401 13.9049 129.645 13.67 129.645 13.2762C129.646 13.1879 129.629 13.1002 129.595 13.0189C129.56 12.9378 129.509 12.865 129.445 12.8055C129.382 12.7461 129.305 12.7012 129.222 12.6739C129.139 12.6467 129.052 12.6377 128.966 12.6476H127.82V13.9463L128.966 13.9049ZM133.785 9.69773L135.969 14.7822H134.884L134.612 14.1329H132.577L132.297 14.7822H131.226L133.418 9.69773H133.785ZM134.266 13.29L133.587 11.6044L132.908 13.29H134.266ZM42.4898 23.8941V18.8166H42.1506L39.2395 21.9459V18.9064H38.2353V23.9908H38.561L41.4856 20.8338V23.8941H42.4898ZM46.4798 18.8995V23.9839H46.8055L49.7233 20.8269V23.8941H50.7411V18.8166H50.4087L47.4909 21.9459V18.9064L46.4798 18.8995ZM53.1703 21.7387H55.3418V23.8941H56.346V18.9064H55.3418V20.82H53.1703V18.9064H52.1661V23.8941H53.1703V21.7387ZM61.9916 23.8941V18.9064H60.9602V20.82H58.7892V18.9064H57.7845V23.8941H58.7892V21.7456H60.9602V23.8941H61.9916ZM65.7511 23.9839C65.2504 23.9704 64.7652 23.8068 64.3556 23.5136C63.946 23.2205 63.6304 22.8109 63.4484 22.3362C63.2663 21.8614 63.2263 21.3424 63.3322 20.8444C63.4385 20.3463 63.6868 19.8912 64.046 19.5361C64.4051 19.181 64.8587 18.9416 65.3514 18.8478C65.8431 18.7541 66.3517 18.8103 66.8126 19.0092C67.2731 19.2083 67.6665 19.5413 67.9424 19.9666C68.2179 20.3918 68.3649 20.8906 68.3633 21.4002C68.3639 21.7494 68.2951 22.0949 68.1606 22.416C68.0265 22.7374 67.8302 23.0278 67.5828 23.2696C67.3359 23.5115 67.0431 23.7003 66.7221 23.8242C66.402 23.9481 66.0597 24.0048 65.7175 23.9908L65.7511 23.9839ZM65.7511 23.0375C66.0725 23.0457 66.3892 22.9562 66.6602 22.7803C66.9309 22.6044 67.1446 22.3502 67.2726 22.0501C67.4008 21.7502 67.4383 21.418 67.3805 21.0962C67.3216 20.7744 67.1707 20.4775 66.9462 20.2437C66.7206 20.0098 66.4332 19.8497 66.1181 19.7836C65.8035 19.7176 65.476 19.7486 65.1788 19.8727C64.882 19.9969 64.6272 20.2086 64.4486 20.4807C64.2701 20.7529 64.1756 21.0731 64.1771 21.4002C64.1666 21.613 64.1993 21.8257 64.2726 22.0253C64.3458 22.2249 64.458 22.4071 64.603 22.5611C64.7479 22.715 64.922 22.8372 65.1145 22.9202C65.3074 23.0034 65.5146 23.0456 65.7239 23.0444L65.7511 23.0375ZM73.2972 22.4227C73.2952 22.6323 73.2502 22.8393 73.1651 23.03C73.08 23.2209 72.9564 23.3912 72.802 23.5301C72.6476 23.6688 72.4667 23.773 72.2697 23.8357C72.0734 23.8985 71.8661 23.9183 71.6613 23.8941H69.4764V18.9064H71.2137C71.406 18.8864 71.601 18.9068 71.785 18.9666C71.9695 19.0263 72.1397 19.1241 72.2851 19.2535C72.4315 19.3832 72.5493 19.5418 72.6323 19.7197C72.7149 19.8978 72.761 20.0912 72.7673 20.2881C72.7708 20.4553 72.7391 20.6214 72.6763 20.7759C72.613 20.9305 72.5195 21.0701 72.4013 21.1861C72.6611 21.2657 72.8876 21.4311 73.0449 21.6562C73.2017 21.8814 73.2808 22.1534 73.2695 22.4295L73.2972 22.4227ZM70.4191 20.9305H71.0979C71.179 20.9426 71.2616 20.9366 71.3397 20.9127C71.4179 20.8891 71.4896 20.8479 71.551 20.7926C71.6118 20.7371 71.6603 20.6688 71.6919 20.5924C71.7236 20.5159 71.7389 20.4332 71.736 20.3502C71.736 20.0048 71.5119 19.7837 71.0979 19.7837H70.4191V20.9305ZM72.2653 22.395C72.2669 22.3066 72.25 22.2189 72.2158 22.1378C72.1812 22.0567 72.1303 21.9839 72.0659 21.9244C72.0012 21.8649 71.9255 21.8201 71.8433 21.7928C71.7603 21.7655 71.6727 21.7565 71.5866 21.7663H70.4191V23.0237H71.5662C72.0209 23.0237 72.2861 22.7888 72.2861 22.395H72.2653ZM76.3843 18.8166L78.5623 23.8941H77.4835L77.2124 23.2446H75.1764L74.8979 23.8941H73.8808L76.0717 18.8097L76.3843 18.8166ZM76.8661 22.4088L76.1875 20.7232L75.5092 22.4088H76.8661ZM83.5432 18.9064H82.5389V22.9753H80.5983V18.9064H79.5937V23.8941H83.2243V24.9579H84.2288V22.9753H83.5837L83.5432 18.9064ZM85.287 18.9064V23.9908H85.6125L88.5311 20.8338V23.8941H89.5347V18.8166H89.2026L86.2849 21.9459V18.9064H85.287ZM95.8866 21.4072C95.8989 21.934 95.756 22.4526 95.4776 22.8967C95.1992 23.3409 94.7969 23.6905 94.3219 23.9012C93.8477 24.1117 93.3224 24.1736 92.8134 24.0789C92.3038 23.9842 91.8338 23.7373 91.4628 23.3695C91.0928 23.0018 90.8375 22.5301 90.7309 22.0142C90.6251 21.4986 90.6714 20.9623 90.8664 20.4737C91.0597 19.9853 91.3926 19.5668 91.8221 19.2716C92.2501 18.9765 92.7565 18.818 93.2736 18.8166C93.6148 18.8064 93.9543 18.8659 94.2724 18.9914C94.5912 19.1167 94.8811 19.3058 95.1265 19.5472C95.3718 19.7885 95.5668 20.0775 95.7006 20.3969C95.8353 20.7163 95.9047 21.0598 95.9064 21.4072H95.8866ZM94.8548 21.4072C94.8548 21.1966 94.8142 20.9882 94.7349 20.7938C94.6556 20.5993 94.54 20.4227 94.3938 20.2738C94.2476 20.125 94.0741 20.007 93.8825 19.9265C93.6925 19.8459 93.4876 19.8045 93.2802 19.8045C93.0737 19.8045 92.8689 19.8459 92.6788 19.9265C92.4872 20.007 92.3137 20.125 92.1675 20.2738C92.0213 20.4227 91.9056 20.5993 91.8263 20.7938C91.747 20.9882 91.7057 21.1966 91.7057 21.4072C91.7057 21.6177 91.747 21.826 91.8263 22.0205C91.9056 22.215 92.0213 22.3916 92.1675 22.5404C92.3137 22.6893 92.4872 22.8073 92.6788 22.8879C92.8689 22.9683 93.0737 23.0098 93.2802 23.0098C93.4876 23.0098 93.6925 22.9683 93.8825 22.8879C94.0741 22.8073 94.2476 22.6893 94.3938 22.5404C94.54 22.3916 94.6556 22.215 94.7349 22.0205C94.8142 21.826 94.8548 21.6177 94.8548 21.4072ZM101.226 23.8941V18.9064H100.222V20.82H98.0583V18.9064H97.0529V23.8941H98.0583V21.7456H100.222V23.8941H101.226ZM105.841 20.8131H103.669V18.9064H102.672V23.8941H103.669V21.7456H105.841V23.8941H106.845V18.9064H105.841V20.8131ZM113.21 21.4002C113.222 21.9271 113.08 22.4457 112.801 22.8898C112.523 23.334 112.12 23.6838 111.646 23.8942C111.172 24.1048 110.646 24.1667 110.137 24.072C109.628 23.9773 109.158 23.7304 108.787 23.3626C108.417 22.995 108.161 22.5232 108.055 22.0075C107.949 21.4917 107.996 20.9554 108.189 20.4669C108.384 19.9785 108.716 19.5599 109.146 19.2648C109.575 18.9696 110.079 18.8111 110.597 18.8097C110.938 18.8024 111.276 18.8641 111.591 18.9913C111.908 19.1182 112.196 19.3083 112.44 19.5502C112.683 19.7921 112.875 20.0809 113.008 20.3997C113.14 20.7186 113.209 21.061 113.21 21.4072V21.4002ZM112.179 21.4002C112.172 21.0848 112.074 20.7784 111.897 20.5194C111.72 20.2604 111.471 20.0604 111.183 19.9443C110.896 19.8283 110.58 19.8015 110.277 19.8671C109.974 19.933 109.696 20.0881 109.48 20.3136C109.263 20.539 109.116 20.8246 109.058 21.1345C109.001 21.4445 109.034 21.765 109.153 22.0558C109.273 22.3467 109.476 22.5949 109.733 22.7695C109.992 22.9442 110.294 23.0373 110.604 23.0375C110.815 23.0423 111.024 23.0034 111.219 22.9227C111.414 22.8422 111.59 22.7218 111.737 22.569C111.886 22.4164 112 22.2343 112.076 22.0345C112.152 21.8347 112.187 21.6212 112.179 21.4072V21.4002ZM114.357 23.8941H115.36V19.8321H117.512V18.9064H114.357V23.8941ZM123.347 21.4072C123.361 21.9356 123.221 22.4561 122.941 22.9024C122.663 23.3486 122.26 23.7003 121.785 23.9123C121.308 24.1245 120.781 24.1875 120.271 24.0934C119.759 23.9992 119.288 23.7522 118.916 23.3838C118.544 23.0155 118.287 22.5424 118.18 22.0252C118.072 21.5079 118.12 20.9699 118.314 20.4798C118.508 19.9896 118.842 19.5697 119.272 19.2734C119.702 18.9771 120.209 18.8181 120.729 18.8166C121.069 18.8083 121.407 18.8692 121.723 18.9954C122.039 19.1217 122.328 19.311 122.572 19.5522C122.817 19.7934 123.01 20.0817 123.144 20.4002C123.277 20.7186 123.346 21.061 123.347 21.4072ZM122.31 21.4072C122.303 21.0917 122.205 20.7853 122.028 20.5263C121.851 20.2673 121.603 20.0673 121.314 19.9513C121.026 19.8352 120.711 19.8084 120.408 19.8742C120.104 19.9398 119.827 20.095 119.611 20.3205C119.394 20.546 119.248 20.8316 119.189 21.1414C119.131 21.4514 119.164 21.7719 119.284 22.0628C119.404 22.3536 119.607 22.6018 119.865 22.7765C120.123 22.9511 120.426 23.0444 120.735 23.0444C120.949 23.0532 121.161 23.0169 121.359 22.9375C121.558 22.8583 121.738 22.738 121.889 22.5841C122.039 22.4301 122.158 22.246 122.235 22.0434C122.311 21.8408 122.346 21.6242 122.336 21.4072H122.31ZM130.669 20.516C130.667 20.7436 130.619 20.9682 130.528 21.1759C130.436 21.3834 130.303 21.5695 130.137 21.7221C129.972 21.8746 129.776 21.9906 129.565 22.0625C129.352 22.1342 129.127 22.1604 128.905 22.1394H128.098V23.8941H127.094V18.9064H128.939C129.161 18.8832 129.384 18.9075 129.597 18.9778C129.808 19.0482 130.003 19.1628 130.168 19.3144C130.333 19.4659 130.467 19.6514 130.558 19.8582C130.648 20.0651 130.696 20.2892 130.697 20.516H130.669ZM129.645 20.516C129.645 20.4199 129.626 20.3246 129.589 20.2365C129.549 20.1483 129.495 20.0692 129.425 20.0042C129.356 19.9391 129.273 19.8895 129.184 19.8589C129.094 19.828 128.999 19.8166 128.905 19.8252H128.098V21.262H128.939C129.038 21.2704 129.136 21.2569 129.229 21.2224C129.322 21.1878 129.405 21.1332 129.475 21.0621C129.546 20.991 129.599 20.9055 129.633 20.811C129.668 20.7168 129.68 20.6161 129.672 20.516H129.645ZM133.384 18.8166L135.596 23.8941H134.516L134.238 23.2446H132.203L131.925 23.8941H130.88L133.072 18.8097L133.384 18.8166ZM133.865 22.4088L133.188 20.7232L132.509 22.4088H133.865ZM139.295 21.262C139.437 21.1466 139.551 20.9993 139.628 20.8316C139.706 20.6639 139.744 20.4802 139.741 20.295C139.73 20.0842 139.677 19.878 139.585 19.6887C139.494 19.4994 139.365 19.3307 139.209 19.1929C139.05 19.0548 138.869 18.9505 138.671 18.8859C138.474 18.8213 138.266 18.7978 138.059 18.8166C137.693 18.8127 137.336 18.9128 137.024 19.1059C136.712 19.2987 136.46 19.5766 136.295 19.9081L136.973 20.4123C137.081 20.2221 137.236 20.0629 137.421 19.9493C137.606 19.8358 137.816 19.7716 138.032 19.763C138.447 19.763 138.71 20.0048 138.71 20.3502C138.711 20.4319 138.695 20.5128 138.662 20.5877C138.63 20.6625 138.582 20.7293 138.523 20.7841C138.462 20.839 138.393 20.8803 138.317 20.9056C138.24 20.9307 138.158 20.9393 138.079 20.9305H137.32V21.7663H138.29C138.375 21.7567 138.459 21.7652 138.541 21.7912C138.622 21.8173 138.697 21.8603 138.762 21.9175C138.825 21.9746 138.877 22.0449 138.912 22.1237C138.948 22.2023 138.966 22.2876 138.969 22.3743C138.969 22.8026 138.575 23.0651 138.092 23.0651C137.844 23.0643 137.601 22.9967 137.387 22.8693C137.173 22.742 136.994 22.5593 136.872 22.3398L136.193 22.851C136.374 23.2106 136.654 23.5105 136.995 23.7159C137.338 23.9213 137.731 24.0238 138.127 24.0116C139.172 24.0116 139.993 23.3829 139.993 22.4433C140.007 22.202 139.952 21.9616 139.833 21.7517C139.715 21.542 139.539 21.3718 139.328 21.262H139.295ZM144.967 22.4295C144.963 22.6328 144.92 22.8333 144.838 23.0187C144.755 23.2041 144.639 23.3703 144.49 23.5076C144.343 23.6447 144.17 23.7498 143.98 23.8163C143.792 23.8827 143.592 23.9093 143.393 23.8941H141.207V18.9064H142.945C143.137 18.8853 143.333 18.905 143.517 18.9644C143.702 19.0237 143.873 19.1214 144.02 19.251C144.164 19.3808 144.282 19.54 144.366 19.7185C144.447 19.8969 144.494 20.0908 144.498 20.2881C144.502 20.4553 144.47 20.6214 144.408 20.7759C144.344 20.9305 144.252 21.0701 144.133 21.1861C144.392 21.2657 144.618 21.4311 144.775 21.6562C144.933 21.8814 145.012 22.1534 145.001 22.4295H144.967ZM142.137 20.9305H142.816C142.897 20.9426 142.98 20.9366 143.057 20.9127C143.136 20.8891 143.207 20.8479 143.268 20.7926C143.329 20.7371 143.377 20.6688 143.41 20.5924C143.441 20.5159 143.457 20.4332 143.454 20.3502C143.454 20.0048 143.23 19.7837 142.816 19.7837H142.137V20.9305ZM143.983 22.395C143.983 22.0081 143.725 21.7663 143.303 21.7663H142.157V23.0237H143.303C143.759 23.0237 144.017 22.7888 144.017 22.395H143.983ZM147.097 21.9459V18.9064H146.094V23.9908H146.425L149.343 20.8338V23.8941H150.348V18.8166H150.01L147.097 21.9459ZM151.324 19.8321H152.893V23.8941H153.896V19.8321H155.471V18.9064H151.324V19.8321ZM157.432 21.9459V18.9064H156.428V23.9908H156.761L159.678 20.8338V23.8941H160.682V18.8166H160.344L157.432 21.9459ZM165.69 18.9064V23.8941H164.741V22.3674H164.007C163.958 22.3738 163.908 22.3738 163.859 22.3674L162.874 23.8941H161.748L162.914 22.0704C162.669 21.9232 162.465 21.7118 162.325 21.458C162.187 21.2043 162.116 20.9173 162.121 20.6265C162.123 20.3829 162.174 20.1421 162.273 19.92C162.371 19.6978 162.514 19.499 162.693 19.3362C162.87 19.1736 163.08 19.0508 163.308 18.9756C163.536 18.9003 163.775 18.8744 164.014 18.8995L165.69 18.9064ZM164.741 19.8045H163.994C163.778 19.8045 163.571 19.8918 163.418 20.0472C163.266 20.2027 163.179 20.4135 163.179 20.6335C163.179 20.8533 163.266 21.0641 163.418 21.2196C163.571 21.3751 163.778 21.4623 163.994 21.4623H164.741V19.8045ZM38.2353 32.9784H39.2395V28.9094H41.3974V27.9838H38.2353V32.9784ZM47.2534 30.4776C47.2683 31.0063 47.1279 31.5275 46.8502 31.9746C46.5727 32.4217 46.1704 32.7744 45.695 32.9875C45.2195 33.2008 44.6925 33.2649 44.1811 33.1715C43.6696 33.0782 43.1972 32.8318 42.8241 32.4637C42.4509 32.0956 42.1942 31.6226 42.0863 31.1052C41.9786 30.5878 42.0248 30.0494 42.2191 29.5589C42.4133 29.0684 42.7469 28.6479 43.1772 28.3514C43.6074 28.0548 44.1146 27.8955 44.6341 27.8939C44.9734 27.8857 45.3111 27.9462 45.6272 28.0721C45.9434 28.1981 46.2317 28.3867 46.4754 28.6271C46.7192 28.8677 46.9136 29.1551 47.0471 29.4728C47.1807 29.7905 47.2508 30.1321 47.2534 30.4776ZM46.2219 30.4776C46.2153 30.1611 46.1171 29.8537 45.9397 29.5938C45.7622 29.3336 45.5134 29.1328 45.2244 29.016C44.9354 28.8992 44.6189 28.8719 44.3147 28.9373C44.0104 29.0027 43.7319 29.1579 43.5138 29.3836C43.2959 29.6094 43.1481 29.8956 43.0891 30.2064C43.03 30.5172 43.0622 30.8388 43.1818 31.131C43.3013 31.4234 43.503 31.6731 43.7612 31.8494C44.0195 32.0257 44.3232 32.1203 44.6341 32.1217C44.8468 32.1287 45.0586 32.0907 45.2561 32.0102C45.4536 31.9296 45.6328 31.8083 45.7819 31.6538C45.931 31.4993 46.0471 31.315 46.1229 31.1127C46.1986 30.9101 46.2323 30.694 46.2219 30.4776ZM52.0104 29.5933C52.0073 29.8213 51.9583 30.046 51.8659 30.2536C51.7735 30.4614 51.6398 30.6472 51.4736 30.7998C51.3074 30.9523 51.1115 31.068 50.8994 31.1398C50.6867 31.2115 50.4621 31.2378 50.2389 31.2168H49.3841V32.9784H48.4002V27.9838H50.2389C50.4615 27.9597 50.6867 27.9832 50.8994 28.053C51.1121 28.1227 51.3084 28.237 51.4751 28.3887C51.6423 28.5403 51.7759 28.7259 51.8678 28.9333C51.9604 29.1408 52.0084 29.3656 52.0104 29.5933ZM50.9854 29.5933C50.9859 29.4966 50.9666 29.4006 50.928 29.3119C50.8899 29.2234 50.8335 29.1438 50.7633 29.0786C50.6931 29.0135 50.61 28.9642 50.5194 28.9339C50.4294 28.9035 50.334 28.8928 50.2389 28.9025H49.3841V30.3187H50.2256C50.324 30.331 50.4244 30.3212 50.519 30.2897C50.6129 30.2583 50.6995 30.2062 50.7722 30.137C50.8448 30.0678 50.9013 29.9833 50.9384 29.8893C50.975 29.7954 50.9914 29.6943 50.9854 29.5933ZM58.1036 30.4776C58.1184 31.0065 57.9779 31.528 57.7 31.9753C57.4224 32.4226 57.0198 32.7754 56.5439 32.9882C56.068 33.2013 55.5402 33.265 55.0287 33.1709C54.5173 33.0771 54.0449 32.8299 53.672 32.4613C53.2989 32.0925 53.0426 31.6189 52.9358 31.101C52.8285 30.5832 52.876 30.0445 53.0714 29.5541C53.2668 29.0636 53.6012 28.6438 54.0325 28.3481C54.4635 28.0522 54.9714 27.8941 55.4913 27.8939C55.8301 27.8867 56.1669 27.9479 56.4821 28.0742C56.7977 28.2004 57.0851 28.3893 57.3279 28.6296C57.5713 28.87 57.7648 29.1572 57.8978 29.4744C58.0308 29.7916 58.1011 30.1327 58.1036 30.4776ZM57.0722 30.4776C57.0643 30.1628 56.9654 29.8573 56.7878 29.5995C56.6102 29.3415 56.3624 29.1426 56.0745 29.0274C55.7866 28.9121 55.4715 28.8859 55.1692 28.9519C54.8665 29.0177 54.59 29.1728 54.3734 29.3978C54.1572 29.6228 54.0107 29.9079 53.9524 30.2171C53.894 30.5263 53.9267 30.8462 54.0459 31.1368C54.1651 31.4273 54.3659 31.6758 54.6227 31.8508C54.8798 32.0261 55.1816 32.1203 55.4913 32.1217C55.7036 32.1277 55.9141 32.089 56.1111 32.008C56.308 31.9271 56.4861 31.8056 56.6344 31.6511C56.7828 31.4968 56.8986 31.3129 56.9738 31.111C57.049 30.909 57.0826 30.6933 57.0722 30.4776ZM63.1793 32.0527H63.858V34.0423H62.8127V32.9784H59.7592V34.0423H58.7551V32.0527H59.1349C59.7662 31.5277 60.1124 30.6364 60.1124 28.8127V27.9838H63.1591L63.1793 32.0527ZM62.1751 28.9094H61.076C61.076 30.4361 60.7773 31.4101 60.2411 32.0527H62.1549L62.1751 28.9094ZM67.1559 27.8939L69.3408 32.9784H68.2417L67.9632 32.329H65.9618L65.6839 32.9784H64.6114L66.8032 27.8939H67.1559ZM67.6373 31.4862L66.9586 29.8006L66.2808 31.4862H67.6373ZM75.2783 30.595L73.2017 27.8939H72.8757V32.9784H73.8808V30.3117L75.1156 31.8868H75.441L76.6698 30.3117V32.9784H77.6734V27.8939H77.3474L75.2783 30.595ZM84.052 30.4776C84.066 31.0063 83.9264 31.5275 83.6488 31.9746C83.3713 32.4217 82.969 32.7744 82.4935 32.9875C82.0185 33.2008 81.4907 33.2649 80.9798 33.1715C80.4682 33.0782 79.9954 32.8318 79.6229 32.4637C79.2498 32.0956 78.9928 31.6226 78.8848 31.1052C78.777 30.5878 78.823 30.0494 79.0174 29.5589C79.2123 29.0684 79.5457 28.6479 79.9756 28.3514C80.4059 28.0548 80.9135 27.8955 81.4329 27.8939C81.7702 27.8884 82.1056 27.9511 82.4197 28.0782C82.7336 28.2054 83.0194 28.3945 83.2614 28.6346C83.5026 28.8748 83.6951 29.1613 83.8273 29.4777C83.9594 29.7939 84.0289 30.1338 84.0322 30.4776H84.052ZM83.0211 30.4776C83.0144 30.1605 82.9153 29.8525 82.7376 29.5922C82.5592 29.332 82.3098 29.1311 82.0195 29.0147C81.7302 28.8983 81.413 28.8717 81.1078 28.9384C80.8037 29.0048 80.5252 29.1615 80.3075 29.3886C80.0909 29.6157 79.944 29.9031 79.8861 30.2148C79.8286 30.5265 79.8629 30.8486 79.9841 31.1406C80.1061 31.4326 80.3095 31.6815 80.5696 31.856C80.8298 32.0306 81.1351 32.123 81.4462 32.1217C81.6559 32.1239 81.8641 32.0823 82.0581 31.9996C82.251 31.917 82.4261 31.7948 82.5715 31.641C82.7178 31.487 82.8302 31.3044 82.9037 31.1043C82.9781 30.9042 83.0103 30.691 82.9996 30.4776H83.0211ZM87.6009 28.8403C87.8875 28.8393 88.1683 28.9161 88.4153 29.0632C88.6623 29.2102 88.8665 29.422 89.0052 29.6762L89.766 29.1374C89.5472 28.7519 89.2316 28.4332 88.8507 28.2145C88.4691 27.9957 88.0379 27.885 87.6009 27.8939C87.2564 27.8758 86.9111 27.9293 86.5881 28.0511C86.2635 28.1729 85.9677 28.3605 85.7174 28.6025C85.4671 28.8445 85.268 29.1358 85.1316 29.4588C84.9954 29.7818 84.9244 30.1296 84.9244 30.4811C84.9244 30.8326 84.9954 31.1803 85.1316 31.5033C85.268 31.8262 85.4671 32.1175 85.7174 32.3596C85.9677 32.6016 86.2635 32.7892 86.5881 32.911C86.9111 33.0329 87.2564 33.0863 87.6009 33.0681C88.0396 33.0791 88.4733 32.9692 88.8549 32.7504C89.2366 32.5315 89.5537 32.2117 89.7718 31.8247L89.0126 31.2789C88.8747 31.535 88.6715 31.7487 88.4236 31.8969C88.1766 32.0452 87.895 32.123 87.6075 32.1217C87.1977 32.0947 86.8144 31.91 86.5344 31.6054C86.2535 31.3006 86.0974 30.8987 86.0974 30.4811C86.0974 30.0634 86.2535 29.6615 86.5344 29.3568C86.8144 29.052 87.1977 28.8674 87.6075 28.8403H87.6009ZM94.9299 27.9838H93.7354L91.8626 30.298V27.9838H90.8573V32.9784H91.8626V30.3739L93.9659 32.9784H95.1744L93.0497 30.3395L94.9299 27.9838ZM99.9509 31.5069C99.9484 31.7143 99.903 31.9187 99.8187 32.1075C99.7344 32.2962 99.6122 32.4651 99.461 32.6034C99.309 32.7417 99.1305 32.8464 98.9373 32.9109C98.7431 32.9754 98.5391 32.9984 98.3359 32.9784H96.1509V27.9838H97.8947C98.0872 27.9636 98.2813 27.9842 98.4648 28.044C98.649 28.1038 98.8191 28.2017 98.9645 28.3312C99.109 28.461 99.2264 28.6198 99.309 28.7976C99.3908 28.9755 99.4363 29.1689 99.442 29.3654C99.4461 29.5322 99.4173 29.6981 99.3545 29.8527C99.2924 30.0072 99.2 30.1472 99.0827 30.2634C99.3362 30.3462 99.556 30.5112 99.7088 30.7332C99.8625 30.955 99.9401 31.222 99.9311 31.4931L99.9509 31.5069ZM97.1215 30.001H97.7989C98.2136 30.001 98.4375 29.773 98.4375 29.4275C98.4375 29.0821 98.2136 28.861 97.7989 28.861H97.1215V30.001ZM98.92 31.4931C98.92 31.1062 98.6613 30.8644 98.2408 30.8644H97.1009V32.1217H98.2408C98.682 32.101 98.92 31.8661 98.92 31.4931ZM104.816 31.355C104.816 31.5865 104.769 31.8155 104.677 32.0271C104.584 32.2388 104.449 32.4284 104.281 32.5834C104.112 32.7385 103.912 32.8556 103.696 32.9272C103.479 32.9988 103.251 33.0233 103.025 32.9991H100.989V27.9838H101.993V29.7038H102.997C103.226 29.6736 103.458 29.6929 103.679 29.7609C103.9 29.8288 104.104 29.9435 104.277 30.0976C104.451 30.2517 104.592 30.4417 104.688 30.6549C104.784 30.8679 104.835 31.0995 104.836 31.3342L104.816 31.355ZM103.791 31.355C103.801 31.2516 103.786 31.1475 103.751 31.0504C103.715 30.9533 103.658 30.8657 103.585 30.794C103.511 30.7223 103.422 30.6684 103.325 30.6364C103.229 30.6043 103.125 30.595 103.025 30.6089H102.041V32.0872H103.045C103.145 32.101 103.249 32.0917 103.345 32.0596C103.443 32.0275 103.531 31.9737 103.605 31.902C103.678 31.8304 103.735 31.7427 103.771 31.6456C103.807 31.5485 103.821 31.4444 103.812 31.3411L103.791 31.355ZM105.705 32.9784H106.709V27.9838H105.705V32.9784ZM0.527344 0.40625H31.1577V30.07C31.1577 33.5241 28.8846 35.6449 25.2204 35.6449H21.6511C20.6431 35.6001 19.6364 35.7598 18.6892 36.1143C17.7423 36.469 16.8737 37.0114 16.1344 37.7105L15.8358 38.0006L15.5509 37.7105C14.8102 37.0107 13.9408 36.4672 12.9927 36.1116C12.0446 35.7558 11.0368 35.5948 10.0273 35.638H6.48515C2.8141 35.638 0.527344 33.5033 0.527344 30.07V0.40625ZM1.20591 30.07C1.20591 33.1441 3.1941 34.9818 6.51908 34.9818H10.0273C12.1536 34.9047 14.2277 35.6614 15.8222 37.0956C17.4175 35.6585 19.4952 34.9014 21.6239 34.9818H25.1932C28.5046 34.9818 30.486 33.1441 30.486 30.07V1.09711H1.20591V30.07ZM26.6522 20.6403C26.6522 20.8545 26.5233 20.8891 26.3264 20.8269C26.2111 20.7857 26.1052 20.7211 26.0152 20.6366C25.9255 20.5523 25.8536 20.4501 25.8039 20.3364C25.7612 20.2619 25.7446 20.1748 25.7569 20.0894C25.7693 20.0039 25.8098 19.9254 25.8718 19.8666L25.9329 19.8045C25.9864 19.7623 26.0307 19.7093 26.0633 19.6489C26.096 19.5883 26.1162 19.5219 26.1225 19.4532C26.1288 19.3847 26.1214 19.3154 26.1003 19.2498C26.0794 19.1843 26.0456 19.1238 26.0008 19.0722C25.9598 19.0197 25.9059 18.9791 25.8446 18.9547C25.7696 18.9365 25.704 18.8901 25.6612 18.8247C25.6185 18.7594 25.6015 18.68 25.614 18.6025C25.6196 18.5246 25.6071 18.4466 25.5776 18.3746C25.5483 18.3026 25.5026 18.2386 25.4443 18.1879C25.2543 18.0014 25.0778 17.7941 24.9014 17.6008L24.7861 17.4833C24.6639 17.3659 24.63 17.359 24.5079 17.4833C24.2704 17.732 24.0329 17.9876 23.8293 18.2432C23.6621 18.4888 23.4254 18.6767 23.1508 18.782V18.8304C23.1912 18.8514 23.2347 18.8654 23.2798 18.8719C23.4357 18.8719 23.5986 18.8719 23.7546 18.8719C23.9002 18.8626 24.0448 18.9013 24.1668 18.9821C24.2892 19.0629 24.3825 19.1818 24.4332 19.3209C24.5215 19.4867 24.596 19.6731 24.6979 19.8321C24.8569 20.0737 25.0315 20.3046 25.2204 20.5229C25.349 20.6495 25.4519 20.8006 25.5228 20.9679C25.5939 21.135 25.6318 21.3149 25.6343 21.4969C25.6373 21.8927 25.7477 22.2801 25.9531 22.6161C26.0943 22.8846 26.1445 23.193 26.0957 23.4933C26.0957 23.673 25.9872 23.7351 25.831 23.6454C25.6249 23.5319 25.4276 23.4027 25.2407 23.2585C25.2077 23.2386 25.1788 23.2123 25.1559 23.1809C25.1329 23.1497 25.1163 23.1141 25.1068 23.0762C25.0974 23.0384 25.0952 22.999 25.1008 22.9603C25.1063 22.9217 25.1192 22.8845 25.1389 22.851C25.1747 22.74 25.2042 22.627 25.2272 22.5124C25.2607 22.4258 25.2732 22.3323 25.2638 22.2398C25.2543 22.1471 25.2232 22.0583 25.1729 21.9805C25.0901 21.8421 24.9971 21.7106 24.8946 21.5868C24.8482 21.5422 24.8128 21.4869 24.7917 21.4257C24.7703 21.3644 24.7638 21.2988 24.7724 21.2344C24.7874 21.154 24.7828 21.071 24.7592 20.9929C24.7354 20.9146 24.6936 20.8435 24.6368 20.7853L23.9582 20.0394C23.9095 19.9896 23.8474 19.9557 23.7797 19.9422C23.7119 19.9286 23.6418 19.936 23.5781 19.9633C23.2462 20.0495 22.9252 20.1748 22.6215 20.3364C21.9227 20.7177 21.1411 20.9148 20.3483 20.9098H20.2533C20.1176 20.9098 20.0835 20.9926 20.1514 21.1101C20.2193 21.2275 20.321 21.4072 20.4094 21.5523C20.4325 21.5924 20.4668 21.6248 20.5076 21.6456C20.5486 21.6665 20.5946 21.6748 20.64 21.6696H20.8843C20.8843 21.8424 20.925 21.9943 20.9454 22.1602L21.1015 22.0704C21.2236 21.9943 21.2914 21.9943 21.373 22.1118C21.4381 22.2138 21.4799 22.3295 21.4951 22.4503C21.4948 22.6053 21.5344 22.7579 21.6105 22.8924C21.719 23.0927 21.8411 23.2862 21.9429 23.4658H22.0243C22.2618 23.307 22.3568 23.3276 22.506 23.5971C22.6554 23.8664 22.8724 24.2879 23.0625 24.6333C23.2369 24.9277 23.4883 25.1669 23.7886 25.3242L23.8836 25.4001C23.6694 25.4926 23.437 25.5326 23.2051 25.5176C23.1576 25.6833 23.3611 25.704 23.3746 25.8491C23.2525 25.9734 23.0965 25.8491 22.9268 25.8906C22.9268 25.9872 22.8522 26.0909 22.8318 26.2014C22.6959 26.9359 22.3625 27.6175 21.8682 28.1702L21.7937 28.2532C21.5222 28.5088 21.5222 28.5088 21.2033 28.3223L21.1082 28.2601C21.1493 28.3449 21.2098 28.4182 21.2847 28.4741C21.4136 28.5641 21.5289 28.6745 21.6579 28.7644C21.811 28.8858 21.934 29.0419 22.0176 29.2204C22.0176 29.2549 22.0176 29.2963 22.0176 29.3446C21.8547 29.3446 21.7054 29.3446 21.5562 29.3446C21.0743 29.3861 20.5926 29.4275 20.1108 29.4829C19.9241 29.5047 19.7437 29.5658 19.5815 29.6624C19.6426 29.7799 19.7375 29.7523 19.8258 29.7523C20.1514 29.7523 20.5043 29.7176 20.8028 29.7109H21.0064C21.1073 29.7143 21.203 29.7571 21.2737 29.8305C21.3445 29.9037 21.3847 30.0018 21.3864 30.1045C21.3551 30.1113 21.3227 30.1113 21.2914 30.1045C20.7874 30.0276 20.2749 30.0298 19.7714 30.1114C19.2827 30.1517 18.8137 30.3259 18.4144 30.6158L18.2175 30.7816C18.1955 30.7454 18.1795 30.7057 18.1701 30.6641C18.1667 30.5641 18.1917 30.4652 18.2423 30.3793C18.2928 30.2936 18.3667 30.2246 18.4551 30.1805C18.4901 30.1625 18.5195 30.1348 18.5398 30.1005C18.5603 30.0665 18.5708 30.0271 18.5704 29.9871C18.6043 29.7523 18.7468 29.6279 19.0182 29.5933C19.1658 29.5747 19.3086 29.5279 19.439 29.4551C19.5679 29.3861 19.5611 29.3032 19.439 29.248L19.2286 29.1719L19.1133 29.1374C19.0697 29.118 19.0305 29.0898 18.998 29.0545C18.6523 28.8854 18.3413 28.651 18.0818 28.3636C17.9259 28.191 17.9259 28.184 17.7154 28.267L17.539 28.3361C17.539 28.4879 17.539 28.6469 17.4983 28.8265C17.0912 28.6953 16.7111 28.5571 16.3312 28.4535C15.9643 28.3106 15.5768 28.2312 15.1843 28.2185C15.1435 28.3088 15.1259 28.4082 15.133 28.5072C15.1401 28.6063 15.1717 28.7018 15.2251 28.7851C15.3133 28.9301 15.388 29.0821 15.4762 29.2271C15.5776 29.4169 15.6378 29.6266 15.6526 29.842C15.6526 29.8835 15.6526 29.9249 15.6119 29.9803C15.4626 29.9318 15.3201 29.8696 15.1775 29.8351C14.7026 29.7109 14.2344 29.5933 13.7594 29.4897C13.5769 29.4415 13.3855 29.4415 13.203 29.4897C13.203 29.6347 13.3183 29.6417 13.3997 29.6693L14.3361 29.9594C14.3992 29.9852 14.4604 30.0152 14.5194 30.0493C14.6183 30.0975 14.6956 30.1819 14.7358 30.2857C14.7762 30.3894 14.7763 30.5048 14.7365 30.6089C14.7072 30.6107 14.6776 30.6107 14.6483 30.6089C14.2096 30.3147 13.7223 30.1042 13.2097 29.9871C12.7217 29.8556 12.2062 29.8773 11.7304 30.0493L11.4794 30.1667C11.4718 30.1186 11.4718 30.0697 11.4794 30.0216C11.5072 29.917 11.5621 29.822 11.6386 29.7466C11.715 29.6711 11.8101 29.6182 11.9136 29.5933C11.9547 29.5862 11.9929 29.5675 12.0242 29.5394C12.0553 29.5114 12.0781 29.4749 12.0901 29.4345C12.1301 29.3243 12.2102 29.2342 12.3138 29.1827C12.4175 29.1312 12.5366 29.1224 12.6465 29.1581C12.7941 29.1891 12.9466 29.1891 13.0944 29.1581C13.2639 29.1166 13.2775 29.0062 13.1486 28.8887C13.0198 28.7713 12.9858 28.7713 12.9179 28.7021C12.8661 28.6623 12.8301 28.6047 12.8164 28.5401C12.8027 28.4755 12.8122 28.4079 12.8433 28.3499C12.9722 28.115 13.0808 27.8663 13.2097 27.659C13.2315 27.6239 13.2429 27.5832 13.2429 27.5416C13.2429 27.5 13.2315 27.4593 13.2097 27.4241C13.1352 27.2515 13.0673 27.0788 12.9994 26.906C12.979 26.839 12.9355 26.7819 12.8769 26.745C12.8181 26.7082 12.7484 26.6942 12.6804 26.7057C12.538 26.7057 12.3684 26.7057 12.2733 26.8162C12.3207 27.0028 12.3684 27.1755 12.3954 27.3482C12.4439 27.5906 12.4107 27.8422 12.301 28.063C12.1914 28.2835 12.0119 28.4601 11.7915 28.5641C11.3995 28.7759 10.9416 28.8231 10.5158 28.6953C10.3093 28.6152 10.1278 28.4799 9.99037 28.3036C9.85308 28.1273 9.76494 27.9165 9.73545 27.6936C9.70149 27.3929 9.70149 27.0892 9.73545 26.7886V26.6504C9.26309 26.5846 8.80453 26.4398 8.37835 26.2221C8.28203 26.391 8.23586 26.5846 8.24546 26.7795C8.25511 26.9745 8.3202 27.1625 8.43262 27.3206C8.57512 27.5208 8.73118 27.7143 8.88053 27.9146C8.99899 28.0673 9.06995 28.2526 9.08408 28.4466C9.08408 28.5986 9.08407 28.6331 8.94835 28.6538C8.63774 28.7029 8.32003 28.6445 8.04586 28.4881C7.9822 28.4503 7.93452 28.3898 7.91196 28.3183C7.88939 28.2471 7.8936 28.1697 7.92373 28.1012C7.99031 27.7501 7.95247 27.387 7.81515 27.0581C7.75589 26.9316 7.67808 26.8152 7.58439 26.7126C7.53696 26.6504 7.46909 26.5952 7.42156 26.5261C7.36763 26.4642 7.33795 26.3844 7.33795 26.3016C7.33795 26.2189 7.36763 26.139 7.42156 26.0771C7.48269 25.9941 7.55046 25.9113 7.6116 25.8422C7.4487 25.6488 7.29265 25.4831 7.16374 25.3034C6.97562 25.0672 6.8567 24.7819 6.82068 24.4801C6.78468 24.1782 6.83305 23.8722 6.96017 23.5971C7.08231 23.307 7.22477 23.0236 7.37411 22.7473C7.57455 22.3615 7.65943 21.9244 7.61832 21.49C7.59473 21.2784 7.5097 21.0788 7.37411 20.9166C7.3378 20.9271 7.30347 20.9434 7.27231 20.965C7.14335 21.0618 7.02805 21.1792 6.89231 21.2689C6.70443 21.4021 6.54461 21.5722 6.42227 21.7691C6.2999 21.966 6.21744 22.1859 6.17979 22.4157C6.10515 22.7542 6.03728 23.1065 5.95586 23.5071C5.86767 23.2931 5.79302 23.1204 5.72515 22.9476C5.56687 22.4968 5.50616 22.0165 5.54712 21.5396C5.58813 21.0627 5.72985 20.6005 5.96264 20.1844L6.02373 20.0808C6.09159 19.9288 6.08477 19.9219 5.93553 19.8321C5.77754 19.7436 5.62563 19.6444 5.48089 19.535C5.2865 19.3812 5.14454 19.169 5.07513 18.9285C5.00572 18.6879 5.01236 18.4313 5.0941 18.1949C5.13092 18.0201 5.22758 17.8644 5.36681 17.7554C5.50606 17.6467 5.67875 17.5919 5.85406 17.6008C5.92203 17.5979 5.9896 17.6121 6.05088 17.6422C6.12167 17.6881 6.18138 17.7499 6.2254 17.8227C6.26948 17.8955 6.29679 17.9774 6.30524 18.0626C6.31375 18.1476 6.30322 18.2335 6.27442 18.3139C6.24564 18.3943 6.19938 18.4669 6.13908 18.5263C6.06686 18.4177 5.9851 18.316 5.89477 18.2224C5.77942 18.1189 5.84051 17.9737 5.77942 17.8288C5.71046 17.8561 5.64452 17.891 5.58264 17.9323C5.24337 18.2846 5.25016 18.4642 5.4673 18.8097C5.6519 19.0485 5.8829 19.2461 6.14586 19.39C6.24767 19.459 6.3087 19.4246 6.34264 19.2932C6.43524 19.0129 6.51003 18.7268 6.56658 18.4366C6.61312 18.1971 6.69074 17.9648 6.79729 17.7458C7.00252 17.2782 7.29526 16.8559 7.65903 16.5023C7.8059 16.3609 7.98012 16.2521 8.17057 16.1831C8.36101 16.1142 8.56356 16.0864 8.76512 16.1017C9.3281 16.1651 9.86432 16.3797 10.3191 16.7233L10.6651 16.9859C10.6913 17.0127 10.7249 17.0304 10.7614 17.0366C10.798 17.0428 10.8355 17.0372 10.8687 17.0204C11.2966 16.8825 11.738 16.7921 12.1852 16.751C12.2665 16.751 12.3616 16.751 12.3886 16.6543C12.4134 16.6046 12.4214 16.5479 12.4117 16.493C12.4019 16.4382 12.3748 16.388 12.3344 16.3504C12.282 16.2312 12.2111 16.1216 12.1241 16.0256C12.029 15.9566 11.873 15.9773 11.7644 15.9221C11.6639 15.8678 11.5723 15.7979 11.4929 15.7148C11.2826 15.542 11.0858 15.3485 10.8619 15.1829C10.5737 14.992 10.2351 14.8956 9.89149 14.9066C9.47374 14.8945 9.05624 14.9386 8.6498 15.0378C8.48227 15.0866 8.31895 15.1489 8.16121 15.2243C8.09336 15.2243 8.02553 15.3002 7.95083 15.2243C7.91908 15.1913 7.89761 15.1493 7.88916 15.1038C7.88069 15.0583 7.88564 15.0112 7.90336 14.9687C7.96232 14.7832 8.06758 14.6167 8.20871 14.4851C8.24561 14.4579 8.27451 14.4212 8.29252 14.3786C8.31044 14.336 8.31664 14.2892 8.31044 14.2433C8.30351 14.1656 8.3183 14.0873 8.35308 14.0175C8.38785 13.9479 8.4413 13.8896 8.5073 13.8495L8.83972 13.6077C9.07731 13.4144 9.11117 13.2762 8.92795 13.0344C8.86897 12.9588 8.82766 12.8705 8.80718 12.7761C8.78669 12.6819 8.78759 12.5839 8.8099 12.4901C8.83221 12.3961 8.87508 12.3087 8.93554 12.2342C8.99593 12.1597 9.07234 12.1004 9.15867 12.0603C9.43013 11.936 9.71513 11.8392 9.98657 11.7357L10.2309 11.6667C10.3031 11.6403 10.3667 11.5942 10.4147 11.533C10.4626 11.4721 10.493 11.3987 10.5022 11.3211C10.5195 11.2684 10.5214 11.2116 10.5078 11.1577C10.4942 11.1039 10.4657 11.0551 10.4257 11.0172C10.3857 10.9793 10.3358 10.954 10.2819 10.9442C10.2282 10.9344 10.1727 10.9406 10.1222 10.962C9.97972 11.0103 9.83045 11.0379 9.68795 11.0794C9.63945 11.0302 9.60939 10.9651 9.60319 10.8957C9.59699 10.8263 9.615 10.7568 9.65399 10.6994C9.74586 10.5229 9.85506 10.3563 9.97972 10.2021C10.0708 10.0966 10.1707 9.99967 10.2783 9.91194C10.356 9.84916 10.408 9.75936 10.4242 9.65974C10.4405 9.56019 10.4199 9.45809 10.3666 9.37309C10.3054 9.25561 10.2376 9.14508 10.1698 9.0277C10.0372 8.81696 9.94502 8.5826 9.89835 8.33685C9.86902 8.21954 9.81326 8.11075 9.73545 8.01906C9.66763 7.91547 9.5794 7.82566 9.51149 7.72893C9.46862 7.68837 9.44045 7.6341 9.43178 7.57512C9.42318 7.51605 9.4345 7.45582 9.46407 7.40428C9.51835 7.32135 9.46407 7.24534 9.40981 7.17628L8.47335 5.79465L8.3444 5.59432C8.31359 5.55508 8.29673 5.50635 8.29673 5.4562C8.29673 5.4059 8.31359 5.35715 8.3444 5.318C8.3876 5.27479 8.44543 5.25001 8.50599 5.24869C8.56645 5.24745 8.62519 5.26975 8.67012 5.31107C8.75603 5.36095 8.83014 5.42927 8.8873 5.51138C9.17231 5.89138 9.44375 6.2851 9.7219 6.67204C9.78981 6.76869 9.85763 6.85849 9.93231 6.94828C9.88481 6.95422 9.83929 6.97066 9.79872 6.99644C9.75825 7.02229 9.72389 7.05683 9.69802 7.09772C9.67209 7.13853 9.65532 7.18479 9.64887 7.23295C9.64251 7.28119 9.64656 7.33025 9.66085 7.3766C9.5319 7.6184 9.7219 7.74272 9.85085 7.88093C9.87555 7.90283 9.90554 7.91761 9.93784 7.92364C9.97005 7.92976 10.0033 7.92685 10.034 7.91546C10.1404 7.8582 10.2366 7.78354 10.3191 7.6944C10.3869 7.63228 10.3733 7.55628 10.2715 7.51473H10.2241L10.0273 7.16248V6.94143C10.1154 6.89996 10.1629 6.94143 10.1834 7.04501C10.2032 7.21354 10.2799 7.36983 10.4005 7.48713C10.4344 7.48713 10.4005 7.6046 10.4005 7.65988C10.4005 7.71514 10.4412 7.85334 10.5565 7.8464C10.8415 7.8464 10.9026 8.04673 10.9909 8.24705C11.079 8.44737 11.1877 8.70982 11.2962 8.93782C11.3438 9.05528 11.4454 9.04149 11.5269 8.99317C11.6486 8.91659 11.7665 8.83365 11.8797 8.74443C12.0426 8.63391 12.1919 8.52337 12.3547 8.42664C12.4662 8.35097 12.5974 8.31049 12.7313 8.31049C12.8653 8.31049 12.9965 8.35097 13.1079 8.42664C13.1552 8.46464 13.2116 8.48917 13.2711 8.49768C13.3308 8.50618 13.3916 8.49825 13.4474 8.47505C13.5472 8.44712 13.6527 8.44712 13.7526 8.47505C13.9019 8.47505 14.0443 8.55105 14.2139 8.59244C14.2139 8.53023 14.2547 8.47505 14.2684 8.41969C14.2828 8.337 14.3055 8.25598 14.3361 8.178C14.4212 7.98742 14.4607 7.77908 14.4514 7.57007C14.4383 7.37934 14.4703 7.18826 14.5448 7.0128C14.6191 6.83725 14.7337 6.68253 14.879 6.56143C14.8918 6.54399 14.9032 6.52557 14.913 6.50615C14.8587 6.45097 14.7909 6.50615 14.7365 6.50615C14.6499 6.54524 14.5563 6.56539 14.4617 6.56539C14.367 6.56539 14.2733 6.54524 14.1868 6.50615C14.1127 6.49591 14.0373 6.49591 13.963 6.50615C13.8119 6.51508 13.6608 6.49269 13.5184 6.44048C13.3762 6.38828 13.2457 6.30716 13.1352 6.20224C13.1352 6.20224 13.1352 6.20224 13.1352 6.15391C13.1352 6.10551 13.3659 6.20918 13.4474 6.0571C13.1718 5.88685 12.965 5.62242 12.8636 5.31107C12.9655 5.31107 13.04 5.35253 13.1147 5.38012C13.3842 5.46992 13.6725 5.48419 13.9494 5.42158C14.3223 5.35458 14.6823 5.22622 15.0147 5.04167C15.135 4.96575 15.2737 4.92561 15.4151 4.92561C15.5566 4.92561 15.6952 4.96575 15.8154 5.04167C15.9095 5.08685 16.0105 5.11493 16.114 5.12452C16.2091 5.12452 16.338 5.0624 16.3922 5.12452C16.4602 5.24199 16.4975 5.37516 16.5008 5.51138C16.5061 5.64207 16.482 5.77235 16.4302 5.89213C16.3785 6.01191 16.3005 6.1179 16.2022 6.20224C16.1792 6.22768 16.1586 6.25544 16.1411 6.2851C16.2293 6.50615 16.3175 6.70656 16.3855 6.92069C16.5448 7.40957 16.5448 7.93777 16.3855 8.42664C16.3682 8.55964 16.3682 8.69428 16.3855 8.82737L16.5755 8.73757C16.8209 8.57963 17.0886 8.46076 17.3694 8.38517C17.457 8.36138 17.5488 8.35757 17.6379 8.37434C17.7271 8.39111 17.8115 8.42787 17.885 8.4819C17.9061 8.50132 17.9308 8.51635 17.9576 8.52577C17.9844 8.53535 18.0128 8.53923 18.0411 8.53724C18.3622 8.46711 18.69 8.43465 19.0182 8.44051C19.0847 8.43448 19.1505 8.423 19.2151 8.4059C19.1743 8.21939 18.964 8.15726 18.9843 7.95685L19.7647 8.05358C19.7647 7.94304 19.7647 7.874 19.7647 7.77726C19.8096 7.769 19.8555 7.769 19.9003 7.77726C20.0352 7.85987 20.1624 7.95461 20.2804 8.06051C20.3623 8.15783 20.469 8.22995 20.5889 8.26893C20.7088 8.30809 20.8368 8.31239 20.959 8.28157C21.1055 8.24011 21.2604 8.24011 21.4068 8.28157C21.528 8.32619 21.6323 8.40838 21.7054 8.51644C21.7893 8.67066 21.8642 8.82985 21.9293 8.99317L21.6783 9.0277C21.6783 9.0277 21.6783 9.10361 21.6783 9.11749C21.7984 9.24785 21.8786 9.41117 21.9088 9.58721C21.9377 9.67452 21.9763 9.75796 22.0243 9.83594C22.3025 10.2504 22.5875 10.6649 22.8724 11.0724C22.9367 11.1576 23.0176 11.2281 23.1099 11.2798C23.1735 11.3073 23.2276 11.3537 23.2651 11.4127C23.3026 11.4718 23.3218 11.541 23.3204 11.6112C23.3306 11.7563 23.3306 11.9017 23.3204 12.0465C23.3214 12.1364 23.2927 12.2239 23.239 12.2953C23.1372 12.4266 23.0423 12.4196 22.9064 12.2953C22.8478 12.253 22.7805 12.2246 22.7096 12.2124C22.7123 12.2353 22.7123 12.2584 22.7096 12.2814C22.7096 12.3366 22.7775 12.4196 22.7572 12.4404C22.7345 12.4643 22.707 12.4828 22.6765 12.4947C22.6459 12.5066 22.6133 12.5117 22.5807 12.5093C22.4718 12.482 22.3685 12.4352 22.2753 12.3713C22.1578 12.285 22.0445 12.1928 21.9361 12.0949C21.7029 11.9322 21.431 11.8369 21.1489 11.8186C21.0269 11.8186 20.9048 11.8186 20.7418 11.7771L20.8707 12.1986C21.1015 12.8411 21.3457 13.4834 21.5493 14.1329C21.6914 14.4431 21.879 14.7297 22.1057 14.9825C22.2143 15.1345 22.3432 15.2796 22.4586 15.4315C22.712 15.7916 22.8835 16.2046 22.9608 16.6405C22.9762 16.7328 23.0012 16.8231 23.0354 16.9099C23.1032 17.0687 23.1914 17.0965 23.3475 17.0273C23.5959 16.9058 23.8156 16.7314 23.9921 16.5161C24.096 16.3842 24.2197 16.27 24.3586 16.1776C24.3948 16.1486 24.4373 16.1287 24.4825 16.1195C24.5278 16.1105 24.5744 16.1123 24.6188 16.1251C24.6631 16.138 24.7038 16.1614 24.7377 16.1932C24.7715 16.2251 24.7974 16.2648 24.8132 16.3089C24.8428 16.3634 24.8655 16.4214 24.881 16.4816C24.9822 16.8324 25.1663 17.1526 25.4173 17.4142C25.6546 17.6836 25.8921 17.953 26.1432 18.2155C26.2267 18.2891 26.2916 18.3822 26.3317 18.4868C26.3719 18.5917 26.3865 18.7049 26.3739 18.8166C26.3522 19.2263 26.3957 19.6369 26.5028 20.0324C26.578 20.2259 26.6171 20.4322 26.6182 20.6403H26.6522ZM9.68795 7.03122C9.64053 6.94828 9.60657 6.86542 9.55907 6.79628L8.67012 5.59432C8.62262 5.52527 8.59544 5.35939 8.47335 5.44233C8.35118 5.52527 8.47335 5.62192 8.53448 5.70486L9.4165 6.99669C9.46407 7.07261 9.52513 7.10037 9.65399 7.03122H9.68795ZM17.3151 10.7685C17.0184 11.0784 16.7733 11.4354 16.589 11.8255C16.5869 11.8668 16.5869 11.9085 16.589 11.9498C16.8468 11.9085 16.9962 11.7219 17.2201 11.6391V11.7219C17.1165 11.9466 17.026 12.1772 16.9486 12.4127C16.8479 12.6524 16.8014 12.9121 16.813 13.1726C16.813 13.3452 16.8536 13.5249 16.8807 13.6976C16.8964 13.7616 16.8923 13.8291 16.8693 13.8908C16.8462 13.9525 16.8053 14.0056 16.7519 14.043C16.4926 14.2863 16.3308 14.6183 16.2972 14.9756C16.2972 15.0792 16.3312 15.1345 16.4193 15.1138C16.5545 15.0972 16.6869 15.0624 16.813 15.0101C17.0158 14.9318 17.1899 14.7915 17.3114 14.6084C17.4328 14.4255 17.4958 14.2086 17.4915 13.9877C17.4915 13.6493 17.4915 13.2969 17.4372 12.9722C17.3686 12.1658 17.5592 11.3585 17.98 10.6719C18.0275 10.6027 18.0682 10.5267 18.014 10.4576C17.9993 10.4414 17.9816 10.4282 17.9617 10.4193C17.9419 10.4105 17.9204 10.4058 17.8986 10.4058C17.8769 10.4058 17.8555 10.4105 17.8356 10.4193C17.8157 10.4282 17.7979 10.4414 17.7832 10.4576C17.6184 10.5469 17.4616 10.6509 17.3151 10.7685ZM15.8222 10.4784C15.7273 10.6625 15.6719 10.8649 15.6594 11.0724C15.6484 11.5085 15.5218 11.9334 15.2929 12.3021C15.1165 12.5854 14.9333 12.8547 14.7297 13.1587L15.6865 14.4576C15.8019 14.2088 15.9105 13.9809 16.0054 13.7667C15.841 13.6808 15.6823 13.5839 15.5304 13.4765C15.366 13.3503 15.2352 13.1841 15.1505 12.993C15.2306 13.0129 15.3145 13.0092 15.3926 12.9823C15.4707 12.9553 15.5397 12.9063 15.5915 12.8411C15.6963 12.6817 15.7764 12.507 15.829 12.3228C15.9375 11.8877 15.9851 11.4387 16.1073 11.0103C16.23 10.4926 16.5341 10.0383 16.9622 9.73234C17.0327 9.67411 17.0866 9.5977 17.1182 9.5112C17.215 9.29205 17.3508 9.09296 17.5187 8.92402C17.5444 8.89048 17.565 8.85331 17.5797 8.81357C17.539 8.81357 17.5254 8.81357 17.5119 8.81357C16.7754 9.15806 16.1784 9.75101 15.8222 10.4922V10.4784ZM15.2115 7.62534C15.2727 7.59081 15.3337 7.52852 15.3948 7.52852C15.5 7.53662 15.6032 7.56231 15.7 7.6046C15.7865 7.64665 15.8845 7.65798 15.9778 7.63666C16.0715 7.61543 16.1551 7.56273 16.2158 7.48713C16.0751 7.34745 15.8864 7.26929 15.6898 7.26929C15.4934 7.26929 15.3047 7.34745 15.164 7.48713C15.1231 7.52134 15.0939 7.56776 15.0804 7.61989C15.0671 7.67202 15.0702 7.72712 15.0894 7.77726C15.1505 7.94305 15.1775 8.12272 15.2387 8.28852C15.2989 8.56029 15.4471 8.80358 15.6594 8.97929C15.7951 9.07602 15.8698 9.08296 15.9579 8.93097C16.0705 8.73204 16.1616 8.52122 16.2293 8.30231C16.3446 7.90852 16.2633 7.8326 15.829 7.90852C15.829 8.03978 15.7951 8.17105 15.7747 8.30231C15.6051 8.2677 15.6323 8.17799 15.6594 8.06745C15.6865 7.95685 15.6594 7.85334 15.4829 7.8464C15.4213 7.84838 15.3608 7.82889 15.3115 7.7913C15.2621 7.75355 15.2268 7.69994 15.2115 7.63914V7.62534ZM15.6932 6.24371C15.5765 6.40051 15.5037 6.58677 15.4829 6.78247C15.4718 6.81568 15.4688 6.85112 15.4742 6.88573C15.4797 6.92035 15.4934 6.95315 15.5141 6.98107C15.5349 7.00908 15.5621 7.03138 15.5934 7.04609C15.6246 7.06088 15.6588 7.06764 15.6932 7.06575C15.8426 7.06575 15.9986 7.06575 16.1954 7.10722C16.1828 6.97711 16.1624 6.84791 16.1344 6.72037C16.0897 6.55862 16.0307 6.4014 15.9579 6.25056C15.8494 6.09856 15.7884 6.10551 15.6932 6.22983V6.24371ZM14.5601 5.93285L13.7865 6.2851V6.33351C13.9403 6.35714 14.0977 6.33119 14.2363 6.25932C14.3751 6.18754 14.4882 6.07337 14.5601 5.93285ZM15.6458 5.242C15.6458 5.242 15.6458 5.242 15.7068 5.18674C15.7679 5.13146 15.6458 5.11767 15.6119 5.1038C15.525 5.07521 15.4333 5.06472 15.3424 5.07307C15.2515 5.08141 15.163 5.10826 15.0826 5.1522L14.404 5.56665C14.2146 5.68262 13.9911 5.72666 13.773 5.69106L13.3794 5.65645C13.4039 5.71139 13.4358 5.7626 13.4744 5.80844C13.6377 5.92641 13.8394 5.97589 14.0375 5.94666C14.3023 5.87041 14.5525 5.74888 14.7772 5.58739C15.0356 5.4035 15.3334 5.28512 15.6458 5.242ZM11.873 9.04149C11.9136 9.09675 11.9273 9.14508 11.9613 9.1659C12.0224 9.20481 12.0729 9.25875 12.1085 9.32261C12.1441 9.38655 12.1633 9.4585 12.1648 9.53193C12.1741 9.63957 12.2017 9.74474 12.2462 9.8428C12.4521 10.3197 12.764 10.7414 13.1574 11.0747C13.5507 11.408 14.0146 11.6437 14.5126 11.7633C14.6361 11.8059 14.7698 11.8053 14.8927 11.7615C15.0158 11.7176 15.1208 11.6332 15.1912 11.5215C15.2849 11.3731 15.3644 11.2158 15.4287 11.0518C15.4424 10.9835 15.4424 10.9129 15.4287 10.8445C14.75 10.8445 14.2073 10.6857 14.0715 10.4093C14.2409 10.4696 14.416 10.5112 14.594 10.5337C14.7807 10.5397 14.9648 10.4892 15.1233 10.3886C14.9265 10.3471 14.7636 10.3402 14.6144 10.2919C14.3338 10.1697 14.0817 9.98835 13.8747 9.75994C13.6346 9.53723 13.3832 9.32732 13.1216 9.13129C12.9399 9.00515 12.7285 8.9303 12.5091 8.91453C12.2898 8.89874 12.0702 8.94253 11.873 9.04149ZM12.6669 14.2917C12.873 14.153 13.0319 13.9527 13.1216 13.7184C13.1339 13.6994 13.1394 13.6765 13.1369 13.6539C13.1344 13.6313 13.1241 13.6102 13.1079 13.5946C13.0917 13.5789 13.0706 13.5695 13.0482 13.5681C13.0259 13.5668 13.0038 13.5735 12.9858 13.5872C12.8813 13.6369 12.7794 13.6923 12.6804 13.7529C12.3186 13.9514 11.9102 14.0445 11.4997 14.0223C11.4997 14.0223 11.4523 14.0223 11.4184 13.9809C11.9679 13.746 12.0969 13.6562 12.1715 13.4351L11.7849 13.518L11.4048 13.5801L11.018 13.6285C10.9026 13.6285 10.7873 13.7046 10.6651 13.6285C10.8091 13.5609 10.9563 13.501 11.1062 13.4489C11.2486 13.3937 11.3844 13.3245 11.5201 13.2555L11.9544 13.0413C12.0913 12.9768 12.2249 12.9053 12.3547 12.8272C12.4905 12.7512 12.6601 12.7374 12.7619 12.6062C12.7619 12.6062 12.7619 12.5716 12.7211 12.5646L11.5472 12.1986C11.1161 12.0788 10.6708 12.0206 10.2241 12.0258C9.90248 12.0137 9.58575 12.1083 9.32158 12.2953C9.01618 12.5233 8.98222 12.6959 9.18585 13.0482C9.92487 12.7586 10.7292 12.6867 11.5066 12.8411C11.4576 12.8823 11.4055 12.9192 11.3505 12.9515C11.2318 13.0066 11.1094 13.0528 10.9841 13.0898L9.15867 13.6631C8.91357 13.7252 8.69326 13.8627 8.52762 14.0568C8.45294 14.1535 8.41908 14.2433 8.52762 14.34H8.60222C8.83146 14.2005 9.08978 14.1178 9.35611 14.0986C9.62252 14.0795 9.88959 14.1243 10.1358 14.2296C10.6028 14.4331 11.0967 14.5657 11.6016 14.6233C11.9834 14.6403 12.3595 14.5231 12.6669 14.2917ZM15.8562 20.3088C15.9309 20.1153 15.9918 19.915 16.0597 19.7215C16.2361 19.2034 16.4126 18.6853 16.5823 18.1672C16.5873 18.0775 16.5873 17.9875 16.5823 17.8978L15.8154 18.1051C15.7 18.6301 15.6051 19.1343 15.4762 19.618C15.3993 19.899 15.3017 20.1739 15.1843 20.44C15.13 20.5644 15.0554 20.668 14.9944 20.7784C14.9809 20.792 14.97 20.8081 14.9628 20.826C14.9554 20.8437 14.9516 20.8627 14.9516 20.8822C14.9516 20.9013 14.9554 20.9206 14.9628 20.9384C14.97 20.9561 14.9809 20.9723 14.9944 20.9857C15.0962 21.0686 15.1912 21.1654 15.2929 21.2413C15.309 21.2567 15.3286 21.268 15.3497 21.274C15.3711 21.28 15.3935 21.2807 15.4151 21.276C15.5712 21.2344 15.6458 21.3173 15.7137 21.4486C15.8038 21.5928 15.9253 21.7141 16.069 21.8027C16.2125 21.8913 16.3743 21.9451 16.5415 21.9597C16.5767 21.9624 16.612 21.9568 16.6451 21.9436C16.6778 21.9305 16.7074 21.91 16.7315 21.8838C16.7446 21.8534 16.7514 21.8204 16.7514 21.787C16.7514 21.7538 16.7446 21.7209 16.7315 21.6903C16.6625 21.5722 16.5853 21.459 16.5008 21.3519L15.8832 20.5713C15.855 20.5345 15.8375 20.4904 15.8328 20.444C15.8278 20.3976 15.836 20.3507 15.8562 20.3088ZM17.634 19.7492C17.7222 19.6704 17.7787 19.5611 17.7924 19.4426C17.8062 19.3239 17.7763 19.2042 17.7087 19.1067C17.5593 18.9271 17.3965 18.7543 17.2404 18.5748L17.098 18.4574C16.9418 18.9755 16.7993 19.4521 16.65 19.9357C16.9873 19.9451 17.3226 19.8816 17.634 19.7492ZM12.2054 23.6937C12.3139 23.5625 12.4498 23.452 12.5448 23.3208C12.6397 23.1894 12.7687 23.0444 12.7008 22.851C12.6669 22.851 12.6465 22.851 12.6329 22.851C12.6061 22.8449 12.5784 22.8449 12.5514 22.851C12.0337 23.1461 11.491 23.3935 10.9298 23.5901C10.711 23.6791 10.4835 23.744 10.2512 23.7836C9.87407 23.8444 9.52133 24.0119 9.23335 24.2672C9.0341 24.4792 8.8997 24.7456 8.84658 25.034L9.22657 25.2135C9.57394 25.3862 9.94825 25.4961 10.3326 25.5382C10.3996 25.5461 10.4671 25.529 10.5226 25.4898C10.9572 25.2134 11.4625 25.0741 11.9747 25.0892L12.728 25.1237C12.728 25.0616 12.728 25.0133 12.728 24.9648C12.6553 24.7919 12.5258 24.6503 12.3616 24.5642C12.2761 24.5346 12.1997 24.4832 12.1397 24.4146C12.0796 24.3461 12.038 24.2631 12.019 24.1734C11.9998 24.0836 12.0038 23.9904 12.0306 23.9027C12.0572 23.815 12.1059 23.7359 12.1715 23.673L12.2054 23.6937ZM12.7483 23.7629C13.0877 23.4243 13.5627 23.2724 13.8544 22.8924C13.8566 22.8717 13.8566 22.8509 13.8544 22.8303C13.8282 22.8013 13.7986 22.7757 13.7662 22.7542C13.5151 22.5884 13.3929 22.6161 13.2097 22.851C13.0264 23.0859 12.9315 23.1963 12.7891 23.3621C12.6465 23.528 12.6127 23.5556 12.7415 23.7421L12.7483 23.7629ZM14.8654 20.1844C14.944 20.1764 15.0177 20.1423 15.0755 20.0873C15.133 20.0324 15.1713 19.9597 15.1843 19.8805C15.3509 19.2241 15.4733 18.5572 15.5509 17.884C15.5569 17.8635 15.5586 17.842 15.5561 17.8208C15.5533 17.7997 15.5465 17.7792 15.5355 17.761C15.5247 17.7428 15.5102 17.727 15.4929 17.7149C15.4755 17.7027 15.456 17.6945 15.4355 17.6905C15.3883 17.6672 15.338 17.651 15.2861 17.6422L13.644 17.4142C13.488 17.4142 13.454 17.4142 13.4133 17.5663C13.3675 17.7226 13.3313 17.8818 13.3048 18.0428C13.2233 18.5609 13.1486 19.0791 13.074 19.5972C13.074 19.7423 13.1079 19.8873 13.1284 20.0394C13.1894 20.4814 13.2573 20.5229 13.6849 20.4261C14.1122 20.3295 14.4448 20.2327 14.8315 20.1636L14.8654 20.1844ZM16.0122 17.3174C15.7746 16.9765 15.4835 16.6777 15.1505 16.4332C15.1109 16.3974 15.0609 16.3755 15.0079 16.3711C14.7661 16.3574 14.5237 16.3574 14.2819 16.3711C14.1937 16.3711 14.0443 16.4057 14.0443 16.5369C14.0443 16.6682 14.1597 16.6958 14.2547 16.751C14.7884 16.9911 15.3426 17.1809 15.9105 17.3174C15.9105 17.3174 15.9172 17.3174 15.9783 17.2967L16.0122 17.3174ZM14.7026 15.4661C14.5601 15.1622 14.5261 15.1552 14.2954 15.3141L14.18 15.3902C14.0749 15.4654 13.954 15.5152 13.8271 15.5356C13.7 15.5558 13.57 15.5462 13.4474 15.5075C13.3104 15.4758 13.168 15.4793 13.0329 15.518C12.8978 15.5566 12.7743 15.629 12.6736 15.7286C12.5719 15.8115 12.5787 15.8945 12.6736 15.9911C12.7361 16.0695 12.8185 16.1289 12.9118 16.163C13.0051 16.1972 13.1058 16.2046 13.203 16.1846C13.3575 16.1518 13.5079 16.1008 13.6508 16.0325C13.9358 15.9013 14.2139 15.7493 14.4855 15.6043C14.5503 15.5559 14.6115 15.5029 14.6687 15.4454L14.7026 15.4661ZM7.9916 18.1327C8.12323 17.8625 8.3311 17.6387 8.58868 17.4897C8.84625 17.3409 9.14158 17.2737 9.4369 17.2967L10.1765 17.3659C10.2213 17.3753 10.268 17.3678 10.3079 17.3449C10.3478 17.3221 10.3783 17.2854 10.3937 17.2415C10.4412 17.1586 10.3937 17.0965 10.3462 17.0342C9.95304 16.608 9.41889 16.3446 8.84658 16.295C8.6584 16.2819 8.4703 16.3226 8.30376 16.4125C7.68966 16.7671 7.19707 17.3048 6.89231 17.953C6.89231 17.953 6.89231 18.0014 6.89231 18.0635L7.06194 17.9599L7.59121 17.4833C7.6251 17.4833 7.67265 17.4419 7.72691 17.4073C7.57767 17.6905 7.42838 17.9461 7.29941 18.2017C7.03176 18.7337 6.87901 19.3179 6.8516 19.915C6.8567 20.2574 6.75711 20.593 6.56658 20.8752C6.55011 20.9086 6.5365 20.9432 6.52586 20.9788L6.56658 21.0271C6.62232 21.0017 6.67475 20.9691 6.72264 20.9305C7.15363 20.5678 7.43856 20.0563 7.52336 19.4935C7.58672 19.0122 7.74605 18.5491 7.9916 18.1327ZM7.9916 24.8198C7.91012 24.73 7.82871 24.6333 7.74729 24.5504C7.69851 24.4984 7.64642 24.45 7.59121 24.4053L7.54374 24.4467C7.66383 24.7059 7.81416 24.9496 7.9916 25.1721C8.10018 24.9441 8.09336 24.951 7.9916 24.8198ZM8.14762 26.9959C8.11328 27.0765 8.09557 27.1635 8.09557 27.2515C8.09557 27.3395 8.11328 27.4264 8.14762 27.5069C8.17309 27.5658 8.18619 27.6294 8.18619 27.6936C8.18619 27.7578 8.17309 27.8213 8.14762 27.8801C8.12595 27.9176 8.11234 27.9593 8.10779 28.0025C8.10334 28.0458 8.10799 28.0894 8.12145 28.1307C8.13501 28.172 8.15706 28.2098 8.18615 28.2417C8.21523 28.2735 8.2507 28.2988 8.29012 28.3153C8.34423 28.3225 8.39892 28.3225 8.45294 28.3153C8.46327 28.2675 8.46327 28.2181 8.45294 28.1702C8.41908 28.0873 8.33086 28.0252 8.38512 27.9077L8.57512 27.8456C8.49731 27.5289 8.34349 27.237 8.12729 26.9959H8.14762ZM8.41908 23.6384C8.42949 23.5523 8.45716 23.4692 8.50028 23.3944C8.54348 23.3195 8.60131 23.2546 8.67012 23.2032C8.81262 23.1135 8.94835 23.0168 9.08408 22.9131C9.19394 22.8323 9.28621 22.7291 9.35511 22.6103C9.42401 22.4914 9.46805 22.3594 9.4844 22.2223C9.52174 21.9703 9.52174 21.7143 9.4844 21.4623C9.463 21.2628 9.45161 21.0622 9.45045 20.8614C9.43244 20.3492 9.45516 19.8362 9.51835 19.3278C9.58452 18.743 9.78947 18.1836 10.1154 17.6974C10.1477 17.6438 10.1771 17.5884 10.2037 17.5316C10.1571 17.5069 10.1066 17.4906 10.0544 17.4833C9.796 17.4525 9.53397 17.4808 9.28763 17.5663C9.02121 17.6313 8.77636 17.7673 8.57852 17.9602C8.38058 18.1533 8.2366 18.3963 8.16121 18.6646C8.02553 19.1205 7.90336 19.5696 7.76761 20.0463C7.75243 20.0887 7.75084 20.135 7.76302 20.1784C7.77524 20.2219 7.80062 20.2601 7.83548 20.2881C8.10008 20.5613 8.27542 20.9112 8.33762 21.2898C8.42569 21.9519 8.35109 22.6259 8.1205 23.2516C8.02553 23.5071 7.89653 23.7421 7.78794 23.9908C7.78794 24.0599 7.72018 24.1496 7.7405 24.2049C7.77672 24.2983 7.83256 24.3826 7.904 24.4518C7.97552 24.5211 8.06101 24.5735 8.15444 24.6056C8.26303 24.2532 8.33762 23.9493 8.39868 23.6384H8.41908ZM8.6498 24.4121C8.7244 24.2879 8.7923 24.1566 8.86021 24.0254C9.1381 23.503 9.58353 23.0932 10.1222 22.8648C10.4005 22.7473 10.6923 22.6644 10.9772 22.5608L11.4659 22.3674C11.5472 22.3328 11.588 22.2844 11.5405 22.1808C11.2331 22.1757 10.9293 22.1125 10.6448 21.9943C10.7261 21.9114 10.7736 21.8493 10.828 21.801C10.9651 21.676 11.1102 21.5608 11.2622 21.4555C11.6405 21.2065 11.9583 20.8735 12.1919 20.4814C12.619 19.9018 12.8327 19.1879 12.7958 18.4642C12.7958 18.1741 12.7483 17.8771 12.728 17.587C12.728 17.4142 12.6873 17.3728 12.5244 17.4004C12.1343 17.4422 11.7511 17.535 11.3844 17.6767C11.1177 17.793 10.8815 17.9709 10.6942 18.1963C10.5069 18.4217 10.3738 18.6886 10.3054 18.9755C10.0816 19.9105 9.93173 20.8622 9.85763 21.8217C9.83366 22.0879 9.74949 22.345 9.61178 22.5728C9.47408 22.8004 9.28646 22.9925 9.06375 23.1342C8.86508 23.2655 8.69995 23.4429 8.58198 23.6519C8.46393 23.861 8.39645 24.0954 8.38512 24.3362C8.38677 24.4015 8.41354 24.4636 8.45972 24.5088C8.53448 24.5849 8.58868 24.4813 8.6294 24.4121H8.6498ZM10.0069 25.8768L8.6498 25.4069C8.53448 25.6143 8.52762 25.6556 8.6498 25.7316C8.9662 25.9251 9.30935 26.0695 9.66763 26.16C9.84407 26.2083 9.97295 26.084 10.0273 25.8768H10.0069ZM11.7849 26.7818C11.5795 26.8193 11.3862 26.9069 11.2216 27.0373C11.1314 27.1064 11.0534 27.1904 10.9909 27.2861C10.9778 27.3129 10.9709 27.3424 10.9709 27.3723C10.9709 27.4023 10.9778 27.4319 10.9909 27.4586C11.0521 27.5555 11.1444 27.6277 11.2519 27.663C11.3596 27.6983 11.476 27.6944 11.5813 27.6521C11.6522 27.6099 11.7138 27.5532 11.7623 27.4856C11.8108 27.4179 11.8449 27.3408 11.8628 27.2592C11.8806 27.1775 11.8817 27.0929 11.8659 27.0107C11.8503 26.9285 11.8179 26.8506 11.7712 26.7818H11.7849ZM14.9537 29.0338C14.7162 28.8403 14.4855 28.6331 14.2752 28.4603C14.0467 28.3084 13.781 28.2246 13.5083 28.2185C13.5409 28.4159 13.6196 28.6022 13.7377 28.7621C13.8558 28.9219 14.0098 29.0507 14.1868 29.1374C14.3444 29.2337 14.5201 29.295 14.7024 29.3177C14.8848 29.3403 15.0698 29.3235 15.2454 29.2687C15.1029 29.1857 15.0215 29.1028 14.94 29.0338H14.9537ZM16.7451 27.3482L16.5347 27.2444C16.1417 27.0727 15.8016 26.7958 15.5509 26.4431C15.5509 26.4431 15.5509 26.3672 15.4965 26.3051H15.7611L15.7951 26.2568L15.673 26.1392C15.4354 25.9476 15.2087 25.7425 14.9944 25.5244C14.9341 25.4266 14.8418 25.3535 14.7339 25.3181C14.6259 25.2828 14.509 25.2873 14.404 25.331L14.2954 25.3655C13.9342 25.4595 13.5579 25.4784 13.1894 25.4208C12.9655 25.4208 12.7415 25.3309 12.5108 25.2826C12.0557 25.1866 11.5828 25.2323 11.1537 25.4139C10.7477 25.5128 10.391 25.7582 10.1494 26.1047C10.0342 26.3054 9.94733 26.5216 9.89149 26.7472C9.83326 26.9718 9.825 27.2068 9.86721 27.435C9.90951 27.6632 10.0013 27.879 10.1358 28.0667C10.1891 28.123 10.2457 28.1762 10.3054 28.2257H10.3529L10.3123 28.0873C10.2041 27.8302 10.1605 27.5497 10.1853 27.2711C10.2102 26.9925 10.3027 26.7246 10.4548 26.4915C10.6958 26.2125 11.0243 26.0271 11.3844 25.9665C11.7677 25.8672 12.1649 25.8369 12.5583 25.8768C12.7871 25.8864 13.0142 25.9188 13.2369 25.9734C13.4474 26.0218 13.4676 26.0978 13.3997 26.3051C13.3485 26.4266 13.3261 26.5588 13.3344 26.6907C13.3427 26.8227 13.3813 26.9509 13.4474 27.065C13.5975 27.2903 13.8135 27.4619 14.0648 27.5554C14.3428 27.6345 14.6312 27.6694 14.9198 27.659C15.2727 27.659 15.5983 27.659 15.9918 27.659C16.264 27.6514 16.5352 27.6934 16.7926 27.7834C16.8415 27.7982 16.8914 27.8097 16.9418 27.818C16.9622 27.4864 16.9554 27.4724 16.7451 27.3482ZM18.5094 28.0735C18.8477 27.8377 19.123 27.5195 19.31 27.1478C19.3621 27.0404 19.3891 26.9222 19.3891 26.8025C19.3891 26.6827 19.3621 26.5644 19.31 26.457C19.2304 26.2455 19.0882 26.0644 18.9028 25.9389C18.8233 25.9005 18.7588 25.8362 18.7194 25.756C18.68 25.6759 18.6682 25.5847 18.6858 25.4969C18.7265 25.179 18.7605 24.8681 18.8011 24.5504C18.8418 24.2325 18.6314 23.7767 18.1225 23.9493C17.885 24.0254 17.6408 24.0875 17.3965 24.1496C16.9057 24.2828 16.397 24.3341 15.89 24.3017C15.8383 24.2945 15.7858 24.2945 15.734 24.3017V24.357C16.005 24.4657 16.2813 24.5603 16.5618 24.6401C16.8499 24.7148 17.1472 24.7451 17.444 24.73C16.9089 24.9465 16.3368 25.0522 15.7611 25.0408C15.829 25.101 15.9073 25.1477 15.9918 25.179C16.5669 25.359 17.1699 25.427 17.7698 25.3793C17.8105 25.3793 17.8511 25.3793 17.9326 25.3793C17.7573 25.5239 17.5738 25.6578 17.3829 25.7801C17.1937 25.8833 16.9988 25.9755 16.7993 26.0564C16.9466 26.1056 17.0993 26.1357 17.254 26.1461L17.763 26.2083C17.7106 26.2417 17.6562 26.2716 17.6 26.2981L16.9554 26.5952C16.9138 26.6257 16.8751 26.6605 16.84 26.6988V26.7541C17.1387 26.7541 17.444 26.7541 17.7425 26.6781C17.9377 26.6195 18.1263 26.5408 18.3059 26.4431C18.2412 26.796 18.1074 27.1321 17.9122 27.4311C18.0604 27.4026 18.2044 27.3539 18.3397 27.2861C18.4679 27.219 18.5925 27.1452 18.713 27.065L18.3126 27.9769C18.3645 28.0374 18.433 28.0807 18.5094 28.1012V28.0735ZM19.1878 25.2758C19.2374 25.2313 19.2809 25.1802 19.3168 25.1237C19.4187 24.8819 19.5272 24.6402 19.6154 24.4329C19.6481 24.3303 19.6642 24.223 19.6628 24.1151C19.6642 24.0733 19.6566 24.0318 19.6407 23.9933C19.6247 23.9549 19.6006 23.9204 19.5705 23.8921C19.5401 23.8639 19.5042 23.8427 19.4652 23.8299C19.4261 23.8172 19.3848 23.8131 19.344 23.8181C19.2965 24.0392 19.2489 24.2532 19.1947 24.4675C19.1278 24.7321 19.123 25.009 19.1811 25.2758H19.1878ZM21.1557 28.792L20.8028 28.7299C20.7912 28.7959 20.7729 28.8608 20.7486 28.9232C20.6739 29.1028 20.613 29.1304 20.4364 29.0752L19.7579 28.861C19.9542 29.0196 20.1884 29.1221 20.4364 29.1581C20.7989 29.2264 21.1732 29.1496 21.4815 28.9439L21.1557 28.792ZM21.9701 26.4985L21.59 26.6849C21.1423 26.9129 20.6807 27.1272 20.2329 27.3758C20.0294 27.509 19.8426 27.6667 19.6765 27.8456C19.6441 27.8766 19.6182 27.9141 19.6005 27.9557C19.5828 27.9972 19.5737 28.042 19.5737 28.0873C19.5737 28.1327 19.5828 28.1776 19.6005 28.219C19.6182 28.2607 19.6441 28.2982 19.6765 28.3291C19.8439 28.492 20.0495 28.6085 20.2736 28.6676C20.3686 28.3706 20.4568 28.0873 20.5519 27.8042L20.8979 27.6797C21.3586 27.5067 21.7388 27.1641 21.9633 26.7195C21.9835 26.6574 22.0243 26.609 21.9633 26.5261L21.9701 26.4985ZM21.3321 23.2032C21.3864 23.3829 21.4679 23.5488 21.5085 23.7283C21.5232 23.7916 21.5533 23.8499 21.596 23.8983C21.6388 23.9466 21.6926 23.9832 21.7529 24.0047C21.9633 24.1082 22.0039 24.2257 21.8682 24.4191L21.7868 24.5297C21.9022 24.6747 21.9972 24.8198 22.1124 24.9441C22.2278 25.0685 22.4993 25.3309 22.6961 25.5244C22.7505 25.5727 22.8114 25.635 22.8929 25.5244C22.9743 25.4139 22.8929 25.3172 22.859 25.2066L23.0286 25.1306C22.9403 24.8958 22.8522 24.6609 22.7708 24.4399C22.7551 24.3918 22.7252 24.35 22.6849 24.3203C22.6448 24.2906 22.5965 24.2744 22.5468 24.2741C22.2753 24.2741 22.1872 24.0737 22.3297 23.8664C22.3427 23.8547 22.353 23.8405 22.3602 23.8244C22.3673 23.8083 22.3711 23.7908 22.3711 23.7733C22.3711 23.7555 22.3673 23.7381 22.3602 23.722C22.353 23.7059 22.3427 23.6916 22.3297 23.6799C22.2994 23.6507 22.2594 23.6344 22.2177 23.6344C22.1761 23.6344 22.1361 23.6507 22.1057 23.6799C22.0343 23.7354 21.9595 23.7862 21.8818 23.8319C21.6579 23.5003 21.6036 23.0997 21.3864 22.775C21.3348 22.8318 21.302 22.9036 21.2923 22.9803C21.2826 23.057 21.2965 23.135 21.3321 23.2032ZM20.8843 23.2032L19.8258 22.6644C19.6289 22.5678 19.6222 22.5608 19.7307 22.3605C19.7651 22.314 19.7806 22.2559 19.7744 22.1982C19.7681 22.1404 19.7404 22.0873 19.6968 22.0496C19.5611 21.8976 19.4253 21.7318 19.3033 21.5729C19.2927 21.5528 19.2783 21.5352 19.2607 21.5209C19.2432 21.5068 19.2229 21.4965 19.2012 21.4906C19.1795 21.4848 19.157 21.4836 19.1348 21.4871C19.1127 21.4905 19.0916 21.4985 19.0727 21.5107C18.2814 21.8699 17.4493 22.1274 16.5957 22.2775C16.0122 22.3605 15.4287 22.4503 14.8451 22.5471C14.7792 22.558 14.7191 22.5922 14.6755 22.6437C14.6158 22.7132 14.5614 22.7869 14.5126 22.8648C14.2959 23.1925 14.0303 23.4838 13.7255 23.7283C13.6277 23.8026 13.5388 23.8884 13.4608 23.9839C13.3671 24.0687 13.3057 24.1843 13.2871 24.3105C13.2686 24.4368 13.2939 24.5656 13.3591 24.6747C13.454 24.8267 13.5422 24.9786 13.6372 25.1237C13.6619 25.172 13.7041 25.2084 13.7549 25.2252C13.8057 25.2419 13.8608 25.2377 13.9087 25.2135C14.2197 25.0918 14.5467 25.0172 14.879 24.9924C14.879 24.9924 14.879 24.9924 14.94 24.9372C14.696 24.5061 14.3893 24.1149 14.0309 23.7767C14.2293 23.7898 14.4265 23.8175 14.621 23.8595C15.0284 23.9424 15.4355 24.0323 15.8426 24.1013C16.0096 24.1186 16.1777 24.1186 16.3446 24.1013C16.4146 24.0871 16.4773 24.0479 16.521 23.9908C16.521 23.9908 16.4804 23.8872 16.4465 23.8389C16.4269 23.8068 16.4017 23.7786 16.3719 23.756C16.4332 23.5605 16.4742 23.359 16.494 23.1549C16.469 22.9519 16.4212 22.7525 16.3515 22.5608H16.4126L17.3015 23.0721C17.5593 23.224 17.8036 23.3966 18.0547 23.5488C18.127 23.5893 18.2107 23.604 18.2922 23.5901C18.4551 23.5556 18.6111 23.4933 18.7739 23.4588C19.0213 23.3991 19.2734 23.3621 19.5272 23.3483C19.8733 23.3483 20.0429 23.5071 20.0904 23.8595C20.0972 23.9353 20.0972 24.0117 20.0904 24.0875C20.0497 24.5642 20.0022 25.0408 19.9614 25.5176C19.9614 25.7178 19.9207 25.9182 19.9072 26.1185C19.8985 26.2675 19.9376 26.4153 20.0182 26.5398C20.0989 26.6643 20.2172 26.7588 20.3551 26.8094C20.4827 26.8675 20.6248 26.8842 20.7621 26.8569C20.8993 26.8298 21.025 26.76 21.1218 26.6574C21.2372 26.5399 21.3526 26.4086 21.4611 26.2843C21.5697 26.16 21.6173 26.0632 21.7054 25.9527C21.6511 25.9527 21.6307 25.8906 21.6036 25.8836C21.5193 25.8466 21.4478 25.7847 21.3982 25.7058C21.3486 25.6271 21.3233 25.535 21.3253 25.4415C21.3197 25.2956 21.3038 25.1501 21.2778 25.0062C21.182 24.6461 21.0028 24.3146 20.7554 24.0392C20.6673 23.9217 20.5926 23.7836 20.5111 23.6523C20.4975 23.6379 20.4877 23.6204 20.4826 23.601C20.4775 23.5818 20.4774 23.5616 20.482 23.5422C20.4869 23.5228 20.4964 23.505 20.5098 23.4904C20.5231 23.4759 20.5399 23.4649 20.5586 23.4588C20.6089 23.4185 20.671 23.3966 20.735 23.3966C20.7991 23.3966 20.8612 23.4185 20.9114 23.4588C20.9608 23.4896 21.0132 23.5149 21.0676 23.535C21.0658 23.4686 21.0482 23.4037 21.0162 23.3459C20.9843 23.2882 20.9391 23.2392 20.8843 23.2032ZM18.7672 19.7492C17.9936 18.6576 17.2065 17.5732 16.4329 16.4885L14.2276 13.3799L11.1333 9.01391C10.9841 8.79276 10.828 8.57863 10.6651 8.32304C10.5498 8.41969 10.5429 8.50958 10.6244 8.61317L10.8687 8.94476L14.6144 14.264L16.3446 16.7165C17.0233 17.7182 17.763 18.7268 18.4755 19.7353C18.998 20.4814 19.5204 21.2344 20.0497 21.9805C20.0902 22.0273 20.1126 22.0873 20.1126 22.1498C20.1126 22.2121 20.0902 22.2723 20.0497 22.319C20.0221 22.3697 19.9995 22.4228 19.9818 22.4778L20.7418 22.8579C20.7418 22.5954 20.6875 22.395 20.6604 22.167C20.6604 22.0773 20.6197 21.9943 20.5179 21.9874C20.4162 21.9805 20.294 21.8769 20.2193 21.7663C19.7173 21.1308 19.2286 20.44 18.7332 19.7492H18.7672ZM22.8387 19.0583C22.3901 19.1316 21.9352 19.157 21.4815 19.1343C21.4103 19.133 21.3403 19.1164 21.2759 19.0854C21.2115 19.0544 21.1545 19.0099 21.1082 18.9547C21.0755 18.9132 21.0338 18.8801 20.9861 18.8581L19.8054 18.4366C19.7583 18.4132 19.715 18.3829 19.6765 18.3468V18.2915C19.9003 18.2915 20.1311 18.2915 20.3551 18.2915C20.558 18.2677 20.7596 18.2332 20.959 18.1879C21.0676 18.1879 21.1082 18.0982 21.0676 17.9807C21.0269 17.8633 20.9727 17.6422 20.9318 17.4695C20.9172 17.4092 20.8894 17.3532 20.8508 17.3055C20.812 17.2576 20.7631 17.2192 20.7079 17.1931C20.408 17.0591 20.0937 16.9617 19.7714 16.903C19.6099 16.8816 19.4561 16.8197 19.3236 16.7233C19.51 16.6547 19.7141 16.6547 19.9003 16.7233C20.138 16.7786 20.3686 16.8478 20.579 16.9099C20.7894 16.9721 20.8572 16.9651 20.9454 16.7372C21.0478 16.4635 21.1362 16.1844 21.21 15.9014C21.3678 15.3556 21.3864 14.7777 21.2644 14.2226C21.2399 14.1011 21.2081 13.981 21.1693 13.8633C21.0201 13.4005 20.8843 12.9377 20.7079 12.4817C20.5739 12.1869 20.4221 11.9009 20.2533 11.625C20.0799 11.3322 19.9993 10.9922 20.0225 10.6511C20.0361 10.5224 20.0779 10.3985 20.1449 10.2885C20.2118 10.1785 20.3021 10.0852 20.4094 10.0155V10.057C20.3755 10.1329 20.3415 10.209 20.3008 10.2849C20.2492 10.3745 20.218 10.4746 20.2095 10.578C20.2011 10.6814 20.2157 10.7855 20.2522 10.8824C20.2887 10.9793 20.3462 11.0666 20.4204 11.1378C20.4946 11.209 20.5837 11.2622 20.6807 11.2935C20.8097 11.3419 20.9522 11.3765 21.0878 11.4179L22.1057 11.7495C22.1786 11.7733 22.2569 11.7733 22.3297 11.7495C22.5165 11.6721 22.7196 11.6436 22.9201 11.6667C22.9878 11.6667 23.0625 11.6667 23.0829 11.5906C23.1032 11.5146 23.0829 11.5491 23.0829 11.5423C23.0662 11.5161 23.0457 11.4928 23.0218 11.4732C22.6535 11.1843 22.3524 10.8163 22.1397 10.3955C22.1227 10.3519 22.0946 10.3137 22.0582 10.2849C22.0176 10.2567 21.9712 10.2378 21.9225 10.2297C21.8343 10.2297 21.7326 10.2297 21.6647 10.1952C21.5968 10.1606 21.5628 10.057 21.5019 9.96721H21.4068H21.271C21.3033 9.9364 21.3399 9.91078 21.3798 9.89113L21.6036 9.8428C21.7597 9.79447 21.7937 9.6908 21.6918 9.56647C21.6166 9.4794 21.5324 9.40067 21.4408 9.33162C21.2778 9.21422 21.1082 9.11749 20.9454 8.99317C20.9016 8.95607 20.8463 8.93575 20.7894 8.93575C20.7323 8.93575 20.677 8.95607 20.6332 8.99317C20.5995 9.01018 20.5623 9.01911 20.5246 9.01911C20.4869 9.01911 20.4499 9.01018 20.4162 8.99317C20.3346 8.99317 20.2397 8.9517 20.1582 8.91716C20.0875 8.88635 20.0113 8.87049 19.9343 8.87049C19.8573 8.87049 19.7812 8.88635 19.7105 8.91716C19.6176 8.95037 19.527 8.98961 19.439 9.03463C19.0723 9.24785 18.761 9.54714 18.5309 9.90772C18.3008 10.2681 18.1584 10.6793 18.1158 11.107C18.014 11.6667 17.9937 12.2399 17.9462 12.8064C17.9462 13.0689 17.9122 13.3314 17.8783 13.5939C17.8037 14.1605 17.7154 14.7201 17.634 15.2864C17.588 15.8409 17.511 16.3921 17.4033 16.9376C17.3578 17.1021 17.3506 17.2752 17.3824 17.4432C17.4142 17.6112 17.4842 17.7691 17.5864 17.9047C17.9394 18.3883 18.299 18.8719 18.6586 19.3485C18.9184 19.6784 19.2713 19.9195 19.6697 20.0394C20.1638 20.1914 20.6742 20.2819 21.1897 20.3088C21.5917 20.3463 21.9968 20.2848 22.3705 20.1292C22.7504 19.9633 23.1372 19.7976 23.5173 19.618C23.5919 19.5723 23.6776 19.5481 23.7648 19.5481C23.8521 19.5481 23.9377 19.5723 24.0124 19.618L24.2499 19.756C24.2657 19.7646 24.2832 19.7689 24.3008 19.7689C24.3186 19.7689 24.3361 19.7646 24.3518 19.756C24.3601 19.7414 24.3645 19.7247 24.3645 19.7077C24.3645 19.6907 24.3601 19.674 24.3518 19.6594C24.3065 19.5613 24.2543 19.4666 24.1957 19.3761C24.1524 19.3034 24.093 19.2419 24.0224 19.1963C23.9516 19.1508 23.8716 19.1225 23.7886 19.1137C23.4656 19.0424 23.1335 19.0238 22.8046 19.0583H22.8387ZM24.2772 17.1586C24.0668 17.0896 24.0668 17.0827 23.9176 17.1586C23.7682 17.2345 23.4562 17.3935 23.239 17.4902C23.1345 17.5265 23.0403 17.5884 22.9645 17.6702C22.8889 17.7522 22.8341 17.8515 22.8046 17.9599C22.7435 18.1396 22.8046 18.2777 23.0082 18.2708C23.1359 18.2691 23.2606 18.2308 23.3679 18.1603C23.5633 18.004 23.7449 17.8307 23.9108 17.6422C24.0397 17.497 24.1551 17.3312 24.2772 17.1586Z" fill="black"/>
</g>
</g>
</svg>
