<svg width="904" height="245" viewBox="0 0 904 245" fill="none" xmlns="http://www.w3.org/2000/svg">
<g filter="url(#filter0_b_190_11)">
<path d="M0 28C0 12.536 12.536 0 28 0H409C424.464 0 437 12.536 437 28V160.202C437 167.867 433.857 175.197 428.305 180.482L368.639 237.281C363.433 242.236 356.521 245 349.333 245H28C12.536 245 0 232.464 0 217V28Z" fill="#11488B"/>
<path d="M28 0.5H409C424.188 0.5 436.5 12.8122 436.5 28V160.202C436.5 167.73 433.414 174.93 427.961 180.12L368.294 236.918C363.181 241.785 356.392 244.5 349.333 244.5H28C12.8122 244.5 0.5 232.188 0.5 217V28C0.5 12.8122 12.8122 0.5 28 0.5Z" stroke="#5DF05D"/>
</g>
<path d="M45.618 114V74.442L33.61 78.698L30.304 68.856L56.334 59.66H57.17V114H45.618ZM68.681 114V105.716L80.005 95.57C83.501 92.4287 86.237 89.8193 88.213 87.742C90.189 85.6647 91.5824 83.8407 92.393 82.27C93.2037 80.6993 93.609 79.116 93.609 77.52C93.609 75.164 92.8237 73.3527 91.253 72.086C89.7077 70.8193 87.491 70.186 84.603 70.186C82.2977 70.186 80.081 70.642 77.953 71.554C75.825 72.466 73.9124 73.8087 72.215 75.582L67.921 66.424C70.3277 64.2707 73.1017 62.6113 76.243 61.446C79.3844 60.2553 82.589 59.66 85.857 59.66C89.7837 59.66 93.2037 60.344 96.117 61.712C99.0304 63.08 101.272 64.9927 102.843 67.45C104.439 69.882 105.237 72.7193 105.237 75.962C105.237 78.1407 104.806 80.2687 103.945 82.346C103.084 84.4233 101.564 86.7667 99.385 89.376C97.2317 91.96 94.1917 95.1013 90.265 98.8L85.059 103.664H106.643V114H68.681ZM114.029 114V105.716L125.353 95.57C128.849 92.4287 131.585 89.8193 133.561 87.742C135.537 85.6647 136.93 83.8407 137.741 82.27C138.551 80.6993 138.957 79.116 138.957 77.52C138.957 75.164 138.171 73.3527 136.601 72.086C135.055 70.8193 132.839 70.186 129.951 70.186C127.645 70.186 125.429 70.642 123.301 71.554C121.173 72.466 119.26 73.8087 117.563 75.582L113.269 66.424C115.675 64.2707 118.449 62.6113 121.591 61.446C124.732 60.2553 127.937 59.66 131.205 59.66C135.131 59.66 138.551 60.344 141.465 61.712C144.378 63.08 146.62 64.9927 148.191 67.45C149.787 69.882 150.585 72.7193 150.585 75.962C150.585 78.1407 150.154 80.2687 149.293 82.346C148.431 84.4233 146.911 86.7667 144.733 89.376C142.579 91.96 139.539 95.1013 135.613 98.8L130.407 103.664H151.991V114H114.029ZM199.198 115.14C195.601 115.14 192.396 114.418 189.584 112.974C186.772 111.53 184.403 109.529 182.478 106.97C180.553 104.411 179.083 101.46 178.07 98.116C177.082 94.772 176.588 91.2 176.588 87.4C176.588 83.5747 177.082 79.99 178.07 76.646C179.083 73.302 180.553 70.3633 182.478 67.83C184.403 65.2713 186.772 63.27 189.584 61.826C192.396 60.382 195.601 59.66 199.198 59.66C202.77 59.66 205.962 60.382 208.774 61.826C211.586 63.27 213.955 65.2713 215.88 67.83C217.805 70.3633 219.262 73.302 220.25 76.646C221.263 79.99 221.77 83.5747 221.77 87.4C221.77 91.2 221.263 94.772 220.25 98.116C219.262 101.46 217.805 104.411 215.88 106.97C213.955 109.529 211.586 111.53 208.774 112.974C205.962 114.418 202.77 115.14 199.198 115.14ZM199.198 104.31C200.794 104.31 202.238 103.943 203.53 103.208C204.847 102.473 205.975 101.397 206.912 99.978C207.849 98.534 208.571 96.7607 209.078 94.658C209.585 92.5553 209.838 90.136 209.838 87.4C209.838 83.752 209.395 80.674 208.508 78.166C207.621 75.6327 206.38 73.72 204.784 72.428C203.188 71.1107 201.326 70.452 199.198 70.452C197.602 70.452 196.145 70.832 194.828 71.592C193.511 72.3267 192.383 73.416 191.446 74.86C190.509 76.2787 189.787 78.0393 189.28 80.142C188.799 82.2447 188.558 84.664 188.558 87.4C188.558 91.048 188.989 94.126 189.85 96.634C190.737 99.142 191.978 101.055 193.574 102.372C195.17 103.664 197.045 104.31 199.198 104.31ZM251.225 115.14C247.628 115.14 244.423 114.418 241.611 112.974C238.799 111.53 236.431 109.529 234.505 106.97C232.58 104.411 231.111 101.46 230.097 98.116C229.109 94.772 228.615 91.2 228.615 87.4C228.615 83.5747 229.109 79.99 230.097 76.646C231.111 73.302 232.58 70.3633 234.505 67.83C236.431 65.2713 238.799 63.27 241.611 61.826C244.423 60.382 247.628 59.66 251.225 59.66C254.797 59.66 257.989 60.382 260.801 61.826C263.613 63.27 265.982 65.2713 267.907 67.83C269.833 70.3633 271.289 73.302 272.277 76.646C273.291 79.99 273.797 83.5747 273.797 87.4C273.797 91.2 273.291 94.772 272.277 98.116C271.289 101.46 269.833 104.411 267.907 106.97C265.982 109.529 263.613 111.53 260.801 112.974C257.989 114.418 254.797 115.14 251.225 115.14ZM251.225 104.31C252.821 104.31 254.265 103.943 255.557 103.208C256.875 102.473 258.002 101.397 258.939 99.978C259.877 98.534 260.599 96.7607 261.105 94.658C261.612 92.5553 261.865 90.136 261.865 87.4C261.865 83.752 261.422 80.674 260.535 78.166C259.649 75.6327 258.407 73.72 256.811 72.428C255.215 71.1107 253.353 70.452 251.225 70.452C249.629 70.452 248.173 70.832 246.855 71.592C245.538 72.3267 244.411 73.416 243.473 74.86C242.536 76.2787 241.814 78.0393 241.307 80.142C240.826 82.2447 240.585 84.664 240.585 87.4C240.585 91.048 241.016 94.126 241.877 96.634C242.764 99.142 244.005 101.055 245.601 102.372C247.197 103.664 249.072 104.31 251.225 104.31ZM303.253 115.14C299.655 115.14 296.451 114.418 293.639 112.974C290.827 111.53 288.458 109.529 286.533 106.97C284.607 104.411 283.138 101.46 282.125 98.116C281.137 94.772 280.643 91.2 280.643 87.4C280.643 83.5747 281.137 79.99 282.125 76.646C283.138 73.302 284.607 70.3633 286.533 67.83C288.458 65.2713 290.827 63.27 293.639 61.826C296.451 60.382 299.655 59.66 303.253 59.66C306.825 59.66 310.017 60.382 312.829 61.826C315.641 63.27 318.009 65.2713 319.935 67.83C321.86 70.3633 323.317 73.302 324.305 76.646C325.318 79.99 325.825 83.5747 325.825 87.4C325.825 91.2 325.318 94.772 324.305 98.116C323.317 101.46 321.86 104.411 319.935 106.97C318.009 109.529 315.641 111.53 312.829 112.974C310.017 114.418 306.825 115.14 303.253 115.14ZM303.253 104.31C304.849 104.31 306.293 103.943 307.585 103.208C308.902 102.473 310.029 101.397 310.967 99.978C311.904 98.534 312.626 96.7607 313.133 94.658C313.639 92.5553 313.893 90.136 313.893 87.4C313.893 83.752 313.449 80.674 312.563 78.166C311.676 75.6327 310.435 73.72 308.839 72.428C307.243 71.1107 305.381 70.452 303.253 70.452C301.657 70.452 300.2 70.832 298.883 71.592C297.565 72.3267 296.438 73.416 295.501 74.86C294.563 76.2787 293.841 78.0393 293.335 80.142C292.853 82.2447 292.613 84.664 292.613 87.4C292.613 91.048 293.043 94.126 293.905 96.634C294.791 99.142 296.033 101.055 297.629 102.372C299.225 103.664 301.099 104.31 303.253 104.31Z" fill="white"/>
<path d="M32.431 163.939C32.079 163.939 31.7307 163.895 31.386 163.807C31.0413 163.726 30.693 163.58 30.341 163.367L30.814 161.618C31.0413 161.765 31.287 161.875 31.551 161.948C31.815 162.021 32.0497 162.058 32.255 162.058C32.7977 162.058 33.2193 161.926 33.52 161.662C33.8207 161.398 34.0627 160.995 34.246 160.452L34.675 159.22L30.407 148.22H32.629L35.819 156.91L38.932 148.22H41.077L36.358 160.716C36.0353 161.567 35.676 162.223 35.28 162.685C34.8913 163.154 34.4623 163.481 33.993 163.664C33.5237 163.847 33.003 163.939 32.431 163.939ZM49.9244 159V154.622C49.3964 154.761 48.8978 154.864 48.4284 154.93C47.9591 154.996 47.4604 155.029 46.9324 155.029C45.9424 155.029 45.1211 154.882 44.4684 154.589C43.8158 154.288 43.3281 153.841 43.0054 153.247C42.6901 152.653 42.5324 151.916 42.5324 151.036V148.22H44.5564V150.739C44.5564 151.56 44.7581 152.184 45.1614 152.609C45.5648 153.034 46.2541 153.247 47.2294 153.247C47.7868 153.247 48.2781 153.221 48.7034 153.17C49.1288 153.119 49.5358 153.053 49.9244 152.972V148.22H51.9484V159H49.9244ZM60.0333 159.33C58.9479 159.33 57.9873 159.077 57.1513 158.571C56.3153 158.065 55.6626 157.383 55.1933 156.525C54.7239 155.66 54.4893 154.688 54.4893 153.61C54.4893 152.803 54.6249 152.052 54.8963 151.355C55.1676 150.658 55.5489 150.053 56.0403 149.54C56.5316 149.019 57.1146 148.616 57.7893 148.33C58.4713 148.037 59.2193 147.89 60.0333 147.89C61.1186 147.89 62.0206 148.117 62.7393 148.572C63.4579 149.027 64.0189 149.606 64.4223 150.31L64.1253 150.75V148.22H65.9733V159H64.1253V156.47L64.4223 156.899C64.0189 157.603 63.4579 158.186 62.7393 158.648C62.0206 159.103 61.1186 159.33 60.0333 159.33ZM60.2533 157.504C60.9719 157.504 61.6099 157.346 62.1673 157.031C62.7246 156.708 63.1609 156.257 63.4763 155.678C63.7989 155.091 63.9603 154.402 63.9603 153.61C63.9603 152.811 63.7989 152.121 63.4763 151.542C63.1609 150.955 62.7246 150.504 62.1673 150.189C61.6099 149.874 60.9719 149.716 60.2533 149.716C59.5346 149.716 58.8966 149.874 58.3393 150.189C57.7819 150.504 57.3419 150.955 57.0193 151.542C56.6966 152.121 56.5353 152.811 56.5353 153.61C56.5353 154.402 56.6966 155.091 57.0193 155.678C57.3419 156.257 57.7819 156.708 58.3393 157.031C58.8966 157.346 59.5346 157.504 60.2533 157.504ZM74.3596 159.33C73.2229 159.33 72.2146 159.081 71.3346 158.582C70.4546 158.083 69.7652 157.405 69.2666 156.547C68.7679 155.682 68.5186 154.703 68.5186 153.61C68.5186 152.781 68.6652 152.019 68.9586 151.322C69.2592 150.625 69.6809 150.02 70.2236 149.507C70.7662 148.994 71.4006 148.598 72.1266 148.319C72.8599 148.033 73.6592 147.89 74.5246 147.89C75.2286 147.89 75.8776 147.982 76.4716 148.165C77.0656 148.348 77.6156 148.631 78.1216 149.012L77.0876 150.574C76.7576 150.288 76.3726 150.075 75.9326 149.936C75.4926 149.789 75.0269 149.716 74.5356 149.716C73.7289 149.716 73.0286 149.87 72.4346 150.178C71.8479 150.479 71.3932 150.919 71.0706 151.498C70.7479 152.077 70.5866 152.774 70.5866 153.588C70.5866 154.813 70.9386 155.773 71.6426 156.47C72.3539 157.159 73.3146 157.504 74.5246 157.504C75.0819 157.504 75.6026 157.405 76.0866 157.207C76.5706 157.002 76.9666 156.738 77.2746 156.415L78.3196 157.955C77.7549 158.38 77.1352 158.718 76.4606 158.967C75.7859 159.209 75.0856 159.33 74.3596 159.33ZM83.1659 159V149.936H79.4699V148.22H88.8969V149.936H85.1899V159H83.1659ZM91.1963 159V148.22H93.2203V152.466H99.0613V148.22H101.085V159H99.0613V154.182H93.2203V159H91.1963ZM104.581 159V148.22H106.55V155.964L112.82 148.22H114.558V159H112.589V151.168L106.264 159H104.581ZM125.279 159L121.638 153.247L124.905 148.22H127.083L123.827 153.148L127.721 159H125.279ZM118.052 159V148.22H120.076V152.466H123.299V154.182H120.076V159H118.052ZM134.611 159.33C133.497 159.33 132.503 159.07 131.63 158.549C130.758 158.028 130.072 157.335 129.573 156.47C129.075 155.605 128.825 154.651 128.825 153.61C128.825 152.84 128.968 152.11 129.254 151.421C129.54 150.732 129.944 150.123 130.464 149.595C130.985 149.06 131.597 148.642 132.301 148.341C133.005 148.04 133.775 147.89 134.611 147.89C135.733 147.89 136.731 148.15 137.603 148.671C138.476 149.192 139.162 149.885 139.66 150.75C140.159 151.615 140.408 152.569 140.408 153.61C140.408 154.38 140.265 155.11 139.979 155.799C139.693 156.488 139.29 157.097 138.769 157.625C138.249 158.153 137.636 158.571 136.932 158.879C136.228 159.18 135.455 159.33 134.611 159.33ZM134.611 157.504C135.337 157.504 135.979 157.346 136.536 157.031C137.101 156.708 137.545 156.257 137.867 155.678C138.19 155.091 138.351 154.402 138.351 153.61C138.351 152.811 138.19 152.121 137.867 151.542C137.552 150.955 137.112 150.504 136.547 150.189C135.983 149.874 135.337 149.716 134.611 149.716C133.885 149.716 133.24 149.874 132.675 150.189C132.118 150.504 131.678 150.955 131.355 151.542C131.04 152.121 130.882 152.811 130.882 153.61C130.882 154.402 131.04 155.091 131.355 155.678C131.678 156.257 132.122 156.708 132.686 157.031C133.251 157.346 133.893 157.504 134.611 157.504ZM142.952 159V148.22H147.902C149.105 148.22 150.073 148.455 150.806 148.924C151.547 149.393 151.917 150.09 151.917 151.014C151.917 151.425 151.822 151.795 151.631 152.125C151.44 152.455 151.169 152.737 150.817 152.972C150.465 153.199 150.051 153.368 149.574 153.478L149.541 153.038C150.458 153.185 151.158 153.507 151.642 154.006C152.133 154.497 152.379 155.113 152.379 155.854C152.379 156.507 152.207 157.068 151.862 157.537C151.525 158.006 151.041 158.369 150.41 158.626C149.779 158.875 149.028 159 148.155 159H142.952ZM144.921 157.427H147.88C148.672 157.427 149.284 157.295 149.717 157.031C150.157 156.767 150.377 156.371 150.377 155.843C150.377 155.315 150.161 154.923 149.728 154.666C149.295 154.402 148.679 154.27 147.88 154.27H144.613V152.741H147.627C148.375 152.741 148.954 152.627 149.365 152.4C149.776 152.173 149.981 151.795 149.981 151.267C149.981 150.746 149.776 150.372 149.365 150.145C148.962 149.91 148.382 149.793 147.627 149.793H144.921V157.427ZM165.647 159.33C164.51 159.33 163.502 159.081 162.622 158.582C161.742 158.083 161.052 157.405 160.554 156.547C160.055 155.682 159.806 154.703 159.806 153.61C159.806 152.781 159.952 152.019 160.246 151.322C160.546 150.625 160.968 150.02 161.511 149.507C162.053 148.994 162.688 148.598 163.414 148.319C164.147 148.033 164.946 147.89 165.812 147.89C166.516 147.89 167.165 147.982 167.759 148.165C168.353 148.348 168.903 148.631 169.409 149.012L168.375 150.574C168.045 150.288 167.66 150.075 167.22 149.936C166.78 149.789 166.314 149.716 165.823 149.716C165.016 149.716 164.316 149.87 163.722 150.178C163.135 150.479 162.68 150.919 162.358 151.498C162.035 152.077 161.874 152.774 161.874 153.588C161.874 154.813 162.226 155.773 162.93 156.47C163.641 157.159 164.602 157.504 165.812 157.504C166.369 157.504 166.89 157.405 167.374 157.207C167.858 157.002 168.254 156.738 168.562 156.415L169.607 157.955C169.042 158.38 168.422 158.718 167.748 158.967C167.073 159.209 166.373 159.33 165.647 159.33ZM177.093 159V157.449L180.448 154.358C181.519 153.375 182.388 152.521 183.055 151.795C183.722 151.062 184.214 150.394 184.529 149.793C184.844 149.184 185.002 148.572 185.002 147.956C185.002 147.061 184.69 146.357 184.067 145.844C183.451 145.331 182.597 145.074 181.504 145.074C180.829 145.074 180.177 145.188 179.546 145.415C178.915 145.642 178.387 145.972 177.962 146.405L177.181 144.887C177.782 144.359 178.472 143.959 179.249 143.688C180.034 143.409 180.866 143.27 181.746 143.27C182.78 143.27 183.689 143.457 184.474 143.831C185.259 144.198 185.867 144.722 186.3 145.404C186.74 146.079 186.96 146.874 186.96 147.791C186.96 148.429 186.832 149.071 186.575 149.716C186.318 150.361 185.86 151.087 185.2 151.894C184.547 152.693 183.62 153.654 182.417 154.776L179.777 157.207H187.345V159H177.093ZM196.12 159.33C195.152 159.33 194.279 159.121 193.502 158.703C192.732 158.285 192.076 157.706 191.533 156.965C190.998 156.224 190.587 155.37 190.301 154.402C190.015 153.434 189.872 152.4 189.872 151.3C189.872 150.193 190.015 149.155 190.301 148.187C190.587 147.219 190.998 146.368 191.533 145.635C192.076 144.894 192.732 144.315 193.502 143.897C194.279 143.479 195.152 143.27 196.12 143.27C197.081 143.27 197.946 143.479 198.716 143.897C199.486 144.315 200.142 144.894 200.685 145.635C201.228 146.368 201.642 147.219 201.928 148.187C202.214 149.155 202.357 150.193 202.357 151.3C202.357 152.4 202.214 153.434 201.928 154.402C201.642 155.37 201.228 156.224 200.685 156.965C200.142 157.706 199.486 158.285 198.716 158.703C197.946 159.121 197.081 159.33 196.12 159.33ZM196.12 157.46C196.743 157.46 197.308 157.321 197.814 157.042C198.327 156.756 198.767 156.345 199.134 155.81C199.508 155.275 199.794 154.629 199.992 153.874C200.197 153.111 200.3 152.253 200.3 151.3C200.3 150.031 200.124 148.935 199.772 148.011C199.42 147.087 198.929 146.376 198.298 145.877C197.675 145.378 196.949 145.129 196.12 145.129C195.497 145.129 194.928 145.272 194.415 145.558C193.902 145.844 193.458 146.255 193.084 146.79C192.717 147.325 192.435 147.974 192.237 148.737C192.039 149.492 191.94 150.347 191.94 151.3C191.94 152.569 192.112 153.665 192.457 154.589C192.809 155.513 193.297 156.224 193.92 156.723C194.551 157.214 195.284 157.46 196.12 157.46ZM208.467 159V145.734L204.32 147.274L203.781 145.679L210.249 143.27H210.403V159H208.467ZM214.942 159L221.608 145.47H214.051V143.6H223.907V145.184L217.175 159H214.942ZM232.241 159V148.22H239.226V149.936H234.265V159H232.241ZM246.394 159.33C245.28 159.33 244.286 159.07 243.413 158.549C242.541 158.028 241.855 157.335 241.356 156.47C240.858 155.605 240.608 154.651 240.608 153.61C240.608 152.84 240.751 152.11 241.037 151.421C241.323 150.732 241.727 150.123 242.247 149.595C242.768 149.06 243.38 148.642 244.084 148.341C244.788 148.04 245.558 147.89 246.394 147.89C247.516 147.89 248.514 148.15 249.386 148.671C250.259 149.192 250.945 149.885 251.443 150.75C251.942 151.615 252.191 152.569 252.191 153.61C252.191 154.38 252.048 155.11 251.762 155.799C251.476 156.488 251.073 157.097 250.552 157.625C250.032 158.153 249.419 158.571 248.715 158.879C248.011 159.18 247.238 159.33 246.394 159.33ZM246.394 157.504C247.12 157.504 247.762 157.346 248.319 157.031C248.884 156.708 249.328 156.257 249.65 155.678C249.973 155.091 250.134 154.402 250.134 153.61C250.134 152.811 249.973 152.121 249.65 151.542C249.335 150.955 248.895 150.504 248.33 150.189C247.766 149.874 247.12 149.716 246.394 149.716C245.668 149.716 245.023 149.874 244.458 150.189C243.901 150.504 243.461 150.955 243.138 151.542C242.823 152.121 242.665 152.811 242.665 153.61C242.665 154.402 242.823 155.091 243.138 155.678C243.461 156.257 243.905 156.708 244.469 157.031C245.034 157.346 245.676 157.504 246.394 157.504ZM262.655 159V149.936H257.87V151.597C257.87 152.631 257.815 153.551 257.705 154.358C257.595 155.157 257.401 155.85 257.122 156.437C256.844 157.016 256.451 157.493 255.945 157.867C255.447 158.241 254.805 158.516 254.02 158.692L253.448 157.361C254.16 157.178 254.691 156.859 255.043 156.404C255.403 155.942 255.645 155.319 255.769 154.534C255.894 153.742 255.956 152.763 255.956 151.597V148.22H264.679V159H262.655ZM253.448 162.3V157.361L254.823 157.504L255.131 157.284H266.857V162.3H264.998V159H255.307V162.3H253.448ZM273.502 159.33C272.417 159.33 271.456 159.077 270.62 158.571C269.784 158.065 269.131 157.383 268.662 156.525C268.193 155.66 267.958 154.688 267.958 153.61C267.958 152.803 268.094 152.052 268.365 151.355C268.636 150.658 269.018 150.053 269.509 149.54C270 149.019 270.583 148.616 271.258 148.33C271.94 148.037 272.688 147.89 273.502 147.89C274.587 147.89 275.489 148.117 276.208 148.572C276.927 149.027 277.488 149.606 277.891 150.31L277.594 150.75V148.22H279.442V159H277.594V156.47L277.891 156.899C277.488 157.603 276.927 158.186 276.208 158.648C275.489 159.103 274.587 159.33 273.502 159.33ZM273.722 157.504C274.441 157.504 275.079 157.346 275.636 157.031C276.193 156.708 276.63 156.257 276.945 155.678C277.268 155.091 277.429 154.402 277.429 153.61C277.429 152.811 277.268 152.121 276.945 151.542C276.63 150.955 276.193 150.504 275.636 150.189C275.079 149.874 274.441 149.716 273.722 149.716C273.003 149.716 272.365 149.874 271.808 150.189C271.251 150.504 270.811 150.955 270.488 151.542C270.165 152.121 270.004 152.811 270.004 153.61C270.004 154.402 270.165 155.091 270.488 155.678C270.811 156.257 271.251 156.708 271.808 157.031C272.365 157.346 273.003 157.504 273.722 157.504Z" fill="white"/>
<g filter="url(#filter1_b_190_11)">
<path d="M903.529 28C903.529 12.536 890.993 0 875.529 0H493.529C478.065 0 465.529 12.536 465.529 28V161.459C465.529 168.378 462.968 175.051 458.339 180.193L419.532 223.302C412.001 231.668 417.938 245 429.194 245H875.529C890.993 245 903.529 232.464 903.529 217V28Z" fill="#11488B"/>
<path d="M875.529 0.5H493.529C478.341 0.5 466.029 12.8122 466.029 28V161.46C466.029 168.501 463.422 175.294 458.711 180.527L419.904 223.637C412.663 231.681 418.371 244.5 429.194 244.5H875.529C890.717 244.5 903.029 232.188 903.029 217V28C903.029 12.8122 890.717 0.5 875.529 0.5Z" stroke="#5DF05D"/>
</g>
<path d="M511.618 114V74.442L499.61 78.698L496.304 68.856L522.334 59.66H523.17V114H511.618ZM557.215 114V104.006H531.945V95.038L548.779 60.8H561.205L544.865 93.936H557.215V83.562H567.627V93.936H574.885V104.006H567.627V114H557.215ZM602.78 115.14C599.183 115.14 595.978 114.418 593.166 112.974C590.354 111.53 587.985 109.529 586.06 106.97C584.135 104.411 582.665 101.46 581.652 98.116C580.664 94.772 580.17 91.2 580.17 87.4C580.17 83.5747 580.664 79.99 581.652 76.646C582.665 73.302 584.135 70.3633 586.06 67.83C587.985 65.2713 590.354 63.27 593.166 61.826C595.978 60.382 599.183 59.66 602.78 59.66C606.352 59.66 609.544 60.382 612.356 61.826C615.168 63.27 617.537 65.2713 619.462 67.83C621.387 70.3633 622.844 73.302 623.832 76.646C624.845 79.99 625.352 83.5747 625.352 87.4C625.352 91.2 624.845 94.772 623.832 98.116C622.844 101.46 621.387 104.411 619.462 106.97C617.537 109.529 615.168 111.53 612.356 112.974C609.544 114.418 606.352 115.14 602.78 115.14ZM602.78 104.31C604.376 104.31 605.82 103.943 607.112 103.208C608.429 102.473 609.557 101.397 610.494 99.978C611.431 98.534 612.153 96.7607 612.66 94.658C613.167 92.5553 613.42 90.136 613.42 87.4C613.42 83.752 612.977 80.674 612.09 78.166C611.203 75.6327 609.962 73.72 608.366 72.428C606.77 71.1107 604.908 70.452 602.78 70.452C601.184 70.452 599.727 70.832 598.41 71.592C597.093 72.3267 595.965 73.416 595.028 74.86C594.091 76.2787 593.369 78.0393 592.862 80.142C592.381 82.2447 592.14 84.664 592.14 87.4C592.14 91.048 592.571 94.126 593.432 96.634C594.319 99.142 595.56 101.055 597.156 102.372C598.752 103.664 600.627 104.31 602.78 104.31Z" fill="white"/>
<path d="M497.749 163.62V148.22H499.608V149.837C500.055 149.265 500.616 148.799 501.291 148.44C501.973 148.073 502.831 147.89 503.865 147.89C504.936 147.89 505.878 148.143 506.692 148.649C507.506 149.148 508.14 149.83 508.595 150.695C509.057 151.56 509.288 152.532 509.288 153.61C509.288 154.395 509.156 155.135 508.892 155.832C508.635 156.521 508.265 157.13 507.781 157.658C507.297 158.179 506.721 158.589 506.054 158.89C505.394 159.183 504.657 159.33 503.843 159.33C502.934 159.33 502.138 159.161 501.456 158.824C500.781 158.479 500.217 158.028 499.762 157.471V163.62H497.749ZM503.502 157.504C504.228 157.504 504.87 157.346 505.427 157.031C505.992 156.708 506.432 156.257 506.747 155.678C507.07 155.091 507.231 154.402 507.231 153.61C507.231 152.811 507.07 152.121 506.747 151.542C506.432 150.955 505.992 150.504 505.427 150.189C504.87 149.874 504.228 149.716 503.502 149.716C502.776 149.716 502.131 149.874 501.566 150.189C501.009 150.504 500.569 150.955 500.246 151.542C499.923 152.121 499.762 152.811 499.762 153.61C499.762 154.402 499.923 155.091 500.246 155.678C500.569 156.257 501.009 156.708 501.566 157.031C502.131 157.346 502.776 157.504 503.502 157.504ZM516.516 159.33C515.43 159.33 514.47 159.077 513.634 158.571C512.798 158.065 512.145 157.383 511.676 156.525C511.206 155.66 510.972 154.688 510.972 153.61C510.972 152.803 511.107 152.052 511.379 151.355C511.65 150.658 512.031 150.053 512.523 149.54C513.014 149.019 513.597 148.616 514.272 148.33C514.954 148.037 515.702 147.89 516.516 147.89C517.601 147.89 518.503 148.117 519.222 148.572C519.94 149.027 520.501 149.606 520.905 150.31L520.608 150.75V148.22H522.456V159H520.608V156.47L520.905 156.899C520.501 157.603 519.94 158.186 519.222 158.648C518.503 159.103 517.601 159.33 516.516 159.33ZM516.736 157.504C517.454 157.504 518.092 157.346 518.65 157.031C519.207 156.708 519.643 156.257 519.959 155.678C520.281 155.091 520.443 154.402 520.443 153.61C520.443 152.811 520.281 152.121 519.959 151.542C519.643 150.955 519.207 150.504 518.65 150.189C518.092 149.874 517.454 149.716 516.736 149.716C516.017 149.716 515.379 149.874 514.822 150.189C514.264 150.504 513.824 150.955 513.502 151.542C513.179 152.121 513.018 152.811 513.018 153.61C513.018 154.402 513.179 155.091 513.502 155.678C513.824 156.257 514.264 156.708 514.822 157.031C515.379 157.346 516.017 157.504 516.736 157.504ZM531.15 159.33C530.241 159.33 529.423 159.176 528.697 158.868C527.971 158.56 527.351 158.109 526.838 157.515C526.332 156.921 525.943 156.195 525.672 155.337C525.408 154.479 525.276 153.5 525.276 152.4C525.276 151.197 525.364 150.116 525.54 149.155C525.716 148.194 526.002 147.362 526.398 146.658C526.794 145.947 527.315 145.364 527.96 144.909C528.613 144.447 529.412 144.117 530.358 143.919L535.517 142.83L535.869 144.634L530.853 145.657C529.958 145.855 529.258 146.17 528.752 146.603C528.246 147.028 527.876 147.567 527.641 148.22C527.406 148.873 527.252 149.635 527.179 150.508C527.641 149.826 528.228 149.28 528.939 148.869C529.658 148.451 530.501 148.242 531.469 148.242C532.51 148.242 533.423 148.491 534.208 148.99C535 149.481 535.62 150.141 536.067 150.97C536.514 151.791 536.738 152.701 536.738 153.698C536.738 154.468 536.606 155.194 536.342 155.876C536.078 156.558 535.697 157.159 535.198 157.68C534.699 158.193 534.109 158.597 533.427 158.89C532.745 159.183 531.986 159.33 531.15 159.33ZM531.095 157.504C531.784 157.504 532.4 157.35 532.943 157.042C533.486 156.727 533.911 156.287 534.219 155.722C534.527 155.157 534.681 154.49 534.681 153.72C534.681 152.943 534.527 152.272 534.219 151.707C533.911 151.142 533.486 150.706 532.943 150.398C532.408 150.09 531.792 149.936 531.095 149.936C530.398 149.936 529.779 150.09 529.236 150.398C528.693 150.706 528.268 151.142 527.96 151.707C527.652 152.272 527.498 152.943 527.498 153.72C527.498 154.49 527.652 155.157 527.96 155.722C528.268 156.287 528.693 156.727 529.236 157.042C529.779 157.35 530.398 157.504 531.095 157.504ZM544.322 159.33C543.207 159.33 542.214 159.07 541.341 158.549C540.468 158.028 539.783 157.335 539.284 156.47C538.785 155.605 538.536 154.651 538.536 153.61C538.536 152.84 538.679 152.11 538.965 151.421C539.251 150.732 539.654 150.123 540.175 149.595C540.696 149.06 541.308 148.642 542.012 148.341C542.716 148.04 543.486 147.89 544.322 147.89C545.444 147.89 546.441 148.15 547.314 148.671C548.187 149.192 548.872 149.885 549.371 150.75C549.87 151.615 550.119 152.569 550.119 153.61C550.119 154.38 549.976 155.11 549.69 155.799C549.404 156.488 549.001 157.097 548.48 157.625C547.959 158.153 547.347 158.571 546.643 158.879C545.939 159.18 545.165 159.33 544.322 159.33ZM544.322 157.504C545.048 157.504 545.69 157.346 546.247 157.031C546.812 156.708 547.255 156.257 547.578 155.678C547.901 155.091 548.062 154.402 548.062 153.61C548.062 152.811 547.901 152.121 547.578 151.542C547.263 150.955 546.823 150.504 546.258 150.189C545.693 149.874 545.048 149.716 544.322 149.716C543.596 149.716 542.951 149.874 542.386 150.189C541.829 150.504 541.389 150.955 541.066 151.542C540.751 152.121 540.593 152.811 540.593 153.61C540.593 154.402 540.751 155.091 541.066 155.678C541.389 156.257 541.832 156.708 542.397 157.031C542.962 157.346 543.603 157.504 544.322 157.504ZM555.16 159V149.936H551.464V148.22H560.891V149.936H557.184V159H555.16ZM568.019 159.33C566.905 159.33 565.911 159.07 565.038 158.549C564.166 158.028 563.48 157.335 562.981 156.47C562.483 155.605 562.233 154.651 562.233 153.61C562.233 152.84 562.376 152.11 562.662 151.421C562.948 150.732 563.352 150.123 563.872 149.595C564.393 149.06 565.005 148.642 565.709 148.341C566.413 148.04 567.183 147.89 568.019 147.89C569.141 147.89 570.139 148.15 571.011 148.671C571.884 149.192 572.57 149.885 573.068 150.75C573.567 151.615 573.816 152.569 573.816 153.61C573.816 154.38 573.673 155.11 573.387 155.799C573.101 156.488 572.698 157.097 572.177 157.625C571.657 158.153 571.044 158.571 570.34 158.879C569.636 159.18 568.863 159.33 568.019 159.33ZM568.019 157.504C568.745 157.504 569.387 157.346 569.944 157.031C570.509 156.708 570.953 156.257 571.275 155.678C571.598 155.091 571.759 154.402 571.759 153.61C571.759 152.811 571.598 152.121 571.275 151.542C570.96 150.955 570.52 150.504 569.955 150.189C569.391 149.874 568.745 149.716 568.019 149.716C567.293 149.716 566.648 149.874 566.083 150.189C565.526 150.504 565.086 150.955 564.763 151.542C564.448 152.121 564.29 152.811 564.29 153.61C564.29 154.402 564.448 155.091 564.763 155.678C565.086 156.257 565.53 156.708 566.094 157.031C566.659 157.346 567.301 157.504 568.019 157.504ZM584.28 159V149.936H579.495V151.597C579.495 152.631 579.44 153.551 579.33 154.358C579.22 155.157 579.026 155.85 578.747 156.437C578.469 157.016 578.076 157.493 577.57 157.867C577.072 158.241 576.43 158.516 575.645 158.692L575.073 157.361C575.785 157.178 576.316 156.859 576.668 156.404C577.028 155.942 577.27 155.319 577.394 154.534C577.519 153.742 577.581 152.763 577.581 151.597V148.22H586.304V159H584.28ZM575.073 162.3V157.361L576.448 157.504L576.756 157.284H588.482V162.3H586.623V159H576.932V162.3H575.073ZM595.127 159.33C594.042 159.33 593.081 159.077 592.245 158.571C591.409 158.065 590.756 157.383 590.287 156.525C589.818 155.66 589.583 154.688 589.583 153.61C589.583 152.803 589.719 152.052 589.99 151.355C590.261 150.658 590.643 150.053 591.134 149.54C591.625 149.019 592.208 148.616 592.883 148.33C593.565 148.037 594.313 147.89 595.127 147.89C596.212 147.89 597.114 148.117 597.833 148.572C598.552 149.027 599.113 149.606 599.516 150.31L599.219 150.75V148.22H601.067V159H599.219V156.47L599.516 156.899C599.113 157.603 598.552 158.186 597.833 158.648C597.114 159.103 596.212 159.33 595.127 159.33ZM595.347 157.504C596.066 157.504 596.704 157.346 597.261 157.031C597.818 156.708 598.255 156.257 598.57 155.678C598.893 155.091 599.054 154.402 599.054 153.61C599.054 152.811 598.893 152.121 598.57 151.542C598.255 150.955 597.818 150.504 597.261 150.189C596.704 149.874 596.066 149.716 595.347 149.716C594.628 149.716 593.99 149.874 593.433 150.189C592.876 150.504 592.436 150.955 592.113 151.542C591.79 152.121 591.629 152.811 591.629 153.61C591.629 154.402 591.79 155.091 592.113 155.678C592.436 156.257 592.876 156.708 593.433 157.031C593.99 157.346 594.628 157.504 595.347 157.504ZM607.066 159V149.936H603.37V148.22H612.797V149.936H609.09V159H607.066ZM619.948 159.33C618.804 159.33 617.795 159.092 616.923 158.615C616.05 158.138 615.368 157.475 614.877 156.624C614.385 155.766 614.14 154.769 614.14 153.632C614.14 152.811 614.279 152.048 614.558 151.344C614.844 150.64 615.24 150.031 615.746 149.518C616.259 149.005 616.857 148.605 617.539 148.319C618.228 148.033 618.976 147.89 619.783 147.89C620.655 147.89 621.433 148.044 622.115 148.352C622.804 148.66 623.372 149.093 623.82 149.65C624.274 150.2 624.601 150.849 624.799 151.597C624.997 152.338 625.037 153.144 624.92 154.017H616.142C616.12 154.736 616.266 155.366 616.582 155.909C616.897 156.444 617.352 156.862 617.946 157.163C618.547 157.464 619.258 157.614 620.08 157.614C620.681 157.614 621.268 157.519 621.84 157.328C622.412 157.137 622.918 156.855 623.358 156.481L624.216 157.988C623.864 158.274 623.446 158.52 622.962 158.725C622.485 158.923 621.986 159.073 621.466 159.176C620.945 159.279 620.439 159.33 619.948 159.33ZM616.252 152.444H622.896C622.866 151.535 622.584 150.827 622.049 150.321C621.513 149.808 620.747 149.551 619.75 149.551C618.782 149.551 617.982 149.808 617.352 150.321C616.721 150.827 616.354 151.535 616.252 152.444ZM627.008 159.165L626.26 157.306C627.015 157.115 627.565 156.811 627.91 156.393C628.255 155.968 628.475 155.37 628.57 154.6C628.665 153.83 628.713 152.829 628.713 151.597V148.22H637.216V159H635.192V149.936H630.627V151.597C630.627 152.77 630.576 153.79 630.473 154.655C630.378 155.513 630.198 156.239 629.934 156.833C629.677 157.427 629.311 157.915 628.834 158.296C628.365 158.67 627.756 158.96 627.008 159.165ZM645.557 159.33C644.413 159.33 643.405 159.092 642.532 158.615C641.659 158.138 640.977 157.475 640.486 156.624C639.995 155.766 639.749 154.769 639.749 153.632C639.749 152.811 639.888 152.048 640.167 151.344C640.453 150.64 640.849 150.031 641.355 149.518C641.868 149.005 642.466 148.605 643.148 148.319C643.837 148.033 644.585 147.89 645.392 147.89C646.265 147.89 647.042 148.044 647.724 148.352C648.413 148.66 648.982 149.093 649.429 149.65C649.884 150.2 650.21 150.849 650.408 151.597C650.606 152.338 650.646 153.144 650.529 154.017H641.751C641.729 154.736 641.876 155.366 642.191 155.909C642.506 156.444 642.961 156.862 643.555 157.163C644.156 157.464 644.868 157.614 645.689 157.614C646.29 157.614 646.877 157.519 647.449 157.328C648.021 157.137 648.527 156.855 648.967 156.481L649.825 157.988C649.473 158.274 649.055 158.52 648.571 158.725C648.094 158.923 647.596 159.073 647.075 159.176C646.554 159.279 646.048 159.33 645.557 159.33ZM641.861 152.444H648.505C648.476 151.535 648.193 150.827 647.658 150.321C647.123 149.808 646.356 149.551 645.359 149.551C644.391 149.551 643.592 149.808 642.961 150.321C642.33 150.827 641.964 151.535 641.861 152.444ZM653.145 159V148.22H655.114V155.964L661.384 148.22H663.122V159H661.153V151.168L654.828 159H653.145ZM658.128 146.24C657.344 146.24 656.654 146.071 656.06 145.734C655.466 145.397 655.008 144.938 654.685 144.359C654.363 143.772 654.212 143.101 654.234 142.346H655.961C655.932 143.065 656.115 143.648 656.511 144.095C656.907 144.535 657.446 144.755 658.128 144.755C658.81 144.755 659.346 144.535 659.734 144.095C660.13 143.648 660.31 143.065 660.273 142.346H662.011C662.026 143.094 661.868 143.761 661.538 144.348C661.216 144.935 660.757 145.397 660.163 145.734C659.569 146.071 658.891 146.24 658.128 146.24ZM666.242 153.698V151.938H672.006V153.698H666.242ZM675.124 159V148.22H685.002V159H682.978V149.936H677.148V159H675.124ZM693.096 159.33C692.01 159.33 691.05 159.077 690.214 158.571C689.378 158.065 688.725 157.383 688.256 156.525C687.786 155.66 687.552 154.688 687.552 153.61C687.552 152.803 687.687 152.052 687.959 151.355C688.23 150.658 688.611 150.053 689.103 149.54C689.594 149.019 690.177 148.616 690.852 148.33C691.534 148.037 692.282 147.89 693.096 147.89C694.181 147.89 695.083 148.117 695.802 148.572C696.52 149.027 697.081 149.606 697.485 150.31L697.188 150.75V148.22H699.036V159H697.188V156.47L697.485 156.899C697.081 157.603 696.52 158.186 695.802 158.648C695.083 159.103 694.181 159.33 693.096 159.33ZM693.316 157.504C694.034 157.504 694.672 157.346 695.23 157.031C695.787 156.708 696.223 156.257 696.539 155.678C696.861 155.091 697.023 154.402 697.023 153.61C697.023 152.811 696.861 152.121 696.539 151.542C696.223 150.955 695.787 150.504 695.23 150.189C694.672 149.874 694.034 149.716 693.316 149.716C692.597 149.716 691.959 149.874 691.402 150.189C690.844 150.504 690.404 150.955 690.082 151.542C689.759 152.121 689.598 152.811 689.598 153.61C689.598 154.402 689.759 155.091 690.082 155.678C690.404 156.257 690.844 156.708 691.402 157.031C691.959 157.346 692.597 157.504 693.316 157.504ZM702.538 163.62V148.22H704.397V149.837C704.844 149.265 705.405 148.799 706.08 148.44C706.762 148.073 707.62 147.89 708.654 147.89C709.725 147.89 710.667 148.143 711.481 148.649C712.295 149.148 712.929 149.83 713.384 150.695C713.846 151.56 714.077 152.532 714.077 153.61C714.077 154.395 713.945 155.135 713.681 155.832C713.424 156.521 713.054 157.13 712.57 157.658C712.086 158.179 711.51 158.589 710.843 158.89C710.183 159.183 709.446 159.33 708.632 159.33C707.723 159.33 706.927 159.161 706.245 158.824C705.57 158.479 705.006 158.028 704.551 157.471V163.62H702.538ZM708.291 157.504C709.017 157.504 709.659 157.346 710.216 157.031C710.781 156.708 711.221 156.257 711.536 155.678C711.859 155.091 712.02 154.402 712.02 153.61C712.02 152.811 711.859 152.121 711.536 151.542C711.221 150.955 710.781 150.504 710.216 150.189C709.659 149.874 709.017 149.716 708.291 149.716C707.565 149.716 706.92 149.874 706.355 150.189C705.798 150.504 705.358 150.955 705.035 151.542C704.712 152.121 704.551 152.811 704.551 153.61C704.551 154.402 704.712 155.091 705.035 155.678C705.358 156.257 705.798 156.708 706.355 157.031C706.92 157.346 707.565 157.504 708.291 157.504ZM719.107 159V149.936H715.411V148.22H724.838V149.936H721.131V159H719.107ZM727.138 159V148.22H729.162V152.466H735.003V148.22H737.027V159H735.003V154.182H729.162V159H727.138ZM745.373 159.33C744.229 159.33 743.221 159.092 742.348 158.615C741.476 158.138 740.794 157.475 740.302 156.624C739.811 155.766 739.565 154.769 739.565 153.632C739.565 152.811 739.705 152.048 739.983 151.344C740.269 150.64 740.665 150.031 741.171 149.518C741.685 149.005 742.282 148.605 742.964 148.319C743.654 148.033 744.402 147.89 745.208 147.89C746.081 147.89 746.858 148.044 747.54 148.352C748.23 148.66 748.798 149.093 749.245 149.65C749.7 150.2 750.026 150.849 750.224 151.597C750.422 152.338 750.463 153.144 750.345 154.017H741.567C741.545 154.736 741.692 155.366 742.007 155.909C742.323 156.444 742.777 156.862 743.371 157.163C743.973 157.464 744.684 157.614 745.505 157.614C746.107 157.614 746.693 157.519 747.265 157.328C747.837 157.137 748.343 156.855 748.783 156.481L749.641 157.988C749.289 158.274 748.871 158.52 748.387 158.725C747.911 158.923 747.412 159.073 746.891 159.176C746.371 159.279 745.865 159.33 745.373 159.33ZM741.677 152.444H748.321C748.292 151.535 748.01 150.827 747.474 150.321C746.939 149.808 746.173 149.551 745.175 149.551C744.207 149.551 743.408 149.808 742.777 150.321C742.147 150.827 741.78 151.535 741.677 152.444ZM742.92 146.196C742.561 146.196 742.246 146.071 741.974 145.822C741.703 145.565 741.567 145.243 741.567 144.854C741.567 144.597 741.63 144.37 741.754 144.172C741.879 143.967 742.044 143.809 742.249 143.699C742.455 143.582 742.678 143.523 742.92 143.523C743.287 143.523 743.602 143.648 743.866 143.897C744.138 144.146 744.273 144.465 744.273 144.854C744.273 145.118 744.211 145.353 744.086 145.558C743.962 145.756 743.797 145.914 743.591 146.031C743.386 146.141 743.162 146.196 742.92 146.196ZM747.43 146.196C747.071 146.196 746.756 146.071 746.484 145.822C746.213 145.565 746.077 145.243 746.077 144.854C746.077 144.597 746.14 144.37 746.264 144.172C746.389 143.967 746.554 143.809 746.759 143.699C746.965 143.582 747.188 143.523 747.43 143.523C747.797 143.523 748.112 143.648 748.376 143.897C748.648 144.146 748.783 144.465 748.783 144.854C748.783 145.118 748.721 145.353 748.596 145.558C748.472 145.756 748.307 145.914 748.101 146.031C747.896 146.141 747.672 146.196 747.43 146.196ZM752.962 163.62V148.22H754.821V149.837C755.268 149.265 755.829 148.799 756.504 148.44C757.186 148.073 758.044 147.89 759.078 147.89C760.149 147.89 761.091 148.143 761.905 148.649C762.719 149.148 763.353 149.83 763.808 150.695C764.27 151.56 764.501 152.532 764.501 153.61C764.501 154.395 764.369 155.135 764.105 155.832C763.848 156.521 763.478 157.13 762.994 157.658C762.51 158.179 761.934 158.589 761.267 158.89C760.607 159.183 759.87 159.33 759.056 159.33C758.147 159.33 757.351 159.161 756.669 158.824C755.994 158.479 755.43 158.028 754.975 157.471V163.62H752.962ZM758.715 157.504C759.441 157.504 760.083 157.346 760.64 157.031C761.205 156.708 761.645 156.257 761.96 155.678C762.283 155.091 762.444 154.402 762.444 153.61C762.444 152.811 762.283 152.121 761.96 151.542C761.645 150.955 761.205 150.504 760.64 150.189C760.083 149.874 759.441 149.716 758.715 149.716C757.989 149.716 757.344 149.874 756.779 150.189C756.222 150.504 755.782 150.955 755.459 151.542C755.136 152.121 754.975 152.811 754.975 153.61C754.975 154.402 755.136 155.091 755.459 155.678C755.782 156.257 756.222 156.708 756.779 157.031C757.344 157.346 757.989 157.504 758.715 157.504ZM771.971 159.33C770.856 159.33 769.862 159.07 768.99 158.549C768.117 158.028 767.431 157.335 766.933 156.47C766.434 155.605 766.185 154.651 766.185 153.61C766.185 152.84 766.328 152.11 766.614 151.421C766.9 150.732 767.303 150.123 767.824 149.595C768.344 149.06 768.957 148.642 769.661 148.341C770.365 148.04 771.135 147.89 771.971 147.89C773.093 147.89 774.09 148.15 774.963 148.671C775.835 149.192 776.521 149.885 777.02 150.75C777.518 151.615 777.768 152.569 777.768 153.61C777.768 154.38 777.625 155.11 777.339 155.799C777.053 156.488 776.649 157.097 776.129 157.625C775.608 158.153 774.996 158.571 774.292 158.879C773.588 159.18 772.814 159.33 771.971 159.33ZM771.971 157.504C772.697 157.504 773.338 157.346 773.896 157.031C774.46 156.708 774.904 156.257 775.227 155.678C775.549 155.091 775.711 154.402 775.711 153.61C775.711 152.811 775.549 152.121 775.227 151.542C774.911 150.955 774.471 150.504 773.907 150.189C773.342 149.874 772.697 149.716 771.971 149.716C771.245 149.716 770.599 149.874 770.035 150.189C769.477 150.504 769.037 150.955 768.715 151.542C768.399 152.121 768.242 152.811 768.242 153.61C768.242 154.402 768.399 155.091 768.715 155.678C769.037 156.257 769.481 156.708 770.046 157.031C770.61 157.346 771.252 157.504 771.971 157.504ZM780.312 159V148.22H785.262C786.464 148.22 787.432 148.455 788.166 148.924C788.906 149.393 789.277 150.09 789.277 151.014C789.277 151.425 789.181 151.795 788.991 152.125C788.8 152.455 788.529 152.737 788.177 152.972C787.825 153.199 787.41 153.368 786.934 153.478L786.901 153.038C787.817 153.185 788.518 153.507 789.002 154.006C789.493 154.497 789.739 155.113 789.739 155.854C789.739 156.507 789.566 157.068 789.222 157.537C788.884 158.006 788.4 158.369 787.77 158.626C787.139 158.875 786.387 159 785.515 159H780.312ZM782.281 157.427H785.24C786.032 157.427 786.644 157.295 787.077 157.031C787.517 156.767 787.737 156.371 787.737 155.843C787.737 155.315 787.52 154.923 787.088 154.666C786.655 154.402 786.039 154.27 785.24 154.27H781.973V152.741H784.987C785.735 152.741 786.314 152.627 786.725 152.4C787.135 152.173 787.341 151.795 787.341 151.267C787.341 150.746 787.135 150.372 786.725 150.145C786.321 149.91 785.742 149.793 784.987 149.793H782.281V157.427ZM497.749 185V174.22H499.718V181.964L505.988 174.22H507.726V185H505.757V177.168L499.432 185H497.749ZM527.918 188.3V185H525.949V183.284H529.777V188.3H527.918ZM511.22 185V174.22H513.189V183.284H518.15V174.22H520.119V183.284H525.08V174.22H527.049V185H511.22ZM533.15 189.939C532.798 189.939 532.449 189.895 532.105 189.807C531.76 189.726 531.412 189.58 531.06 189.367L531.533 187.618C531.76 187.765 532.006 187.875 532.27 187.948C532.534 188.021 532.768 188.058 532.974 188.058C533.516 188.058 533.938 187.926 534.239 187.662C534.539 187.398 534.781 186.995 534.965 186.452L535.394 185.22L531.126 174.22H533.348L536.538 182.91L539.651 174.22H541.796L537.077 186.716C536.754 187.567 536.395 188.223 535.999 188.685C535.61 189.154 535.181 189.481 534.712 189.664C534.242 189.847 533.722 189.939 533.15 189.939ZM546.631 185V175.936H542.935V174.22H552.362V175.936H548.655V185H546.631ZM565.045 185.33C563.908 185.33 562.9 185.081 562.02 184.582C561.14 184.083 560.451 183.405 559.952 182.547C559.453 181.682 559.204 180.703 559.204 179.61C559.204 178.781 559.351 178.019 559.644 177.322C559.945 176.625 560.366 176.02 560.909 175.507C561.452 174.994 562.086 174.598 562.812 174.319C563.545 174.033 564.345 173.89 565.21 173.89C565.914 173.89 566.563 173.982 567.157 174.165C567.751 174.348 568.301 174.631 568.807 175.012L567.773 176.574C567.443 176.288 567.058 176.075 566.618 175.936C566.178 175.789 565.712 175.716 565.221 175.716C564.414 175.716 563.714 175.87 563.12 176.178C562.533 176.479 562.079 176.919 561.756 177.498C561.433 178.077 561.272 178.774 561.272 179.588C561.272 180.813 561.624 181.773 562.328 182.47C563.039 183.159 564 183.504 565.21 183.504C565.767 183.504 566.288 183.405 566.772 183.207C567.256 183.002 567.652 182.738 567.96 182.415L569.005 183.955C568.44 184.38 567.821 184.718 567.146 184.967C566.471 185.209 565.771 185.33 565.045 185.33ZM571.354 185V174.22H581.232V185H579.208V175.936H573.378V185H571.354ZM589.59 185.33C588.446 185.33 587.438 185.092 586.565 184.615C585.693 184.138 585.011 183.475 584.519 182.624C584.028 181.766 583.782 180.769 583.782 179.632C583.782 178.811 583.922 178.048 584.2 177.344C584.486 176.64 584.882 176.031 585.388 175.518C585.902 175.005 586.499 174.605 587.181 174.319C587.871 174.033 588.619 173.89 589.425 173.89C590.298 173.89 591.075 174.044 591.757 174.352C592.447 174.66 593.015 175.093 593.462 175.65C593.917 176.2 594.243 176.849 594.441 177.597C594.639 178.338 594.68 179.144 594.562 180.017H585.784C585.762 180.736 585.909 181.366 586.224 181.909C586.54 182.444 586.994 182.862 587.588 183.163C588.19 183.464 588.901 183.614 589.722 183.614C590.324 183.614 590.91 183.519 591.482 183.328C592.054 183.137 592.56 182.855 593 182.481L593.858 183.988C593.506 184.274 593.088 184.52 592.604 184.725C592.128 184.923 591.629 185.073 591.108 185.176C590.588 185.279 590.082 185.33 589.59 185.33ZM585.894 178.444H592.538C592.509 177.535 592.227 176.827 591.691 176.321C591.156 175.808 590.39 175.551 589.392 175.551C588.424 175.551 587.625 175.808 586.994 176.321C586.364 176.827 585.997 177.535 585.894 178.444ZM597.179 185V174.22H599.203V183.284H604.824V174.22H606.848V185H597.179ZM607.717 188.3V185H605.748V183.284H609.576V188.3H607.717ZM611.831 185V174.22H613.8V181.964L620.07 174.22H621.808V185H619.839V177.168L613.514 185H611.831ZM629.889 185.33C628.803 185.33 627.843 185.077 627.007 184.571C626.171 184.065 625.518 183.383 625.049 182.525C624.579 181.66 624.345 180.688 624.345 179.61C624.345 178.803 624.48 178.052 624.752 177.355C625.023 176.658 625.404 176.053 625.896 175.54C626.387 175.019 626.97 174.616 627.645 174.33C628.327 174.037 629.075 173.89 629.889 173.89C630.974 173.89 631.876 174.117 632.595 174.572C633.313 175.027 633.874 175.606 634.278 176.31L633.981 176.75V174.22H635.829V185H633.981V182.47L634.278 182.899C633.874 183.603 633.313 184.186 632.595 184.648C631.876 185.103 630.974 185.33 629.889 185.33ZM630.109 183.504C630.827 183.504 631.465 183.346 632.023 183.031C632.58 182.708 633.016 182.257 633.332 181.678C633.654 181.091 633.816 180.402 633.816 179.61C633.816 178.811 633.654 178.121 633.332 177.542C633.016 176.955 632.58 176.504 632.023 176.189C631.465 175.874 630.827 175.716 630.109 175.716C629.39 175.716 628.752 175.874 628.195 176.189C627.637 176.504 627.197 176.955 626.875 177.542C626.552 178.121 626.391 178.811 626.391 179.61C626.391 180.402 626.552 181.091 626.875 181.678C627.197 182.257 627.637 182.708 628.195 183.031C628.752 183.346 629.39 183.504 630.109 183.504ZM638.803 185.165L638.055 183.306C638.81 183.115 639.36 182.811 639.705 182.393C640.05 181.968 640.27 181.37 640.365 180.6C640.46 179.83 640.508 178.829 640.508 177.597V174.22H649.011V185H646.987V175.936H642.422V177.597C642.422 178.77 642.371 179.79 642.268 180.655C642.173 181.513 641.993 182.239 641.729 182.833C641.472 183.427 641.106 183.915 640.629 184.296C640.16 184.67 639.551 184.96 638.803 185.165ZM652.501 185V174.22H654.47V181.964L660.74 174.22H662.478V185H660.509V177.168L654.184 185H652.501ZM670.856 185.33C669.719 185.33 668.711 185.081 667.831 184.582C666.951 184.083 666.261 183.405 665.763 182.547C665.264 181.682 665.015 180.703 665.015 179.61C665.015 178.781 665.161 178.019 665.455 177.322C665.755 176.625 666.177 176.02 666.72 175.507C667.262 174.994 667.897 174.598 668.623 174.319C669.356 174.033 670.155 173.89 671.021 173.89C671.725 173.89 672.374 173.982 672.968 174.165C673.562 174.348 674.112 174.631 674.618 175.012L673.584 176.574C673.254 176.288 672.869 176.075 672.429 175.936C671.989 175.789 671.523 175.716 671.032 175.716C670.225 175.716 669.525 175.87 668.931 176.178C668.344 176.479 667.889 176.919 667.567 177.498C667.244 178.077 667.083 178.774 667.083 179.588C667.083 180.813 667.435 181.773 668.139 182.47C668.85 183.159 669.811 183.504 671.021 183.504C671.578 183.504 672.099 183.405 672.583 183.207C673.067 183.002 673.463 182.738 673.771 182.415L674.816 183.955C674.251 184.38 673.631 184.718 672.957 184.967C672.282 185.209 671.582 185.33 670.856 185.33ZM679.662 185V175.936H675.966V174.22H685.393V175.936H681.686V185H679.662ZM692.521 185.33C691.407 185.33 690.413 185.07 689.54 184.549C688.668 184.028 687.982 183.335 687.483 182.47C686.985 181.605 686.735 180.651 686.735 179.61C686.735 178.84 686.878 178.11 687.164 177.421C687.45 176.732 687.854 176.123 688.374 175.595C688.895 175.06 689.507 174.642 690.211 174.341C690.915 174.04 691.685 173.89 692.521 173.89C693.643 173.89 694.641 174.15 695.513 174.671C696.386 175.192 697.072 175.885 697.57 176.75C698.069 177.615 698.318 178.569 698.318 179.61C698.318 180.38 698.175 181.11 697.889 181.799C697.603 182.488 697.2 183.097 696.679 183.625C696.159 184.153 695.546 184.571 694.842 184.879C694.138 185.18 693.365 185.33 692.521 185.33ZM692.521 183.504C693.247 183.504 693.889 183.346 694.446 183.031C695.011 182.708 695.455 182.257 695.777 181.678C696.1 181.091 696.261 180.402 696.261 179.61C696.261 178.811 696.1 178.121 695.777 177.542C695.462 176.955 695.022 176.504 694.457 176.189C693.893 175.874 693.247 175.716 692.521 175.716C691.795 175.716 691.15 175.874 690.585 176.189C690.028 176.504 689.588 176.955 689.265 177.542C688.95 178.121 688.792 178.811 688.792 179.61C688.792 180.402 688.95 181.091 689.265 181.678C689.588 182.257 690.032 182.708 690.596 183.031C691.161 183.346 691.803 183.504 692.521 183.504ZM700.862 185V174.22H705.812C707.015 174.22 707.983 174.455 708.716 174.924C709.457 175.393 709.827 176.09 709.827 177.014C709.827 177.425 709.732 177.795 709.541 178.125C709.351 178.455 709.079 178.737 708.727 178.972C708.375 179.199 707.961 179.368 707.484 179.478L707.451 179.038C708.368 179.185 709.068 179.507 709.552 180.006C710.044 180.497 710.289 181.113 710.289 181.854C710.289 182.507 710.117 183.068 709.772 183.537C709.435 184.006 708.951 184.369 708.32 184.626C707.69 184.875 706.938 185 706.065 185H700.862ZM702.831 183.427H705.79C706.582 183.427 707.195 183.295 707.627 183.031C708.067 182.767 708.287 182.371 708.287 181.843C708.287 181.315 708.071 180.923 707.638 180.666C707.206 180.402 706.59 180.27 705.79 180.27H702.523V178.741H705.537C706.285 178.741 706.865 178.627 707.275 178.4C707.686 178.173 707.891 177.795 707.891 177.267C707.891 176.746 707.686 176.372 707.275 176.145C706.872 175.91 706.293 175.793 705.537 175.793H702.831V183.427ZM502.633 211.33C501.496 211.33 500.488 211.081 499.608 210.582C498.728 210.083 498.039 209.405 497.54 208.547C497.041 207.682 496.792 206.703 496.792 205.61C496.792 204.781 496.939 204.019 497.232 203.322C497.533 202.625 497.954 202.02 498.497 201.507C499.04 200.994 499.674 200.598 500.4 200.319C501.133 200.033 501.933 199.89 502.798 199.89C503.502 199.89 504.151 199.982 504.745 200.165C505.339 200.348 505.889 200.631 506.395 201.012L505.361 202.574C505.031 202.288 504.646 202.075 504.206 201.936C503.766 201.789 503.3 201.716 502.809 201.716C502.002 201.716 501.302 201.87 500.708 202.178C500.121 202.479 499.667 202.919 499.344 203.498C499.021 204.077 498.86 204.774 498.86 205.588C498.86 206.813 499.212 207.773 499.916 208.47C500.627 209.159 501.588 209.504 502.798 209.504C503.355 209.504 503.876 209.405 504.36 209.207C504.844 209.002 505.24 208.738 505.548 208.415L506.593 209.955C506.028 210.38 505.409 210.718 504.734 210.967C504.059 211.209 503.359 211.33 502.633 211.33ZM508.942 215.62V200.22H510.801V201.837C511.249 201.265 511.81 200.799 512.484 200.44C513.166 200.073 514.024 199.89 515.058 199.89C516.129 199.89 517.071 200.143 517.885 200.649C518.699 201.148 519.334 201.83 519.788 202.695C520.25 203.56 520.481 204.532 520.481 205.61C520.481 206.395 520.349 207.135 520.085 207.832C519.829 208.521 519.458 209.13 518.974 209.658C518.49 210.179 517.915 210.589 517.247 210.89C516.587 211.183 515.85 211.33 515.036 211.33C514.127 211.33 513.331 211.161 512.649 210.824C511.975 210.479 511.41 210.028 510.955 209.471V215.62H508.942ZM514.695 209.504C515.421 209.504 516.063 209.346 516.62 209.031C517.185 208.708 517.625 208.257 517.94 207.678C518.263 207.091 518.424 206.402 518.424 205.61C518.424 204.811 518.263 204.121 517.94 203.542C517.625 202.955 517.185 202.504 516.62 202.189C516.063 201.874 515.421 201.716 514.695 201.716C513.969 201.716 513.324 201.874 512.759 202.189C512.202 202.504 511.762 202.955 511.439 203.542C511.117 204.121 510.955 204.811 510.955 205.61C510.955 206.402 511.117 207.091 511.439 207.678C511.762 208.257 512.202 208.708 512.759 209.031C513.324 209.346 513.969 209.504 514.695 209.504ZM527.973 211.33C526.829 211.33 525.821 211.092 524.948 210.615C524.075 210.138 523.393 209.475 522.902 208.624C522.411 207.766 522.165 206.769 522.165 205.632C522.165 204.811 522.304 204.048 522.583 203.344C522.869 202.64 523.265 202.031 523.771 201.518C524.284 201.005 524.882 200.605 525.564 200.319C526.253 200.033 527.001 199.89 527.808 199.89C528.681 199.89 529.458 200.044 530.14 200.352C530.829 200.66 531.398 201.093 531.845 201.65C532.3 202.2 532.626 202.849 532.824 203.597C533.022 204.338 533.062 205.144 532.945 206.017H524.167C524.145 206.736 524.292 207.366 524.607 207.909C524.922 208.444 525.377 208.862 525.971 209.163C526.572 209.464 527.284 209.614 528.105 209.614C528.706 209.614 529.293 209.519 529.865 209.328C530.437 209.137 530.943 208.855 531.383 208.481L532.241 209.988C531.889 210.274 531.471 210.52 530.987 210.725C530.51 210.923 530.012 211.073 529.491 211.176C528.97 211.279 528.464 211.33 527.973 211.33ZM524.277 204.444H530.921C530.892 203.535 530.609 202.827 530.074 202.321C529.539 201.808 528.772 201.551 527.775 201.551C526.807 201.551 526.008 201.808 525.377 202.321C524.746 202.827 524.38 203.535 524.277 204.444ZM543.482 211V201.936H538.697V203.597C538.697 204.631 538.642 205.551 538.532 206.358C538.422 207.157 538.227 207.85 537.949 208.437C537.67 209.016 537.278 209.493 536.772 209.867C536.273 210.241 535.631 210.516 534.847 210.692L534.275 209.361C534.986 209.178 535.518 208.859 535.87 208.404C536.229 207.942 536.471 207.319 536.596 206.534C536.72 205.742 536.783 204.763 536.783 203.597V200.22H545.506V211H543.482ZM534.275 214.3V209.361L535.65 209.504L535.958 209.284H547.684V214.3H545.825V211H536.134V214.3H534.275ZM549.935 211V200.22H551.904V207.964L558.174 200.22H559.912V211H557.943V203.168L551.618 211H549.935ZM569.587 215.939C569.235 215.939 568.887 215.895 568.542 215.807C568.198 215.726 567.849 215.58 567.497 215.367L567.97 213.618C568.198 213.765 568.443 213.875 568.707 213.948C568.971 214.021 569.206 214.058 569.411 214.058C569.954 214.058 570.376 213.926 570.676 213.662C570.977 213.398 571.219 212.995 571.402 212.452L571.831 211.22L567.563 200.22H569.785L572.975 208.91L576.088 200.22H578.233L573.514 212.716C573.192 213.567 572.832 214.223 572.436 214.685C572.048 215.154 571.619 215.481 571.149 215.664C570.68 215.847 570.159 215.939 569.587 215.939ZM587.081 211V206.622C586.553 206.761 586.054 206.864 585.585 206.93C585.115 206.996 584.617 207.029 584.089 207.029C583.099 207.029 582.277 206.882 581.625 206.589C580.972 206.288 580.484 205.841 580.162 205.247C579.846 204.653 579.689 203.916 579.689 203.036V200.22H581.713V202.739C581.713 203.56 581.914 204.184 582.318 204.609C582.721 205.034 583.41 205.247 584.386 205.247C584.943 205.247 585.434 205.221 585.86 205.17C586.285 205.119 586.692 205.053 587.081 204.972V200.22H589.105V211H587.081ZM597.19 211.33C596.104 211.33 595.144 211.077 594.308 210.571C593.472 210.065 592.819 209.383 592.35 208.525C591.88 207.66 591.646 206.688 591.646 205.61C591.646 204.803 591.781 204.052 592.053 203.355C592.324 202.658 592.705 202.053 593.197 201.54C593.688 201.019 594.271 200.616 594.946 200.33C595.628 200.037 596.376 199.89 597.19 199.89C598.275 199.89 599.177 200.117 599.896 200.572C600.614 201.027 601.175 201.606 601.579 202.31L601.282 202.75V200.22H603.13V211H601.282V208.47L601.579 208.899C601.175 209.603 600.614 210.186 599.896 210.648C599.177 211.103 598.275 211.33 597.19 211.33ZM597.41 209.504C598.128 209.504 598.766 209.346 599.324 209.031C599.881 208.708 600.317 208.257 600.633 207.678C600.955 207.091 601.117 206.402 601.117 205.61C601.117 204.811 600.955 204.121 600.633 203.542C600.317 202.955 599.881 202.504 599.324 202.189C598.766 201.874 598.128 201.716 597.41 201.716C596.691 201.716 596.053 201.874 595.496 202.189C594.938 202.504 594.498 202.955 594.176 203.542C593.853 204.121 593.692 204.811 593.692 205.61C593.692 206.402 593.853 207.091 594.176 207.678C594.498 208.257 594.938 208.708 595.496 209.031C596.053 209.346 596.691 209.504 597.41 209.504ZM611.516 211.33C610.379 211.33 609.371 211.081 608.491 210.582C607.611 210.083 606.921 209.405 606.423 208.547C605.924 207.682 605.675 206.703 605.675 205.61C605.675 204.781 605.821 204.019 606.115 203.322C606.415 202.625 606.837 202.02 607.38 201.507C607.922 200.994 608.557 200.598 609.283 200.319C610.016 200.033 610.815 199.89 611.681 199.89C612.385 199.89 613.034 199.982 613.628 200.165C614.222 200.348 614.772 200.631 615.278 201.012L614.244 202.574C613.914 202.288 613.529 202.075 613.089 201.936C612.649 201.789 612.183 201.716 611.692 201.716C610.885 201.716 610.185 201.87 609.591 202.178C609.004 202.479 608.549 202.919 608.227 203.498C607.904 204.077 607.743 204.774 607.743 205.588C607.743 206.813 608.095 207.773 608.799 208.47C609.51 209.159 610.471 209.504 611.681 209.504C612.238 209.504 612.759 209.405 613.243 209.207C613.727 209.002 614.123 208.738 614.431 208.415L615.476 209.955C614.911 210.38 614.291 210.718 613.617 210.967C612.942 211.209 612.242 211.33 611.516 211.33ZM620.322 211V201.936H616.626V200.22H626.053V201.936H622.346V211H620.322ZM628.353 211V200.22H630.377V204.466H636.218V200.22H638.242V211H636.218V206.182H630.377V211H628.353ZM641.737 211V200.22H643.706V207.964L649.976 200.22H651.714V211H649.745V203.168L643.42 211H641.737ZM662.435 211L658.794 205.247L662.061 200.22H664.239L660.983 205.148L664.877 211H662.435ZM655.208 211V200.22H657.232V204.466H660.455V206.182H657.232V211H655.208ZM671.767 211.33C670.653 211.33 669.659 211.07 668.786 210.549C667.914 210.028 667.228 209.335 666.729 208.47C666.231 207.605 665.981 206.651 665.981 205.61C665.981 204.84 666.124 204.11 666.41 203.421C666.696 202.732 667.1 202.123 667.62 201.595C668.141 201.06 668.753 200.642 669.457 200.341C670.161 200.04 670.931 199.89 671.767 199.89C672.889 199.89 673.887 200.15 674.759 200.671C675.632 201.192 676.318 201.885 676.816 202.75C677.315 203.615 677.564 204.569 677.564 205.61C677.564 206.38 677.421 207.11 677.135 207.799C676.849 208.488 676.446 209.097 675.925 209.625C675.405 210.153 674.792 210.571 674.088 210.879C673.384 211.18 672.611 211.33 671.767 211.33ZM671.767 209.504C672.493 209.504 673.135 209.346 673.692 209.031C674.257 208.708 674.701 208.257 675.023 207.678C675.346 207.091 675.507 206.402 675.507 205.61C675.507 204.811 675.346 204.121 675.023 203.542C674.708 202.955 674.268 202.504 673.703 202.189C673.139 201.874 672.493 201.716 671.767 201.716C671.041 201.716 670.396 201.874 669.831 202.189C669.274 202.504 668.834 202.955 668.511 203.542C668.196 204.121 668.038 204.811 668.038 205.61C668.038 206.402 668.196 207.091 668.511 207.678C668.834 208.257 669.278 208.708 669.842 209.031C670.407 209.346 671.049 209.504 671.767 209.504ZM680.108 211V200.22H685.058C686.261 200.22 687.229 200.455 687.962 200.924C688.703 201.393 689.073 202.09 689.073 203.014C689.073 203.425 688.978 203.795 688.787 204.125C688.597 204.455 688.325 204.737 687.973 204.972C687.621 205.199 687.207 205.368 686.73 205.478L686.697 205.038C687.614 205.185 688.314 205.507 688.798 206.006C689.29 206.497 689.535 207.113 689.535 207.854C689.535 208.507 689.363 209.068 689.018 209.537C688.681 210.006 688.197 210.369 687.566 210.626C686.936 210.875 686.184 211 685.311 211H680.108ZM682.077 209.427H685.036C685.828 209.427 686.441 209.295 686.873 209.031C687.313 208.767 687.533 208.371 687.533 207.843C687.533 207.315 687.317 206.923 686.884 206.666C686.452 206.402 685.836 206.27 685.036 206.27H681.769V204.741H684.783C685.531 204.741 686.111 204.627 686.521 204.4C686.932 204.173 687.137 203.795 687.137 203.267C687.137 202.746 686.932 202.372 686.521 202.145C686.118 201.91 685.539 201.793 684.783 201.793H682.077V209.427ZM708.424 211V197.503H701.945V200.297C701.945 202.196 701.857 203.784 701.681 205.06C701.512 206.336 701.248 207.37 700.889 208.162C700.53 208.954 700.06 209.563 699.481 209.988C698.902 210.413 698.198 210.725 697.369 210.923L696.621 209.284C697.288 209.13 697.835 208.892 698.26 208.569C698.693 208.246 699.03 207.762 699.272 207.117C699.521 206.472 699.694 205.599 699.789 204.499C699.892 203.399 699.943 201.998 699.943 200.297V195.6H710.492V211H708.424ZM696.621 214.927V209.284L698.183 209.383L699.019 209.097H712.934V214.927H710.987V211H698.568V214.927H696.621ZM725.178 211L718.831 202.816L724.43 195.6H726.96L721.35 202.794L727.851 211H725.178ZM715.619 211V195.6H717.687V201.859H720.525V203.762H717.687V211H715.619ZM734.97 211.33C733.907 211.33 732.873 211.183 731.868 210.89C730.871 210.589 729.987 210.135 729.217 209.526L730.262 207.865C730.937 208.4 731.678 208.789 732.484 209.031C733.298 209.273 734.138 209.394 735.003 209.394C736.177 209.394 737.192 209.159 738.05 208.69C738.916 208.221 739.583 207.524 740.052 206.6C740.522 205.669 740.756 204.514 740.756 203.135C740.756 201.859 740.518 200.777 740.041 199.89C739.565 199.003 738.901 198.328 738.05 197.866C737.2 197.404 736.21 197.173 735.08 197.173C734.215 197.173 733.416 197.29 732.682 197.525C731.956 197.752 731.311 198.097 730.746 198.559L729.734 197.03C730.372 196.48 731.153 196.051 732.077 195.743C733.001 195.428 734.028 195.27 735.157 195.27C736.683 195.27 738.017 195.596 739.161 196.249C740.313 196.902 741.207 197.818 741.845 198.999C742.483 200.18 742.802 201.555 742.802 203.124C742.802 204.378 742.612 205.511 742.23 206.523C741.856 207.535 741.321 208.4 740.624 209.119C739.935 209.83 739.11 210.377 738.149 210.758C737.196 211.139 736.136 211.33 734.97 211.33ZM732.121 203.773V202.057H741.24V203.773H732.121Z" fill="white"/>
<defs>
<filter id="filter0_b_190_11" x="-56" y="-56" width="549" height="357" filterUnits="userSpaceOnUse" color-interpolation-filters="sRGB">
<feFlood flood-opacity="0" result="BackgroundImageFix"/>
<feGaussianBlur in="BackgroundImageFix" stdDeviation="28"/>
<feComposite in2="SourceAlpha" operator="in" result="effect1_backgroundBlur_190_11"/>
<feBlend mode="normal" in="SourceGraphic" in2="effect1_backgroundBlur_190_11" result="shape"/>
</filter>
<filter id="filter1_b_190_11" x="360.168" y="-56" width="599.361" height="357" filterUnits="userSpaceOnUse" color-interpolation-filters="sRGB">
<feFlood flood-opacity="0" result="BackgroundImageFix"/>
<feGaussianBlur in="BackgroundImageFix" stdDeviation="28"/>
<feComposite in2="SourceAlpha" operator="in" result="effect1_backgroundBlur_190_11"/>
<feBlend mode="normal" in="SourceGraphic" in2="effect1_backgroundBlur_190_11" result="shape"/>
</filter>
</defs>
</svg>
