<svg width="795" height="245" viewBox="0 0 795 245" fill="none" xmlns="http://www.w3.org/2000/svg">
<g filter="url(#filter0_b_178_78)">
<path d="M0 28C0 12.536 12.536 0 28 0H359C374.464 0 387 12.536 387 28V160.202C387 167.867 383.857 175.197 378.305 180.482L318.639 237.281C313.433 242.236 306.521 245 299.333 245H28C12.5361 245 0 232.464 0 217V28Z" fill="#11488B"/>
<path d="M28 0.5H359C374.188 0.5 386.5 12.8122 386.5 28V160.202C386.5 167.73 383.414 174.93 377.961 180.12L318.294 236.918C313.181 241.785 306.392 244.5 299.333 244.5H28C12.8122 244.5 0.5 232.188 0.5 217V28C0.5 12.8122 12.8122 0.5 28 0.5Z" stroke="#5DF05D"/>
</g>
<path d="M45.618 114V74.442L33.61 78.698L30.304 68.856L56.334 59.66H57.17V114H45.618ZM68.681 114V105.716L80.005 95.57C83.501 92.4287 86.237 89.8193 88.213 87.742C90.189 85.6647 91.5824 83.8407 92.393 82.27C93.2037 80.6993 93.609 79.116 93.609 77.52C93.609 75.164 92.8237 73.3527 91.253 72.086C89.7077 70.8193 87.491 70.186 84.603 70.186C82.2977 70.186 80.081 70.642 77.953 71.554C75.825 72.466 73.9124 73.8087 72.215 75.582L67.921 66.424C70.3277 64.2707 73.1017 62.6113 76.243 61.446C79.3844 60.2553 82.589 59.66 85.857 59.66C89.7837 59.66 93.2037 60.344 96.117 61.712C99.0304 63.08 101.272 64.9927 102.843 67.45C104.439 69.882 105.237 72.7193 105.237 75.962C105.237 78.1407 104.806 80.2687 103.945 82.346C103.084 84.4233 101.564 86.7667 99.385 89.376C97.2317 91.96 94.1917 95.1013 90.265 98.8L85.059 103.664H106.643V114H68.681ZM114.029 114V105.716L125.353 95.57C128.849 92.4287 131.585 89.8193 133.561 87.742C135.537 85.6647 136.93 83.8407 137.741 82.27C138.551 80.6993 138.957 79.116 138.957 77.52C138.957 75.164 138.171 73.3527 136.601 72.086C135.055 70.8193 132.839 70.186 129.951 70.186C127.645 70.186 125.429 70.642 123.301 71.554C121.173 72.466 119.26 73.8087 117.563 75.582L113.269 66.424C115.675 64.2707 118.449 62.6113 121.591 61.446C124.732 60.2553 127.937 59.66 131.205 59.66C135.131 59.66 138.551 60.344 141.465 61.712C144.378 63.08 146.62 64.9927 148.191 67.45C149.787 69.882 150.585 72.7193 150.585 75.962C150.585 78.1407 150.154 80.2687 149.293 82.346C148.431 84.4233 146.911 86.7667 144.733 89.376C142.579 91.96 139.539 95.1013 135.613 98.8L130.407 103.664H151.991V114H114.029ZM199.198 115.14C195.601 115.14 192.396 114.418 189.584 112.974C186.772 111.53 184.403 109.529 182.478 106.97C180.553 104.411 179.083 101.46 178.07 98.116C177.082 94.772 176.588 91.2 176.588 87.4C176.588 83.5747 177.082 79.99 178.07 76.646C179.083 73.302 180.553 70.3633 182.478 67.83C184.403 65.2713 186.772 63.27 189.584 61.826C192.396 60.382 195.601 59.66 199.198 59.66C202.77 59.66 205.962 60.382 208.774 61.826C211.586 63.27 213.955 65.2713 215.88 67.83C217.805 70.3633 219.262 73.302 220.25 76.646C221.263 79.99 221.77 83.5747 221.77 87.4C221.77 91.2 221.263 94.772 220.25 98.116C219.262 101.46 217.805 104.411 215.88 106.97C213.955 109.529 211.586 111.53 208.774 112.974C205.962 114.418 202.77 115.14 199.198 115.14ZM199.198 104.31C200.794 104.31 202.238 103.943 203.53 103.208C204.847 102.473 205.975 101.397 206.912 99.978C207.849 98.534 208.571 96.7607 209.078 94.658C209.585 92.5553 209.838 90.136 209.838 87.4C209.838 83.752 209.395 80.674 208.508 78.166C207.621 75.6327 206.38 73.72 204.784 72.428C203.188 71.1107 201.326 70.452 199.198 70.452C197.602 70.452 196.145 70.832 194.828 71.592C193.511 72.3267 192.383 73.416 191.446 74.86C190.509 76.2787 189.787 78.0393 189.28 80.142C188.799 82.2447 188.558 84.664 188.558 87.4C188.558 91.048 188.989 94.126 189.85 96.634C190.737 99.142 191.978 101.055 193.574 102.372C195.17 103.664 197.045 104.31 199.198 104.31ZM251.225 115.14C247.628 115.14 244.423 114.418 241.611 112.974C238.799 111.53 236.431 109.529 234.505 106.97C232.58 104.411 231.111 101.46 230.097 98.116C229.109 94.772 228.615 91.2 228.615 87.4C228.615 83.5747 229.109 79.99 230.097 76.646C231.111 73.302 232.58 70.3633 234.505 67.83C236.431 65.2713 238.799 63.27 241.611 61.826C244.423 60.382 247.628 59.66 251.225 59.66C254.797 59.66 257.989 60.382 260.801 61.826C263.613 63.27 265.982 65.2713 267.907 67.83C269.833 70.3633 271.289 73.302 272.277 76.646C273.291 79.99 273.797 83.5747 273.797 87.4C273.797 91.2 273.291 94.772 272.277 98.116C271.289 101.46 269.833 104.411 267.907 106.97C265.982 109.529 263.613 111.53 260.801 112.974C257.989 114.418 254.797 115.14 251.225 115.14ZM251.225 104.31C252.821 104.31 254.265 103.943 255.557 103.208C256.875 102.473 258.002 101.397 258.939 99.978C259.877 98.534 260.599 96.7607 261.105 94.658C261.612 92.5553 261.865 90.136 261.865 87.4C261.865 83.752 261.422 80.674 260.535 78.166C259.649 75.6327 258.407 73.72 256.811 72.428C255.215 71.1107 253.353 70.452 251.225 70.452C249.629 70.452 248.173 70.832 246.855 71.592C245.538 72.3267 244.411 73.416 243.473 74.86C242.536 76.2787 241.814 78.0393 241.307 80.142C240.826 82.2447 240.585 84.664 240.585 87.4C240.585 91.048 241.016 94.126 241.877 96.634C242.764 99.142 244.005 101.055 245.601 102.372C247.197 103.664 249.072 104.31 251.225 104.31ZM303.253 115.14C299.655 115.14 296.451 114.418 293.639 112.974C290.827 111.53 288.458 109.529 286.533 106.97C284.607 104.411 283.138 101.46 282.125 98.116C281.137 94.772 280.643 91.2 280.643 87.4C280.643 83.5747 281.137 79.99 282.125 76.646C283.138 73.302 284.607 70.3633 286.533 67.83C288.458 65.2713 290.827 63.27 293.639 61.826C296.451 60.382 299.655 59.66 303.253 59.66C306.825 59.66 310.017 60.382 312.829 61.826C315.641 63.27 318.009 65.2713 319.935 67.83C321.86 70.3633 323.317 73.302 324.305 76.646C325.318 79.99 325.825 83.5747 325.825 87.4C325.825 91.2 325.318 94.772 324.305 98.116C323.317 101.46 321.86 104.411 319.935 106.97C318.009 109.529 315.641 111.53 312.829 112.974C310.017 114.418 306.825 115.14 303.253 115.14ZM303.253 104.31C304.849 104.31 306.293 103.943 307.585 103.208C308.902 102.473 310.029 101.397 310.967 99.978C311.904 98.534 312.626 96.7607 313.133 94.658C313.639 92.5553 313.893 90.136 313.893 87.4C313.893 83.752 313.449 80.674 312.563 78.166C311.676 75.6327 310.435 73.72 308.839 72.428C307.243 71.1107 305.381 70.452 303.253 70.452C301.657 70.452 300.2 70.832 298.883 71.592C297.565 72.3267 296.438 73.416 295.501 74.86C294.563 76.2787 293.841 78.0393 293.335 80.142C292.853 82.2447 292.613 84.664 292.613 87.4C292.613 91.048 293.043 94.126 293.905 96.634C294.791 99.142 296.033 101.055 297.629 102.372C299.225 103.664 301.099 104.31 303.253 104.31Z" fill="white"/>
<path d="M32.431 163.939C32.079 163.939 31.7307 163.895 31.386 163.807C31.0413 163.726 30.693 163.58 30.341 163.367L30.814 161.618C31.0413 161.765 31.287 161.875 31.551 161.948C31.815 162.021 32.0497 162.058 32.255 162.058C32.7977 162.058 33.2193 161.926 33.52 161.662C33.8207 161.398 34.0627 160.995 34.246 160.452L34.675 159.22L30.407 148.22H32.629L35.819 156.91L38.932 148.22H41.077L36.358 160.716C36.0353 161.567 35.676 162.223 35.28 162.685C34.8913 163.154 34.4623 163.481 33.993 163.664C33.5237 163.847 33.003 163.939 32.431 163.939ZM49.9244 159V154.622C49.3964 154.761 48.8978 154.864 48.4284 154.93C47.9591 154.996 47.4604 155.029 46.9324 155.029C45.9424 155.029 45.1211 154.882 44.4684 154.589C43.8158 154.288 43.3281 153.841 43.0054 153.247C42.6901 152.653 42.5324 151.916 42.5324 151.036V148.22H44.5564V150.739C44.5564 151.56 44.7581 152.184 45.1614 152.609C45.5648 153.034 46.2541 153.247 47.2294 153.247C47.7868 153.247 48.2781 153.221 48.7034 153.17C49.1288 153.119 49.5358 153.053 49.9244 152.972V148.22H51.9484V159H49.9244ZM60.0333 159.33C58.9479 159.33 57.9873 159.077 57.1513 158.571C56.3153 158.065 55.6626 157.383 55.1933 156.525C54.7239 155.66 54.4893 154.688 54.4893 153.61C54.4893 152.803 54.6249 152.052 54.8963 151.355C55.1676 150.658 55.5489 150.053 56.0403 149.54C56.5316 149.019 57.1146 148.616 57.7893 148.33C58.4713 148.037 59.2193 147.89 60.0333 147.89C61.1186 147.89 62.0206 148.117 62.7393 148.572C63.4579 149.027 64.0189 149.606 64.4223 150.31L64.1253 150.75V148.22H65.9733V159H64.1253V156.47L64.4223 156.899C64.0189 157.603 63.4579 158.186 62.7393 158.648C62.0206 159.103 61.1186 159.33 60.0333 159.33ZM60.2533 157.504C60.9719 157.504 61.6099 157.346 62.1673 157.031C62.7246 156.708 63.1609 156.257 63.4763 155.678C63.7989 155.091 63.9603 154.402 63.9603 153.61C63.9603 152.811 63.7989 152.121 63.4763 151.542C63.1609 150.955 62.7246 150.504 62.1673 150.189C61.6099 149.874 60.9719 149.716 60.2533 149.716C59.5346 149.716 58.8966 149.874 58.3393 150.189C57.7819 150.504 57.3419 150.955 57.0193 151.542C56.6966 152.121 56.5353 152.811 56.5353 153.61C56.5353 154.402 56.6966 155.091 57.0193 155.678C57.3419 156.257 57.7819 156.708 58.3393 157.031C58.8966 157.346 59.5346 157.504 60.2533 157.504ZM74.3596 159.33C73.2229 159.33 72.2146 159.081 71.3346 158.582C70.4546 158.083 69.7652 157.405 69.2666 156.547C68.7679 155.682 68.5186 154.703 68.5186 153.61C68.5186 152.781 68.6652 152.019 68.9586 151.322C69.2592 150.625 69.6809 150.02 70.2236 149.507C70.7662 148.994 71.4006 148.598 72.1266 148.319C72.8599 148.033 73.6592 147.89 74.5246 147.89C75.2286 147.89 75.8776 147.982 76.4716 148.165C77.0656 148.348 77.6156 148.631 78.1216 149.012L77.0876 150.574C76.7576 150.288 76.3726 150.075 75.9326 149.936C75.4926 149.789 75.0269 149.716 74.5356 149.716C73.7289 149.716 73.0286 149.87 72.4346 150.178C71.8479 150.479 71.3932 150.919 71.0706 151.498C70.7479 152.077 70.5866 152.774 70.5866 153.588C70.5866 154.813 70.9386 155.773 71.6426 156.47C72.3539 157.159 73.3146 157.504 74.5246 157.504C75.0819 157.504 75.6026 157.405 76.0866 157.207C76.5706 157.002 76.9666 156.738 77.2746 156.415L78.3196 157.955C77.7549 158.38 77.1352 158.718 76.4606 158.967C75.7859 159.209 75.0856 159.33 74.3596 159.33ZM83.1659 159V149.936H79.4699V148.22H88.8969V149.936H85.1899V159H83.1659ZM91.1963 159V148.22H93.2203V152.466H99.0613V148.22H101.085V159H99.0613V154.182H93.2203V159H91.1963ZM104.581 159V148.22H106.55V155.964L112.82 148.22H114.558V159H112.589V151.168L106.264 159H104.581ZM125.279 159L121.638 153.247L124.905 148.22H127.083L123.827 153.148L127.721 159H125.279ZM118.052 159V148.22H120.076V152.466H123.299V154.182H120.076V159H118.052ZM134.611 159.33C133.497 159.33 132.503 159.07 131.63 158.549C130.758 158.028 130.072 157.335 129.573 156.47C129.075 155.605 128.825 154.651 128.825 153.61C128.825 152.84 128.968 152.11 129.254 151.421C129.54 150.732 129.944 150.123 130.464 149.595C130.985 149.06 131.597 148.642 132.301 148.341C133.005 148.04 133.775 147.89 134.611 147.89C135.733 147.89 136.731 148.15 137.603 148.671C138.476 149.192 139.162 149.885 139.66 150.75C140.159 151.615 140.408 152.569 140.408 153.61C140.408 154.38 140.265 155.11 139.979 155.799C139.693 156.488 139.29 157.097 138.769 157.625C138.249 158.153 137.636 158.571 136.932 158.879C136.228 159.18 135.455 159.33 134.611 159.33ZM134.611 157.504C135.337 157.504 135.979 157.346 136.536 157.031C137.101 156.708 137.545 156.257 137.867 155.678C138.19 155.091 138.351 154.402 138.351 153.61C138.351 152.811 138.19 152.121 137.867 151.542C137.552 150.955 137.112 150.504 136.547 150.189C135.983 149.874 135.337 149.716 134.611 149.716C133.885 149.716 133.24 149.874 132.675 150.189C132.118 150.504 131.678 150.955 131.355 151.542C131.04 152.121 130.882 152.811 130.882 153.61C130.882 154.402 131.04 155.091 131.355 155.678C131.678 156.257 132.122 156.708 132.686 157.031C133.251 157.346 133.893 157.504 134.611 157.504ZM142.952 159V148.22H147.902C149.105 148.22 150.073 148.455 150.806 148.924C151.547 149.393 151.917 150.09 151.917 151.014C151.917 151.425 151.822 151.795 151.631 152.125C151.44 152.455 151.169 152.737 150.817 152.972C150.465 153.199 150.051 153.368 149.574 153.478L149.541 153.038C150.458 153.185 151.158 153.507 151.642 154.006C152.133 154.497 152.379 155.113 152.379 155.854C152.379 156.507 152.207 157.068 151.862 157.537C151.525 158.006 151.041 158.369 150.41 158.626C149.779 158.875 149.028 159 148.155 159H142.952ZM144.921 157.427H147.88C148.672 157.427 149.284 157.295 149.717 157.031C150.157 156.767 150.377 156.371 150.377 155.843C150.377 155.315 150.161 154.923 149.728 154.666C149.295 154.402 148.679 154.27 147.88 154.27H144.613V152.741H147.627C148.375 152.741 148.954 152.627 149.365 152.4C149.776 152.173 149.981 151.795 149.981 151.267C149.981 150.746 149.776 150.372 149.365 150.145C148.962 149.91 148.382 149.793 147.627 149.793H144.921V157.427ZM165.647 159.33C164.51 159.33 163.502 159.081 162.622 158.582C161.742 158.083 161.052 157.405 160.554 156.547C160.055 155.682 159.806 154.703 159.806 153.61C159.806 152.781 159.952 152.019 160.246 151.322C160.546 150.625 160.968 150.02 161.511 149.507C162.053 148.994 162.688 148.598 163.414 148.319C164.147 148.033 164.946 147.89 165.812 147.89C166.516 147.89 167.165 147.982 167.759 148.165C168.353 148.348 168.903 148.631 169.409 149.012L168.375 150.574C168.045 150.288 167.66 150.075 167.22 149.936C166.78 149.789 166.314 149.716 165.823 149.716C165.016 149.716 164.316 149.87 163.722 150.178C163.135 150.479 162.68 150.919 162.358 151.498C162.035 152.077 161.874 152.774 161.874 153.588C161.874 154.813 162.226 155.773 162.93 156.47C163.641 157.159 164.602 157.504 165.812 157.504C166.369 157.504 166.89 157.405 167.374 157.207C167.858 157.002 168.254 156.738 168.562 156.415L169.607 157.955C169.042 158.38 168.422 158.718 167.748 158.967C167.073 159.209 166.373 159.33 165.647 159.33ZM177.093 159V157.449L180.448 154.358C181.519 153.375 182.388 152.521 183.055 151.795C183.722 151.062 184.214 150.394 184.529 149.793C184.844 149.184 185.002 148.572 185.002 147.956C185.002 147.061 184.69 146.357 184.067 145.844C183.451 145.331 182.597 145.074 181.504 145.074C180.829 145.074 180.177 145.188 179.546 145.415C178.915 145.642 178.387 145.972 177.962 146.405L177.181 144.887C177.782 144.359 178.472 143.959 179.249 143.688C180.034 143.409 180.866 143.27 181.746 143.27C182.78 143.27 183.689 143.457 184.474 143.831C185.259 144.198 185.867 144.722 186.3 145.404C186.74 146.079 186.96 146.874 186.96 147.791C186.96 148.429 186.832 149.071 186.575 149.716C186.318 150.361 185.86 151.087 185.2 151.894C184.547 152.693 183.62 153.654 182.417 154.776L179.777 157.207H187.345V159H177.093ZM196.12 159.33C195.152 159.33 194.279 159.121 193.502 158.703C192.732 158.285 192.076 157.706 191.533 156.965C190.998 156.224 190.587 155.37 190.301 154.402C190.015 153.434 189.872 152.4 189.872 151.3C189.872 150.193 190.015 149.155 190.301 148.187C190.587 147.219 190.998 146.368 191.533 145.635C192.076 144.894 192.732 144.315 193.502 143.897C194.279 143.479 195.152 143.27 196.12 143.27C197.081 143.27 197.946 143.479 198.716 143.897C199.486 144.315 200.142 144.894 200.685 145.635C201.228 146.368 201.642 147.219 201.928 148.187C202.214 149.155 202.357 150.193 202.357 151.3C202.357 152.4 202.214 153.434 201.928 154.402C201.642 155.37 201.228 156.224 200.685 156.965C200.142 157.706 199.486 158.285 198.716 158.703C197.946 159.121 197.081 159.33 196.12 159.33ZM196.12 157.46C196.743 157.46 197.308 157.321 197.814 157.042C198.327 156.756 198.767 156.345 199.134 155.81C199.508 155.275 199.794 154.629 199.992 153.874C200.197 153.111 200.3 152.253 200.3 151.3C200.3 150.031 200.124 148.935 199.772 148.011C199.42 147.087 198.929 146.376 198.298 145.877C197.675 145.378 196.949 145.129 196.12 145.129C195.497 145.129 194.928 145.272 194.415 145.558C193.902 145.844 193.458 146.255 193.084 146.79C192.717 147.325 192.435 147.974 192.237 148.737C192.039 149.492 191.94 150.347 191.94 151.3C191.94 152.569 192.112 153.665 192.457 154.589C192.809 155.513 193.297 156.224 193.92 156.723C194.551 157.214 195.284 157.46 196.12 157.46ZM208.467 159V145.734L204.32 147.274L203.781 145.679L210.249 143.27H210.403V159H208.467ZM214.942 159L221.608 145.47H214.051V143.6H223.907V145.184L217.175 159H214.942ZM232.241 159V148.22H239.226V149.936H234.265V159H232.241ZM246.394 159.33C245.28 159.33 244.286 159.07 243.413 158.549C242.541 158.028 241.855 157.335 241.356 156.47C240.858 155.605 240.608 154.651 240.608 153.61C240.608 152.84 240.751 152.11 241.037 151.421C241.323 150.732 241.727 150.123 242.247 149.595C242.768 149.06 243.38 148.642 244.084 148.341C244.788 148.04 245.558 147.89 246.394 147.89C247.516 147.89 248.514 148.15 249.386 148.671C250.259 149.192 250.945 149.885 251.443 150.75C251.942 151.615 252.191 152.569 252.191 153.61C252.191 154.38 252.048 155.11 251.762 155.799C251.476 156.488 251.073 157.097 250.552 157.625C250.032 158.153 249.419 158.571 248.715 158.879C248.011 159.18 247.238 159.33 246.394 159.33ZM246.394 157.504C247.12 157.504 247.762 157.346 248.319 157.031C248.884 156.708 249.328 156.257 249.65 155.678C249.973 155.091 250.134 154.402 250.134 153.61C250.134 152.811 249.973 152.121 249.65 151.542C249.335 150.955 248.895 150.504 248.33 150.189C247.766 149.874 247.12 149.716 246.394 149.716C245.668 149.716 245.023 149.874 244.458 150.189C243.901 150.504 243.461 150.955 243.138 151.542C242.823 152.121 242.665 152.811 242.665 153.61C242.665 154.402 242.823 155.091 243.138 155.678C243.461 156.257 243.905 156.708 244.469 157.031C245.034 157.346 245.676 157.504 246.394 157.504ZM262.655 159V149.936H257.87V151.597C257.87 152.631 257.815 153.551 257.705 154.358C257.595 155.157 257.401 155.85 257.122 156.437C256.844 157.016 256.451 157.493 255.945 157.867C255.447 158.241 254.805 158.516 254.02 158.692L253.448 157.361C254.16 157.178 254.691 156.859 255.043 156.404C255.403 155.942 255.645 155.319 255.769 154.534C255.894 153.742 255.956 152.763 255.956 151.597V148.22H264.679V159H262.655ZM253.448 162.3V157.361L254.823 157.504L255.131 157.284H266.857V162.3H264.998V159H255.307V162.3H253.448ZM273.502 159.33C272.417 159.33 271.456 159.077 270.62 158.571C269.784 158.065 269.131 157.383 268.662 156.525C268.193 155.66 267.958 154.688 267.958 153.61C267.958 152.803 268.094 152.052 268.365 151.355C268.636 150.658 269.018 150.053 269.509 149.54C270 149.019 270.583 148.616 271.258 148.33C271.94 148.037 272.688 147.89 273.502 147.89C274.587 147.89 275.489 148.117 276.208 148.572C276.927 149.027 277.488 149.606 277.891 150.31L277.594 150.75V148.22H279.442V159H277.594V156.47L277.891 156.899C277.488 157.603 276.927 158.186 276.208 158.648C275.489 159.103 274.587 159.33 273.502 159.33ZM273.722 157.504C274.441 157.504 275.079 157.346 275.636 157.031C276.193 156.708 276.63 156.257 276.945 155.678C277.268 155.091 277.429 154.402 277.429 153.61C277.429 152.811 277.268 152.121 276.945 151.542C276.63 150.955 276.193 150.504 275.636 150.189C275.079 149.874 274.441 149.716 273.722 149.716C273.003 149.716 272.365 149.874 271.808 150.189C271.251 150.504 270.811 150.955 270.488 151.542C270.165 152.121 270.004 152.811 270.004 153.61C270.004 154.402 270.165 155.091 270.488 155.678C270.811 156.257 271.251 156.708 271.808 157.031C272.365 157.346 273.003 157.504 273.722 157.504Z" fill="white"/>
<g filter="url(#filter1_b_178_78)">
<path d="M794.529 28C794.529 12.536 781.993 0 766.529 0H434.529C419.065 0 406.529 12.536 406.529 28V161.459C406.529 168.378 403.968 175.051 399.339 180.193L360.532 223.302C353.001 231.668 358.938 245 370.194 245H766.529C781.993 245 794.529 232.464 794.529 217V28Z" fill="#11488B"/>
<path d="M766.529 0.5H434.529C419.341 0.5 407.029 12.8122 407.029 28V161.46C407.029 168.501 404.422 175.294 399.711 180.527L360.904 223.637C353.663 231.681 359.371 244.5 370.194 244.5H766.529C781.717 244.5 794.029 232.188 794.029 217V28C794.029 12.8122 781.717 0.5 766.529 0.5Z" stroke="#5DF05D"/>
</g>
<path d="M452.618 114V74.442L440.61 78.698L437.304 68.856L463.334 59.66H464.17V114H452.618ZM498.215 114V104.006H472.945V95.038L489.779 60.8H502.205L485.865 93.936H498.215V83.562H508.627V93.936H515.885V104.006H508.627V114H498.215ZM543.78 115.14C540.183 115.14 536.978 114.418 534.166 112.974C531.354 111.53 528.985 109.529 527.06 106.97C525.135 104.411 523.665 101.46 522.652 98.116C521.664 94.772 521.17 91.2 521.17 87.4C521.17 83.5747 521.664 79.99 522.652 76.646C523.665 73.302 525.135 70.3633 527.06 67.83C528.985 65.2713 531.354 63.27 534.166 61.826C536.978 60.382 540.183 59.66 543.78 59.66C547.352 59.66 550.544 60.382 553.356 61.826C556.168 63.27 558.537 65.2713 560.462 67.83C562.387 70.3633 563.844 73.302 564.832 76.646C565.845 79.99 566.352 83.5747 566.352 87.4C566.352 91.2 565.845 94.772 564.832 98.116C563.844 101.46 562.387 104.411 560.462 106.97C558.537 109.529 556.168 111.53 553.356 112.974C550.544 114.418 547.352 115.14 543.78 115.14ZM543.78 104.31C545.376 104.31 546.82 103.943 548.112 103.208C549.429 102.473 550.557 101.397 551.494 99.978C552.431 98.534 553.153 96.7607 553.66 94.658C554.167 92.5553 554.42 90.136 554.42 87.4C554.42 83.752 553.977 80.674 553.09 78.166C552.203 75.6327 550.962 73.72 549.366 72.428C547.77 71.1107 545.908 70.452 543.78 70.452C542.184 70.452 540.727 70.832 539.41 71.592C538.093 72.3267 536.965 73.416 536.028 74.86C535.091 76.2787 534.369 78.0393 533.862 80.142C533.381 82.2447 533.14 84.664 533.14 87.4C533.14 91.048 533.571 94.126 534.432 96.634C535.319 99.142 536.56 101.055 538.156 102.372C539.752 103.664 541.627 104.31 543.78 104.31Z" fill="white"/>
<path d="M438.749 163.62V148.22H440.608V149.837C441.055 149.265 441.616 148.799 442.291 148.44C442.973 148.073 443.831 147.89 444.865 147.89C445.936 147.89 446.878 148.143 447.692 148.649C448.506 149.148 449.14 149.83 449.595 150.695C450.057 151.56 450.288 152.532 450.288 153.61C450.288 154.395 450.156 155.135 449.892 155.832C449.635 156.521 449.265 157.13 448.781 157.658C448.297 158.179 447.721 158.589 447.054 158.89C446.394 159.183 445.657 159.33 444.843 159.33C443.934 159.33 443.138 159.161 442.456 158.824C441.781 158.479 441.217 158.028 440.762 157.471V163.62H438.749ZM444.502 157.504C445.228 157.504 445.87 157.346 446.427 157.031C446.992 156.708 447.432 156.257 447.747 155.678C448.07 155.091 448.231 154.402 448.231 153.61C448.231 152.811 448.07 152.121 447.747 151.542C447.432 150.955 446.992 150.504 446.427 150.189C445.87 149.874 445.228 149.716 444.502 149.716C443.776 149.716 443.131 149.874 442.566 150.189C442.009 150.504 441.569 150.955 441.246 151.542C440.923 152.121 440.762 152.811 440.762 153.61C440.762 154.402 440.923 155.091 441.246 155.678C441.569 156.257 442.009 156.708 442.566 157.031C443.131 157.346 443.776 157.504 444.502 157.504ZM457.516 159.33C456.43 159.33 455.47 159.077 454.634 158.571C453.798 158.065 453.145 157.383 452.676 156.525C452.206 155.66 451.972 154.688 451.972 153.61C451.972 152.803 452.107 152.052 452.379 151.355C452.65 150.658 453.031 150.053 453.523 149.54C454.014 149.019 454.597 148.616 455.272 148.33C455.954 148.037 456.702 147.89 457.516 147.89C458.601 147.89 459.503 148.117 460.222 148.572C460.94 149.027 461.501 149.606 461.905 150.31L461.608 150.75V148.22H463.456V159H461.608V156.47L461.905 156.899C461.501 157.603 460.94 158.186 460.222 158.648C459.503 159.103 458.601 159.33 457.516 159.33ZM457.736 157.504C458.454 157.504 459.092 157.346 459.65 157.031C460.207 156.708 460.643 156.257 460.959 155.678C461.281 155.091 461.443 154.402 461.443 153.61C461.443 152.811 461.281 152.121 460.959 151.542C460.643 150.955 460.207 150.504 459.65 150.189C459.092 149.874 458.454 149.716 457.736 149.716C457.017 149.716 456.379 149.874 455.822 150.189C455.264 150.504 454.824 150.955 454.502 151.542C454.179 152.121 454.018 152.811 454.018 153.61C454.018 154.402 454.179 155.091 454.502 155.678C454.824 156.257 455.264 156.708 455.822 157.031C456.379 157.346 457.017 157.504 457.736 157.504ZM472.15 159.33C471.241 159.33 470.423 159.176 469.697 158.868C468.971 158.56 468.351 158.109 467.838 157.515C467.332 156.921 466.943 156.195 466.672 155.337C466.408 154.479 466.276 153.5 466.276 152.4C466.276 151.197 466.364 150.116 466.54 149.155C466.716 148.194 467.002 147.362 467.398 146.658C467.794 145.947 468.315 145.364 468.96 144.909C469.613 144.447 470.412 144.117 471.358 143.919L476.517 142.83L476.869 144.634L471.853 145.657C470.958 145.855 470.258 146.17 469.752 146.603C469.246 147.028 468.876 147.567 468.641 148.22C468.406 148.873 468.252 149.635 468.179 150.508C468.641 149.826 469.228 149.28 469.939 148.869C470.658 148.451 471.501 148.242 472.469 148.242C473.51 148.242 474.423 148.491 475.208 148.99C476 149.481 476.62 150.141 477.067 150.97C477.514 151.791 477.738 152.701 477.738 153.698C477.738 154.468 477.606 155.194 477.342 155.876C477.078 156.558 476.697 157.159 476.198 157.68C475.699 158.193 475.109 158.597 474.427 158.89C473.745 159.183 472.986 159.33 472.15 159.33ZM472.095 157.504C472.784 157.504 473.4 157.35 473.943 157.042C474.486 156.727 474.911 156.287 475.219 155.722C475.527 155.157 475.681 154.49 475.681 153.72C475.681 152.943 475.527 152.272 475.219 151.707C474.911 151.142 474.486 150.706 473.943 150.398C473.408 150.09 472.792 149.936 472.095 149.936C471.398 149.936 470.779 150.09 470.236 150.398C469.693 150.706 469.268 151.142 468.96 151.707C468.652 152.272 468.498 152.943 468.498 153.72C468.498 154.49 468.652 155.157 468.96 155.722C469.268 156.287 469.693 156.727 470.236 157.042C470.779 157.35 471.398 157.504 472.095 157.504ZM485.322 159.33C484.207 159.33 483.214 159.07 482.341 158.549C481.468 158.028 480.783 157.335 480.284 156.47C479.785 155.605 479.536 154.651 479.536 153.61C479.536 152.84 479.679 152.11 479.965 151.421C480.251 150.732 480.654 150.123 481.175 149.595C481.696 149.06 482.308 148.642 483.012 148.341C483.716 148.04 484.486 147.89 485.322 147.89C486.444 147.89 487.441 148.15 488.314 148.671C489.187 149.192 489.872 149.885 490.371 150.75C490.87 151.615 491.119 152.569 491.119 153.61C491.119 154.38 490.976 155.11 490.69 155.799C490.404 156.488 490.001 157.097 489.48 157.625C488.959 158.153 488.347 158.571 487.643 158.879C486.939 159.18 486.165 159.33 485.322 159.33ZM485.322 157.504C486.048 157.504 486.69 157.346 487.247 157.031C487.812 156.708 488.255 156.257 488.578 155.678C488.901 155.091 489.062 154.402 489.062 153.61C489.062 152.811 488.901 152.121 488.578 151.542C488.263 150.955 487.823 150.504 487.258 150.189C486.693 149.874 486.048 149.716 485.322 149.716C484.596 149.716 483.951 149.874 483.386 150.189C482.829 150.504 482.389 150.955 482.066 151.542C481.751 152.121 481.593 152.811 481.593 153.61C481.593 154.402 481.751 155.091 482.066 155.678C482.389 156.257 482.832 156.708 483.397 157.031C483.962 157.346 484.603 157.504 485.322 157.504ZM496.16 159V149.936H492.464V148.22H501.891V149.936H498.184V159H496.16ZM509.019 159.33C507.905 159.33 506.911 159.07 506.038 158.549C505.166 158.028 504.48 157.335 503.981 156.47C503.483 155.605 503.233 154.651 503.233 153.61C503.233 152.84 503.376 152.11 503.662 151.421C503.948 150.732 504.352 150.123 504.872 149.595C505.393 149.06 506.005 148.642 506.709 148.341C507.413 148.04 508.183 147.89 509.019 147.89C510.141 147.89 511.139 148.15 512.011 148.671C512.884 149.192 513.57 149.885 514.068 150.75C514.567 151.615 514.816 152.569 514.816 153.61C514.816 154.38 514.673 155.11 514.387 155.799C514.101 156.488 513.698 157.097 513.177 157.625C512.657 158.153 512.044 158.571 511.34 158.879C510.636 159.18 509.863 159.33 509.019 159.33ZM509.019 157.504C509.745 157.504 510.387 157.346 510.944 157.031C511.509 156.708 511.953 156.257 512.275 155.678C512.598 155.091 512.759 154.402 512.759 153.61C512.759 152.811 512.598 152.121 512.275 151.542C511.96 150.955 511.52 150.504 510.955 150.189C510.391 149.874 509.745 149.716 509.019 149.716C508.293 149.716 507.648 149.874 507.083 150.189C506.526 150.504 506.086 150.955 505.763 151.542C505.448 152.121 505.29 152.811 505.29 153.61C505.29 154.402 505.448 155.091 505.763 155.678C506.086 156.257 506.53 156.708 507.094 157.031C507.659 157.346 508.301 157.504 509.019 157.504ZM525.28 159V149.936H520.495V151.597C520.495 152.631 520.44 153.551 520.33 154.358C520.22 155.157 520.026 155.85 519.747 156.437C519.469 157.016 519.076 157.493 518.57 157.867C518.072 158.241 517.43 158.516 516.645 158.692L516.073 157.361C516.785 157.178 517.316 156.859 517.668 156.404C518.028 155.942 518.27 155.319 518.394 154.534C518.519 153.742 518.581 152.763 518.581 151.597V148.22H527.304V159H525.28ZM516.073 162.3V157.361L517.448 157.504L517.756 157.284H529.482V162.3H527.623V159H517.932V162.3H516.073ZM536.127 159.33C535.042 159.33 534.081 159.077 533.245 158.571C532.409 158.065 531.756 157.383 531.287 156.525C530.818 155.66 530.583 154.688 530.583 153.61C530.583 152.803 530.719 152.052 530.99 151.355C531.261 150.658 531.643 150.053 532.134 149.54C532.625 149.019 533.208 148.616 533.883 148.33C534.565 148.037 535.313 147.89 536.127 147.89C537.212 147.89 538.114 148.117 538.833 148.572C539.552 149.027 540.113 149.606 540.516 150.31L540.219 150.75V148.22H542.067V159H540.219V156.47L540.516 156.899C540.113 157.603 539.552 158.186 538.833 158.648C538.114 159.103 537.212 159.33 536.127 159.33ZM536.347 157.504C537.066 157.504 537.704 157.346 538.261 157.031C538.818 156.708 539.255 156.257 539.57 155.678C539.893 155.091 540.054 154.402 540.054 153.61C540.054 152.811 539.893 152.121 539.57 151.542C539.255 150.955 538.818 150.504 538.261 150.189C537.704 149.874 537.066 149.716 536.347 149.716C535.628 149.716 534.99 149.874 534.433 150.189C533.876 150.504 533.436 150.955 533.113 151.542C532.79 152.121 532.629 152.811 532.629 153.61C532.629 154.402 532.79 155.091 533.113 155.678C533.436 156.257 533.876 156.708 534.433 157.031C534.99 157.346 535.628 157.504 536.347 157.504ZM548.066 159V149.936H544.37V148.22H553.797V149.936H550.09V159H548.066ZM560.948 159.33C559.804 159.33 558.795 159.092 557.923 158.615C557.05 158.138 556.368 157.475 555.877 156.624C555.385 155.766 555.14 154.769 555.14 153.632C555.14 152.811 555.279 152.048 555.558 151.344C555.844 150.64 556.24 150.031 556.746 149.518C557.259 149.005 557.857 148.605 558.539 148.319C559.228 148.033 559.976 147.89 560.783 147.89C561.655 147.89 562.433 148.044 563.115 148.352C563.804 148.66 564.372 149.093 564.82 149.65C565.274 150.2 565.601 150.849 565.799 151.597C565.997 152.338 566.037 153.144 565.92 154.017H557.142C557.12 154.736 557.266 155.366 557.582 155.909C557.897 156.444 558.352 156.862 558.946 157.163C559.547 157.464 560.258 157.614 561.08 157.614C561.681 157.614 562.268 157.519 562.84 157.328C563.412 157.137 563.918 156.855 564.358 156.481L565.216 157.988C564.864 158.274 564.446 158.52 563.962 158.725C563.485 158.923 562.986 159.073 562.466 159.176C561.945 159.279 561.439 159.33 560.948 159.33ZM557.252 152.444H563.896C563.866 151.535 563.584 150.827 563.049 150.321C562.513 149.808 561.747 149.551 560.75 149.551C559.782 149.551 558.982 149.808 558.352 150.321C557.721 150.827 557.354 151.535 557.252 152.444ZM568.008 159.165L567.26 157.306C568.015 157.115 568.565 156.811 568.91 156.393C569.255 155.968 569.475 155.37 569.57 154.6C569.665 153.83 569.713 152.829 569.713 151.597V148.22H578.216V159H576.192V149.936H571.627V151.597C571.627 152.77 571.576 153.79 571.473 154.655C571.378 155.513 571.198 156.239 570.934 156.833C570.677 157.427 570.311 157.915 569.834 158.296C569.365 158.67 568.756 158.96 568.008 159.165ZM586.557 159.33C585.413 159.33 584.405 159.092 583.532 158.615C582.659 158.138 581.977 157.475 581.486 156.624C580.995 155.766 580.749 154.769 580.749 153.632C580.749 152.811 580.888 152.048 581.167 151.344C581.453 150.64 581.849 150.031 582.355 149.518C582.868 149.005 583.466 148.605 584.148 148.319C584.837 148.033 585.585 147.89 586.392 147.89C587.265 147.89 588.042 148.044 588.724 148.352C589.413 148.66 589.982 149.093 590.429 149.65C590.884 150.2 591.21 150.849 591.408 151.597C591.606 152.338 591.646 153.144 591.529 154.017H582.751C582.729 154.736 582.876 155.366 583.191 155.909C583.506 156.444 583.961 156.862 584.555 157.163C585.156 157.464 585.868 157.614 586.689 157.614C587.29 157.614 587.877 157.519 588.449 157.328C589.021 157.137 589.527 156.855 589.967 156.481L590.825 157.988C590.473 158.274 590.055 158.52 589.571 158.725C589.094 158.923 588.596 159.073 588.075 159.176C587.554 159.279 587.048 159.33 586.557 159.33ZM582.861 152.444H589.505C589.476 151.535 589.193 150.827 588.658 150.321C588.123 149.808 587.356 149.551 586.359 149.551C585.391 149.551 584.592 149.808 583.961 150.321C583.33 150.827 582.964 151.535 582.861 152.444ZM594.145 159V148.22H596.114V155.964L602.384 148.22H604.122V159H602.153V151.168L595.828 159H594.145ZM599.128 146.24C598.344 146.24 597.654 146.071 597.06 145.734C596.466 145.397 596.008 144.938 595.685 144.359C595.363 143.772 595.212 143.101 595.234 142.346H596.961C596.932 143.065 597.115 143.648 597.511 144.095C597.907 144.535 598.446 144.755 599.128 144.755C599.81 144.755 600.346 144.535 600.734 144.095C601.13 143.648 601.31 143.065 601.273 142.346H603.011C603.026 143.094 602.868 143.761 602.538 144.348C602.216 144.935 601.757 145.397 601.163 145.734C600.569 146.071 599.891 146.24 599.128 146.24ZM607.242 153.698V151.938H613.006V153.698H607.242ZM616.124 159V148.22H626.002V159H623.978V149.936H618.148V159H616.124ZM634.096 159.33C633.01 159.33 632.05 159.077 631.214 158.571C630.378 158.065 629.725 157.383 629.256 156.525C628.786 155.66 628.552 154.688 628.552 153.61C628.552 152.803 628.687 152.052 628.959 151.355C629.23 150.658 629.611 150.053 630.103 149.54C630.594 149.019 631.177 148.616 631.852 148.33C632.534 148.037 633.282 147.89 634.096 147.89C635.181 147.89 636.083 148.117 636.802 148.572C637.52 149.027 638.081 149.606 638.485 150.31L638.188 150.75V148.22H640.036V159H638.188V156.47L638.485 156.899C638.081 157.603 637.52 158.186 636.802 158.648C636.083 159.103 635.181 159.33 634.096 159.33ZM634.316 157.504C635.034 157.504 635.672 157.346 636.23 157.031C636.787 156.708 637.223 156.257 637.539 155.678C637.861 155.091 638.023 154.402 638.023 153.61C638.023 152.811 637.861 152.121 637.539 151.542C637.223 150.955 636.787 150.504 636.23 150.189C635.672 149.874 635.034 149.716 634.316 149.716C633.597 149.716 632.959 149.874 632.402 150.189C631.844 150.504 631.404 150.955 631.082 151.542C630.759 152.121 630.598 152.811 630.598 153.61C630.598 154.402 630.759 155.091 631.082 155.678C631.404 156.257 631.844 156.708 632.402 157.031C632.959 157.346 633.597 157.504 634.316 157.504ZM643.538 163.62V148.22H645.397V149.837C645.844 149.265 646.405 148.799 647.08 148.44C647.762 148.073 648.62 147.89 649.654 147.89C650.725 147.89 651.667 148.143 652.481 148.649C653.295 149.148 653.929 149.83 654.384 150.695C654.846 151.56 655.077 152.532 655.077 153.61C655.077 154.395 654.945 155.135 654.681 155.832C654.424 156.521 654.054 157.13 653.57 157.658C653.086 158.179 652.51 158.589 651.843 158.89C651.183 159.183 650.446 159.33 649.632 159.33C648.723 159.33 647.927 159.161 647.245 158.824C646.57 158.479 646.006 158.028 645.551 157.471V163.62H643.538ZM649.291 157.504C650.017 157.504 650.659 157.346 651.216 157.031C651.781 156.708 652.221 156.257 652.536 155.678C652.859 155.091 653.02 154.402 653.02 153.61C653.02 152.811 652.859 152.121 652.536 151.542C652.221 150.955 651.781 150.504 651.216 150.189C650.659 149.874 650.017 149.716 649.291 149.716C648.565 149.716 647.92 149.874 647.355 150.189C646.798 150.504 646.358 150.955 646.035 151.542C645.712 152.121 645.551 152.811 645.551 153.61C645.551 154.402 645.712 155.091 646.035 155.678C646.358 156.257 646.798 156.708 647.355 157.031C647.92 157.346 648.565 157.504 649.291 157.504ZM660.107 159V149.936H656.411V148.22H665.838V149.936H662.131V159H660.107ZM668.138 159V148.22H670.162V152.466H676.003V148.22H678.027V159H676.003V154.182H670.162V159H668.138ZM686.373 159.33C685.229 159.33 684.221 159.092 683.348 158.615C682.476 158.138 681.794 157.475 681.302 156.624C680.811 155.766 680.565 154.769 680.565 153.632C680.565 152.811 680.705 152.048 680.983 151.344C681.269 150.64 681.665 150.031 682.171 149.518C682.685 149.005 683.282 148.605 683.964 148.319C684.654 148.033 685.402 147.89 686.208 147.89C687.081 147.89 687.858 148.044 688.54 148.352C689.23 148.66 689.798 149.093 690.245 149.65C690.7 150.2 691.026 150.849 691.224 151.597C691.422 152.338 691.463 153.144 691.345 154.017H682.567C682.545 154.736 682.692 155.366 683.007 155.909C683.323 156.444 683.777 156.862 684.371 157.163C684.973 157.464 685.684 157.614 686.505 157.614C687.107 157.614 687.693 157.519 688.265 157.328C688.837 157.137 689.343 156.855 689.783 156.481L690.641 157.988C690.289 158.274 689.871 158.52 689.387 158.725C688.911 158.923 688.412 159.073 687.891 159.176C687.371 159.279 686.865 159.33 686.373 159.33ZM682.677 152.444H689.321C689.292 151.535 689.01 150.827 688.474 150.321C687.939 149.808 687.173 149.551 686.175 149.551C685.207 149.551 684.408 149.808 683.777 150.321C683.147 150.827 682.78 151.535 682.677 152.444ZM683.92 146.196C683.561 146.196 683.246 146.071 682.974 145.822C682.703 145.565 682.567 145.243 682.567 144.854C682.567 144.597 682.63 144.37 682.754 144.172C682.879 143.967 683.044 143.809 683.249 143.699C683.455 143.582 683.678 143.523 683.92 143.523C684.287 143.523 684.602 143.648 684.866 143.897C685.138 144.146 685.273 144.465 685.273 144.854C685.273 145.118 685.211 145.353 685.086 145.558C684.962 145.756 684.797 145.914 684.591 146.031C684.386 146.141 684.162 146.196 683.92 146.196ZM688.43 146.196C688.071 146.196 687.756 146.071 687.484 145.822C687.213 145.565 687.077 145.243 687.077 144.854C687.077 144.597 687.14 144.37 687.264 144.172C687.389 143.967 687.554 143.809 687.759 143.699C687.965 143.582 688.188 143.523 688.43 143.523C688.797 143.523 689.112 143.648 689.376 143.897C689.648 144.146 689.783 144.465 689.783 144.854C689.783 145.118 689.721 145.353 689.596 145.558C689.472 145.756 689.307 145.914 689.101 146.031C688.896 146.141 688.672 146.196 688.43 146.196ZM693.962 163.62V148.22H695.821V149.837C696.268 149.265 696.829 148.799 697.504 148.44C698.186 148.073 699.044 147.89 700.078 147.89C701.149 147.89 702.091 148.143 702.905 148.649C703.719 149.148 704.353 149.83 704.808 150.695C705.27 151.56 705.501 152.532 705.501 153.61C705.501 154.395 705.369 155.135 705.105 155.832C704.848 156.521 704.478 157.13 703.994 157.658C703.51 158.179 702.934 158.589 702.267 158.89C701.607 159.183 700.87 159.33 700.056 159.33C699.147 159.33 698.351 159.161 697.669 158.824C696.994 158.479 696.43 158.028 695.975 157.471V163.62H693.962ZM699.715 157.504C700.441 157.504 701.083 157.346 701.64 157.031C702.205 156.708 702.645 156.257 702.96 155.678C703.283 155.091 703.444 154.402 703.444 153.61C703.444 152.811 703.283 152.121 702.96 151.542C702.645 150.955 702.205 150.504 701.64 150.189C701.083 149.874 700.441 149.716 699.715 149.716C698.989 149.716 698.344 149.874 697.779 150.189C697.222 150.504 696.782 150.955 696.459 151.542C696.136 152.121 695.975 152.811 695.975 153.61C695.975 154.402 696.136 155.091 696.459 155.678C696.782 156.257 697.222 156.708 697.779 157.031C698.344 157.346 698.989 157.504 699.715 157.504ZM712.971 159.33C711.856 159.33 710.862 159.07 709.99 158.549C709.117 158.028 708.431 157.335 707.933 156.47C707.434 155.605 707.185 154.651 707.185 153.61C707.185 152.84 707.328 152.11 707.614 151.421C707.9 150.732 708.303 150.123 708.824 149.595C709.344 149.06 709.957 148.642 710.661 148.341C711.365 148.04 712.135 147.89 712.971 147.89C714.093 147.89 715.09 148.15 715.963 148.671C716.835 149.192 717.521 149.885 718.02 150.75C718.518 151.615 718.768 152.569 718.768 153.61C718.768 154.38 718.625 155.11 718.339 155.799C718.053 156.488 717.649 157.097 717.129 157.625C716.608 158.153 715.996 158.571 715.292 158.879C714.588 159.18 713.814 159.33 712.971 159.33ZM712.971 157.504C713.697 157.504 714.338 157.346 714.896 157.031C715.46 156.708 715.904 156.257 716.227 155.678C716.549 155.091 716.711 154.402 716.711 153.61C716.711 152.811 716.549 152.121 716.227 151.542C715.911 150.955 715.471 150.504 714.907 150.189C714.342 149.874 713.697 149.716 712.971 149.716C712.245 149.716 711.599 149.874 711.035 150.189C710.477 150.504 710.037 150.955 709.715 151.542C709.399 152.121 709.242 152.811 709.242 153.61C709.242 154.402 709.399 155.091 709.715 155.678C710.037 156.257 710.481 156.708 711.046 157.031C711.61 157.346 712.252 157.504 712.971 157.504ZM721.312 159V148.22H726.262C727.464 148.22 728.432 148.455 729.166 148.924C729.906 149.393 730.277 150.09 730.277 151.014C730.277 151.425 730.181 151.795 729.991 152.125C729.8 152.455 729.529 152.737 729.177 152.972C728.825 153.199 728.41 153.368 727.934 153.478L727.901 153.038C728.817 153.185 729.518 153.507 730.002 154.006C730.493 154.497 730.739 155.113 730.739 155.854C730.739 156.507 730.566 157.068 730.222 157.537C729.884 158.006 729.4 158.369 728.77 158.626C728.139 158.875 727.387 159 726.515 159H721.312ZM723.281 157.427H726.24C727.032 157.427 727.644 157.295 728.077 157.031C728.517 156.767 728.737 156.371 728.737 155.843C728.737 155.315 728.52 154.923 728.088 154.666C727.655 154.402 727.039 154.27 726.24 154.27H722.973V152.741H725.987C726.735 152.741 727.314 152.627 727.725 152.4C728.135 152.173 728.341 151.795 728.341 151.267C728.341 150.746 728.135 150.372 727.725 150.145C727.321 149.91 726.742 149.793 725.987 149.793H723.281V157.427ZM438.749 185V174.22H440.718V181.964L446.988 174.22H448.726V185H446.757V177.168L440.432 185H438.749ZM468.918 188.3V185H466.949V183.284H470.777V188.3H468.918ZM452.22 185V174.22H454.189V183.284H459.15V174.22H461.119V183.284H466.08V174.22H468.049V185H452.22ZM474.15 189.939C473.798 189.939 473.449 189.895 473.105 189.807C472.76 189.726 472.412 189.58 472.06 189.367L472.533 187.618C472.76 187.765 473.006 187.875 473.27 187.948C473.534 188.021 473.768 188.058 473.974 188.058C474.516 188.058 474.938 187.926 475.239 187.662C475.539 187.398 475.781 186.995 475.965 186.452L476.394 185.22L472.126 174.22H474.348L477.538 182.91L480.651 174.22H482.796L478.077 186.716C477.754 187.567 477.395 188.223 476.999 188.685C476.61 189.154 476.181 189.481 475.712 189.664C475.242 189.847 474.722 189.939 474.15 189.939ZM487.631 185V175.936H483.935V174.22H493.362V175.936H489.655V185H487.631ZM506.045 185.33C504.908 185.33 503.9 185.081 503.02 184.582C502.14 184.083 501.451 183.405 500.952 182.547C500.453 181.682 500.204 180.703 500.204 179.61C500.204 178.781 500.351 178.019 500.644 177.322C500.945 176.625 501.366 176.02 501.909 175.507C502.452 174.994 503.086 174.598 503.812 174.319C504.545 174.033 505.345 173.89 506.21 173.89C506.914 173.89 507.563 173.982 508.157 174.165C508.751 174.348 509.301 174.631 509.807 175.012L508.773 176.574C508.443 176.288 508.058 176.075 507.618 175.936C507.178 175.789 506.712 175.716 506.221 175.716C505.414 175.716 504.714 175.87 504.12 176.178C503.533 176.479 503.079 176.919 502.756 177.498C502.433 178.077 502.272 178.774 502.272 179.588C502.272 180.813 502.624 181.773 503.328 182.47C504.039 183.159 505 183.504 506.21 183.504C506.767 183.504 507.288 183.405 507.772 183.207C508.256 183.002 508.652 182.738 508.96 182.415L510.005 183.955C509.44 184.38 508.821 184.718 508.146 184.967C507.471 185.209 506.771 185.33 506.045 185.33ZM512.354 185V174.22H522.232V185H520.208V175.936H514.378V185H512.354ZM530.59 185.33C529.446 185.33 528.438 185.092 527.565 184.615C526.693 184.138 526.011 183.475 525.519 182.624C525.028 181.766 524.782 180.769 524.782 179.632C524.782 178.811 524.922 178.048 525.2 177.344C525.486 176.64 525.882 176.031 526.388 175.518C526.902 175.005 527.499 174.605 528.181 174.319C528.871 174.033 529.619 173.89 530.425 173.89C531.298 173.89 532.075 174.044 532.757 174.352C533.447 174.66 534.015 175.093 534.462 175.65C534.917 176.2 535.243 176.849 535.441 177.597C535.639 178.338 535.68 179.144 535.562 180.017H526.784C526.762 180.736 526.909 181.366 527.224 181.909C527.54 182.444 527.994 182.862 528.588 183.163C529.19 183.464 529.901 183.614 530.722 183.614C531.324 183.614 531.91 183.519 532.482 183.328C533.054 183.137 533.56 182.855 534 182.481L534.858 183.988C534.506 184.274 534.088 184.52 533.604 184.725C533.128 184.923 532.629 185.073 532.108 185.176C531.588 185.279 531.082 185.33 530.59 185.33ZM526.894 178.444H533.538C533.509 177.535 533.227 176.827 532.691 176.321C532.156 175.808 531.39 175.551 530.392 175.551C529.424 175.551 528.625 175.808 527.994 176.321C527.364 176.827 526.997 177.535 526.894 178.444ZM538.179 185V174.22H540.203V183.284H545.824V174.22H547.848V185H538.179ZM548.717 188.3V185H546.748V183.284H550.576V188.3H548.717ZM552.831 185V174.22H554.8V181.964L561.07 174.22H562.808V185H560.839V177.168L554.514 185H552.831ZM570.889 185.33C569.803 185.33 568.843 185.077 568.007 184.571C567.171 184.065 566.518 183.383 566.049 182.525C565.579 181.66 565.345 180.688 565.345 179.61C565.345 178.803 565.48 178.052 565.752 177.355C566.023 176.658 566.404 176.053 566.896 175.54C567.387 175.019 567.97 174.616 568.645 174.33C569.327 174.037 570.075 173.89 570.889 173.89C571.974 173.89 572.876 174.117 573.595 174.572C574.313 175.027 574.874 175.606 575.278 176.31L574.981 176.75V174.22H576.829V185H574.981V182.47L575.278 182.899C574.874 183.603 574.313 184.186 573.595 184.648C572.876 185.103 571.974 185.33 570.889 185.33ZM571.109 183.504C571.827 183.504 572.465 183.346 573.023 183.031C573.58 182.708 574.016 182.257 574.332 181.678C574.654 181.091 574.816 180.402 574.816 179.61C574.816 178.811 574.654 178.121 574.332 177.542C574.016 176.955 573.58 176.504 573.023 176.189C572.465 175.874 571.827 175.716 571.109 175.716C570.39 175.716 569.752 175.874 569.195 176.189C568.637 176.504 568.197 176.955 567.875 177.542C567.552 178.121 567.391 178.811 567.391 179.61C567.391 180.402 567.552 181.091 567.875 181.678C568.197 182.257 568.637 182.708 569.195 183.031C569.752 183.346 570.39 183.504 571.109 183.504ZM579.803 185.165L579.055 183.306C579.81 183.115 580.36 182.811 580.705 182.393C581.05 181.968 581.27 181.37 581.365 180.6C581.46 179.83 581.508 178.829 581.508 177.597V174.22H590.011V185H587.987V175.936H583.422V177.597C583.422 178.77 583.371 179.79 583.268 180.655C583.173 181.513 582.993 182.239 582.729 182.833C582.472 183.427 582.106 183.915 581.629 184.296C581.16 184.67 580.551 184.96 579.803 185.165ZM593.501 185V174.22H595.47V181.964L601.74 174.22H603.478V185H601.509V177.168L595.184 185H593.501ZM611.856 185.33C610.719 185.33 609.711 185.081 608.831 184.582C607.951 184.083 607.261 183.405 606.763 182.547C606.264 181.682 606.015 180.703 606.015 179.61C606.015 178.781 606.161 178.019 606.455 177.322C606.755 176.625 607.177 176.02 607.72 175.507C608.262 174.994 608.897 174.598 609.623 174.319C610.356 174.033 611.155 173.89 612.021 173.89C612.725 173.89 613.374 173.982 613.968 174.165C614.562 174.348 615.112 174.631 615.618 175.012L614.584 176.574C614.254 176.288 613.869 176.075 613.429 175.936C612.989 175.789 612.523 175.716 612.032 175.716C611.225 175.716 610.525 175.87 609.931 176.178C609.344 176.479 608.889 176.919 608.567 177.498C608.244 178.077 608.083 178.774 608.083 179.588C608.083 180.813 608.435 181.773 609.139 182.47C609.85 183.159 610.811 183.504 612.021 183.504C612.578 183.504 613.099 183.405 613.583 183.207C614.067 183.002 614.463 182.738 614.771 182.415L615.816 183.955C615.251 184.38 614.631 184.718 613.957 184.967C613.282 185.209 612.582 185.33 611.856 185.33ZM620.662 185V175.936H616.966V174.22H626.393V175.936H622.686V185H620.662ZM633.521 185.33C632.407 185.33 631.413 185.07 630.54 184.549C629.668 184.028 628.982 183.335 628.483 182.47C627.985 181.605 627.735 180.651 627.735 179.61C627.735 178.84 627.878 178.11 628.164 177.421C628.45 176.732 628.854 176.123 629.374 175.595C629.895 175.06 630.507 174.642 631.211 174.341C631.915 174.04 632.685 173.89 633.521 173.89C634.643 173.89 635.641 174.15 636.513 174.671C637.386 175.192 638.072 175.885 638.57 176.75C639.069 177.615 639.318 178.569 639.318 179.61C639.318 180.38 639.175 181.11 638.889 181.799C638.603 182.488 638.2 183.097 637.679 183.625C637.159 184.153 636.546 184.571 635.842 184.879C635.138 185.18 634.365 185.33 633.521 185.33ZM633.521 183.504C634.247 183.504 634.889 183.346 635.446 183.031C636.011 182.708 636.455 182.257 636.777 181.678C637.1 181.091 637.261 180.402 637.261 179.61C637.261 178.811 637.1 178.121 636.777 177.542C636.462 176.955 636.022 176.504 635.457 176.189C634.893 175.874 634.247 175.716 633.521 175.716C632.795 175.716 632.15 175.874 631.585 176.189C631.028 176.504 630.588 176.955 630.265 177.542C629.95 178.121 629.792 178.811 629.792 179.61C629.792 180.402 629.95 181.091 630.265 181.678C630.588 182.257 631.032 182.708 631.596 183.031C632.161 183.346 632.803 183.504 633.521 183.504ZM641.862 185V174.22H646.812C648.015 174.22 648.983 174.455 649.716 174.924C650.457 175.393 650.827 176.09 650.827 177.014C650.827 177.425 650.732 177.795 650.541 178.125C650.351 178.455 650.079 178.737 649.727 178.972C649.375 179.199 648.961 179.368 648.484 179.478L648.451 179.038C649.368 179.185 650.068 179.507 650.552 180.006C651.044 180.497 651.289 181.113 651.289 181.854C651.289 182.507 651.117 183.068 650.772 183.537C650.435 184.006 649.951 184.369 649.32 184.626C648.69 184.875 647.938 185 647.065 185H641.862ZM643.831 183.427H646.79C647.582 183.427 648.195 183.295 648.627 183.031C649.067 182.767 649.287 182.371 649.287 181.843C649.287 181.315 649.071 180.923 648.638 180.666C648.206 180.402 647.59 180.27 646.79 180.27H643.523V178.741H646.537C647.285 178.741 647.865 178.627 648.275 178.4C648.686 178.173 648.891 177.795 648.891 177.267C648.891 176.746 648.686 176.372 648.275 176.145C647.872 175.91 647.293 175.793 646.537 175.793H643.831V183.427ZM443.633 211.33C442.496 211.33 441.488 211.081 440.608 210.582C439.728 210.083 439.039 209.405 438.54 208.547C438.041 207.682 437.792 206.703 437.792 205.61C437.792 204.781 437.939 204.019 438.232 203.322C438.533 202.625 438.954 202.02 439.497 201.507C440.04 200.994 440.674 200.598 441.4 200.319C442.133 200.033 442.933 199.89 443.798 199.89C444.502 199.89 445.151 199.982 445.745 200.165C446.339 200.348 446.889 200.631 447.395 201.012L446.361 202.574C446.031 202.288 445.646 202.075 445.206 201.936C444.766 201.789 444.3 201.716 443.809 201.716C443.002 201.716 442.302 201.87 441.708 202.178C441.121 202.479 440.667 202.919 440.344 203.498C440.021 204.077 439.86 204.774 439.86 205.588C439.86 206.813 440.212 207.773 440.916 208.47C441.627 209.159 442.588 209.504 443.798 209.504C444.355 209.504 444.876 209.405 445.36 209.207C445.844 209.002 446.24 208.738 446.548 208.415L447.593 209.955C447.028 210.38 446.409 210.718 445.734 210.967C445.059 211.209 444.359 211.33 443.633 211.33ZM449.942 215.62V200.22H451.801V201.837C452.249 201.265 452.81 200.799 453.484 200.44C454.166 200.073 455.024 199.89 456.058 199.89C457.129 199.89 458.071 200.143 458.885 200.649C459.699 201.148 460.334 201.83 460.788 202.695C461.25 203.56 461.481 204.532 461.481 205.61C461.481 206.395 461.349 207.135 461.085 207.832C460.829 208.521 460.458 209.13 459.974 209.658C459.49 210.179 458.915 210.589 458.247 210.89C457.587 211.183 456.85 211.33 456.036 211.33C455.127 211.33 454.331 211.161 453.649 210.824C452.975 210.479 452.41 210.028 451.955 209.471V215.62H449.942ZM455.695 209.504C456.421 209.504 457.063 209.346 457.62 209.031C458.185 208.708 458.625 208.257 458.94 207.678C459.263 207.091 459.424 206.402 459.424 205.61C459.424 204.811 459.263 204.121 458.94 203.542C458.625 202.955 458.185 202.504 457.62 202.189C457.063 201.874 456.421 201.716 455.695 201.716C454.969 201.716 454.324 201.874 453.759 202.189C453.202 202.504 452.762 202.955 452.439 203.542C452.117 204.121 451.955 204.811 451.955 205.61C451.955 206.402 452.117 207.091 452.439 207.678C452.762 208.257 453.202 208.708 453.759 209.031C454.324 209.346 454.969 209.504 455.695 209.504ZM468.973 211.33C467.829 211.33 466.821 211.092 465.948 210.615C465.075 210.138 464.393 209.475 463.902 208.624C463.411 207.766 463.165 206.769 463.165 205.632C463.165 204.811 463.304 204.048 463.583 203.344C463.869 202.64 464.265 202.031 464.771 201.518C465.284 201.005 465.882 200.605 466.564 200.319C467.253 200.033 468.001 199.89 468.808 199.89C469.681 199.89 470.458 200.044 471.14 200.352C471.829 200.66 472.398 201.093 472.845 201.65C473.3 202.2 473.626 202.849 473.824 203.597C474.022 204.338 474.062 205.144 473.945 206.017H465.167C465.145 206.736 465.292 207.366 465.607 207.909C465.922 208.444 466.377 208.862 466.971 209.163C467.572 209.464 468.284 209.614 469.105 209.614C469.706 209.614 470.293 209.519 470.865 209.328C471.437 209.137 471.943 208.855 472.383 208.481L473.241 209.988C472.889 210.274 472.471 210.52 471.987 210.725C471.51 210.923 471.012 211.073 470.491 211.176C469.97 211.279 469.464 211.33 468.973 211.33ZM465.277 204.444H471.921C471.892 203.535 471.609 202.827 471.074 202.321C470.539 201.808 469.772 201.551 468.775 201.551C467.807 201.551 467.008 201.808 466.377 202.321C465.746 202.827 465.38 203.535 465.277 204.444ZM484.482 211V201.936H479.697V203.597C479.697 204.631 479.642 205.551 479.532 206.358C479.422 207.157 479.227 207.85 478.949 208.437C478.67 209.016 478.278 209.493 477.772 209.867C477.273 210.241 476.631 210.516 475.847 210.692L475.275 209.361C475.986 209.178 476.518 208.859 476.87 208.404C477.229 207.942 477.471 207.319 477.596 206.534C477.72 205.742 477.783 204.763 477.783 203.597V200.22H486.506V211H484.482ZM475.275 214.3V209.361L476.65 209.504L476.958 209.284H488.684V214.3H486.825V211H477.134V214.3H475.275ZM490.935 211V200.22H492.904V207.964L499.174 200.22H500.912V211H498.943V203.168L492.618 211H490.935ZM510.587 215.939C510.235 215.939 509.887 215.895 509.542 215.807C509.198 215.726 508.849 215.58 508.497 215.367L508.97 213.618C509.198 213.765 509.443 213.875 509.707 213.948C509.971 214.021 510.206 214.058 510.411 214.058C510.954 214.058 511.376 213.926 511.676 213.662C511.977 213.398 512.219 212.995 512.402 212.452L512.831 211.22L508.563 200.22H510.785L513.975 208.91L517.088 200.22H519.233L514.514 212.716C514.192 213.567 513.832 214.223 513.436 214.685C513.048 215.154 512.619 215.481 512.149 215.664C511.68 215.847 511.159 215.939 510.587 215.939ZM528.081 211V206.622C527.553 206.761 527.054 206.864 526.585 206.93C526.115 206.996 525.617 207.029 525.089 207.029C524.099 207.029 523.277 206.882 522.625 206.589C521.972 206.288 521.484 205.841 521.162 205.247C520.846 204.653 520.689 203.916 520.689 203.036V200.22H522.713V202.739C522.713 203.56 522.914 204.184 523.318 204.609C523.721 205.034 524.41 205.247 525.386 205.247C525.943 205.247 526.434 205.221 526.86 205.17C527.285 205.119 527.692 205.053 528.081 204.972V200.22H530.105V211H528.081ZM538.19 211.33C537.104 211.33 536.144 211.077 535.308 210.571C534.472 210.065 533.819 209.383 533.35 208.525C532.88 207.66 532.646 206.688 532.646 205.61C532.646 204.803 532.781 204.052 533.053 203.355C533.324 202.658 533.705 202.053 534.197 201.54C534.688 201.019 535.271 200.616 535.946 200.33C536.628 200.037 537.376 199.89 538.19 199.89C539.275 199.89 540.177 200.117 540.896 200.572C541.614 201.027 542.175 201.606 542.579 202.31L542.282 202.75V200.22H544.13V211H542.282V208.47L542.579 208.899C542.175 209.603 541.614 210.186 540.896 210.648C540.177 211.103 539.275 211.33 538.19 211.33ZM538.41 209.504C539.128 209.504 539.766 209.346 540.324 209.031C540.881 208.708 541.317 208.257 541.633 207.678C541.955 207.091 542.117 206.402 542.117 205.61C542.117 204.811 541.955 204.121 541.633 203.542C541.317 202.955 540.881 202.504 540.324 202.189C539.766 201.874 539.128 201.716 538.41 201.716C537.691 201.716 537.053 201.874 536.496 202.189C535.938 202.504 535.498 202.955 535.176 203.542C534.853 204.121 534.692 204.811 534.692 205.61C534.692 206.402 534.853 207.091 535.176 207.678C535.498 208.257 535.938 208.708 536.496 209.031C537.053 209.346 537.691 209.504 538.41 209.504ZM552.516 211.33C551.379 211.33 550.371 211.081 549.491 210.582C548.611 210.083 547.921 209.405 547.423 208.547C546.924 207.682 546.675 206.703 546.675 205.61C546.675 204.781 546.821 204.019 547.115 203.322C547.415 202.625 547.837 202.02 548.38 201.507C548.922 200.994 549.557 200.598 550.283 200.319C551.016 200.033 551.815 199.89 552.681 199.89C553.385 199.89 554.034 199.982 554.628 200.165C555.222 200.348 555.772 200.631 556.278 201.012L555.244 202.574C554.914 202.288 554.529 202.075 554.089 201.936C553.649 201.789 553.183 201.716 552.692 201.716C551.885 201.716 551.185 201.87 550.591 202.178C550.004 202.479 549.549 202.919 549.227 203.498C548.904 204.077 548.743 204.774 548.743 205.588C548.743 206.813 549.095 207.773 549.799 208.47C550.51 209.159 551.471 209.504 552.681 209.504C553.238 209.504 553.759 209.405 554.243 209.207C554.727 209.002 555.123 208.738 555.431 208.415L556.476 209.955C555.911 210.38 555.291 210.718 554.617 210.967C553.942 211.209 553.242 211.33 552.516 211.33ZM561.322 211V201.936H557.626V200.22H567.053V201.936H563.346V211H561.322ZM569.353 211V200.22H571.377V204.466H577.218V200.22H579.242V211H577.218V206.182H571.377V211H569.353ZM582.737 211V200.22H584.706V207.964L590.976 200.22H592.714V211H590.745V203.168L584.42 211H582.737ZM603.435 211L599.794 205.247L603.061 200.22H605.239L601.983 205.148L605.877 211H603.435ZM596.208 211V200.22H598.232V204.466H601.455V206.182H598.232V211H596.208ZM612.767 211.33C611.653 211.33 610.659 211.07 609.786 210.549C608.914 210.028 608.228 209.335 607.729 208.47C607.231 207.605 606.981 206.651 606.981 205.61C606.981 204.84 607.124 204.11 607.41 203.421C607.696 202.732 608.1 202.123 608.62 201.595C609.141 201.06 609.753 200.642 610.457 200.341C611.161 200.04 611.931 199.89 612.767 199.89C613.889 199.89 614.887 200.15 615.759 200.671C616.632 201.192 617.318 201.885 617.816 202.75C618.315 203.615 618.564 204.569 618.564 205.61C618.564 206.38 618.421 207.11 618.135 207.799C617.849 208.488 617.446 209.097 616.925 209.625C616.405 210.153 615.792 210.571 615.088 210.879C614.384 211.18 613.611 211.33 612.767 211.33ZM612.767 209.504C613.493 209.504 614.135 209.346 614.692 209.031C615.257 208.708 615.701 208.257 616.023 207.678C616.346 207.091 616.507 206.402 616.507 205.61C616.507 204.811 616.346 204.121 616.023 203.542C615.708 202.955 615.268 202.504 614.703 202.189C614.139 201.874 613.493 201.716 612.767 201.716C612.041 201.716 611.396 201.874 610.831 202.189C610.274 202.504 609.834 202.955 609.511 203.542C609.196 204.121 609.038 204.811 609.038 205.61C609.038 206.402 609.196 207.091 609.511 207.678C609.834 208.257 610.278 208.708 610.842 209.031C611.407 209.346 612.049 209.504 612.767 209.504ZM621.108 211V200.22H626.058C627.261 200.22 628.229 200.455 628.962 200.924C629.703 201.393 630.073 202.09 630.073 203.014C630.073 203.425 629.978 203.795 629.787 204.125C629.597 204.455 629.325 204.737 628.973 204.972C628.621 205.199 628.207 205.368 627.73 205.478L627.697 205.038C628.614 205.185 629.314 205.507 629.798 206.006C630.29 206.497 630.535 207.113 630.535 207.854C630.535 208.507 630.363 209.068 630.018 209.537C629.681 210.006 629.197 210.369 628.566 210.626C627.936 210.875 627.184 211 626.311 211H621.108ZM623.077 209.427H626.036C626.828 209.427 627.441 209.295 627.873 209.031C628.313 208.767 628.533 208.371 628.533 207.843C628.533 207.315 628.317 206.923 627.884 206.666C627.452 206.402 626.836 206.27 626.036 206.27H622.769V204.741H625.783C626.531 204.741 627.111 204.627 627.521 204.4C627.932 204.173 628.137 203.795 628.137 203.267C628.137 202.746 627.932 202.372 627.521 202.145C627.118 201.91 626.539 201.793 625.783 201.793H623.077V209.427ZM649.424 211V197.503H642.945V200.297C642.945 202.196 642.857 203.784 642.681 205.06C642.512 206.336 642.248 207.37 641.889 208.162C641.53 208.954 641.06 209.563 640.481 209.988C639.902 210.413 639.198 210.725 638.369 210.923L637.621 209.284C638.288 209.13 638.835 208.892 639.26 208.569C639.693 208.246 640.03 207.762 640.272 207.117C640.521 206.472 640.694 205.599 640.789 204.499C640.892 203.399 640.943 201.998 640.943 200.297V195.6H651.492V211H649.424ZM637.621 214.927V209.284L639.183 209.383L640.019 209.097H653.934V214.927H651.987V211H639.568V214.927H637.621ZM666.178 211L659.831 202.816L665.43 195.6H667.96L662.35 202.794L668.851 211H666.178ZM656.619 211V195.6H658.687V201.859H661.525V203.762H658.687V211H656.619ZM675.97 211.33C674.907 211.33 673.873 211.183 672.868 210.89C671.871 210.589 670.987 210.135 670.217 209.526L671.262 207.865C671.937 208.4 672.678 208.789 673.484 209.031C674.298 209.273 675.138 209.394 676.003 209.394C677.177 209.394 678.192 209.159 679.05 208.69C679.916 208.221 680.583 207.524 681.052 206.6C681.522 205.669 681.756 204.514 681.756 203.135C681.756 201.859 681.518 200.777 681.041 199.89C680.565 199.003 679.901 198.328 679.05 197.866C678.2 197.404 677.21 197.173 676.08 197.173C675.215 197.173 674.416 197.29 673.682 197.525C672.956 197.752 672.311 198.097 671.746 198.559L670.734 197.03C671.372 196.48 672.153 196.051 673.077 195.743C674.001 195.428 675.028 195.27 676.157 195.27C677.683 195.27 679.017 195.596 680.161 196.249C681.313 196.902 682.207 197.818 682.845 198.999C683.483 200.18 683.802 201.555 683.802 203.124C683.802 204.378 683.612 205.511 683.23 206.523C682.856 207.535 682.321 208.4 681.624 209.119C680.935 209.83 680.11 210.377 679.149 210.758C678.196 211.139 677.136 211.33 675.97 211.33ZM673.121 203.773V202.057H682.24V203.773H673.121Z" fill="white"/>
<defs>
<filter id="filter0_b_178_78" x="-56" y="-56" width="499" height="357" filterUnits="userSpaceOnUse" color-interpolation-filters="sRGB">
<feFlood flood-opacity="0" result="BackgroundImageFix"/>
<feGaussianBlur in="BackgroundImageFix" stdDeviation="28"/>
<feComposite in2="SourceAlpha" operator="in" result="effect1_backgroundBlur_178_78"/>
<feBlend mode="normal" in="SourceGraphic" in2="effect1_backgroundBlur_178_78" result="shape"/>
</filter>
<filter id="filter1_b_178_78" x="301.168" y="-56" width="549.361" height="357" filterUnits="userSpaceOnUse" color-interpolation-filters="sRGB">
<feFlood flood-opacity="0" result="BackgroundImageFix"/>
<feGaussianBlur in="BackgroundImageFix" stdDeviation="28"/>
<feComposite in2="SourceAlpha" operator="in" result="effect1_backgroundBlur_178_78"/>
<feBlend mode="normal" in="SourceGraphic" in2="effect1_backgroundBlur_178_78" result="shape"/>
</filter>
</defs>
</svg>
