<svg width="57" height="86" viewBox="0 0 57 86" fill="none" xmlns="http://www.w3.org/2000/svg">
<path d="M57.0001 85.5012L33.9041 85.6203L45.3512 65.563L57.0001 85.5012ZM2.65404 54.5012L1.6627 56.2382L0.653844 55.6628L0.653847 54.5014L2.65404 54.5012ZM42.4222 79.4882L33.3646 74.3216L35.3473 70.8475L44.4049 76.0142L42.4222 79.4882ZM24.3069 69.1549L15.2492 63.9882L17.2319 60.5142L26.2896 65.6809L24.3069 69.1549ZM6.19154 58.8216L1.6627 56.2382L3.64539 52.7642L8.17422 55.3475L6.19154 58.8216ZM0.653847 54.5014L0.653846 49.9598L4.65424 49.9593L4.65424 54.501L0.653847 54.5014ZM0.653844 40.8765L0.653848 31.7931L4.65424 31.7927L4.65424 40.876L0.653844 40.8765ZM0.653846 22.7098L0.653849 13.6265L4.65424 13.626L4.65423 22.7093L0.653846 22.7098ZM0.653848 4.54314L0.653848 0.0014736L4.65424 0.00102122L4.65424 4.54269L0.653848 4.54314Z" fill="white"/>
</svg>
