<svg width="949" height="949" viewBox="0 0 949 949" fill="none" xmlns="http://www.w3.org/2000/svg">
<path d="M474.5 949C212.441 949 2.88391e-05 736.559 4.02941e-05 474.5C5.17491e-05 212.441 212.441 -3.2196e-05 474.5 -2.07411e-05C736.559 -9.28609e-06 949 212.441 949 474.5C949 736.559 736.559 949 474.5 949ZM474.5 161.667C301.727 161.667 161.667 301.727 161.667 474.5C161.667 647.273 301.727 787.333 474.5 787.333C647.273 787.333 787.333 647.273 787.333 474.5C787.333 301.727 647.273 161.667 474.5 161.667Z" fill="white" fill-opacity="0.09"/>
</svg>
