<svg width="119" height="1401" viewBox="0 0 119 1401" fill="none" xmlns="http://www.w3.org/2000/svg">
<path d="M0.000679527 1400.5L17.1547 1398.12L6.51475 1384.45L0.000679527 1400.5ZM65.5177 847.496L67.0081 847.328L66.9975 847.234L66.9752 847.143L65.5177 847.496ZM12.2976 1390.92L11.3761 1389.74L12.2976 1390.92ZM102.573 1176.47L101.082 1176.64L102.573 1176.47ZM26.92 688.326L28.3776 687.973L26.92 688.326ZM24.8731 507.197L23.4079 506.876L24.8731 507.197ZM115.288 93.77L113.823 93.4493L115.288 93.77ZM10.1448 1394.5L13.219 1392.11L11.3761 1389.74L8.30191 1392.13L10.1448 1394.5ZM13.219 1392.11C14.5622 1391.06 15.8923 1390 17.2092 1388.93L15.3165 1386.6C14.016 1387.66 12.7025 1388.71 11.3761 1389.74L13.219 1392.11ZM24.9746 1382.33C27.5234 1380.08 30.0176 1377.77 32.4566 1375.41L30.373 1373.25C27.9647 1375.58 25.5016 1377.86 22.9847 1380.09L24.9746 1382.33ZM39.6358 1368.18C41.9809 1365.71 44.2689 1363.2 46.4989 1360.65L44.2393 1358.67C42.0372 1361.19 39.7779 1363.67 37.4622 1366.11L39.6358 1368.18ZM53.0369 1352.83C55.163 1350.17 57.2294 1347.47 59.2353 1344.73L56.8159 1342.96C54.8352 1345.66 52.7947 1348.33 50.6952 1350.95L53.0369 1352.83ZM65.0828 1336.39C66.9744 1333.56 68.8041 1330.7 70.5708 1327.8L68.0094 1326.24C66.2648 1329.1 64.458 1331.93 62.5901 1334.72L65.0828 1336.39ZM75.6881 1318.98C77.3318 1316.01 78.9113 1313 80.4258 1309.96L77.741 1308.62C76.2455 1311.62 74.6857 1314.6 73.0626 1317.53L75.6881 1318.98ZM84.776 1300.74C86.1606 1297.64 87.4791 1294.51 88.7305 1291.35L85.9418 1290.24C84.706 1293.36 83.404 1296.46 82.0368 1299.52L84.776 1300.74ZM92.2824 1281.8C93.398 1278.59 94.4457 1275.36 95.4247 1272.1L92.5522 1271.24C91.5855 1274.45 90.5508 1277.64 89.4492 1280.81L92.2824 1281.8ZM98.1522 1262.28C98.991 1258.99 99.7605 1255.68 100.46 1252.35L97.5241 1251.73C96.8337 1255.02 96.0738 1258.29 95.2456 1261.54L98.1522 1262.28ZM102.342 1242.33C102.898 1238.99 103.383 1235.62 103.797 1232.25L100.819 1231.88C100.411 1235.22 99.9317 1238.54 99.383 1241.84L102.342 1242.33ZM104.82 1222.1C105.089 1218.72 105.286 1215.33 105.411 1211.93L102.413 1211.82C102.29 1215.18 102.095 1218.53 101.83 1221.86L104.82 1222.1ZM105.567 1201.74C105.547 1198.35 105.455 1194.95 105.29 1191.54L102.294 1191.69C102.457 1195.05 102.548 1198.41 102.568 1201.75L105.567 1201.74ZM104.58 1181.38C104.426 1179.69 104.254 1178 104.063 1176.31L101.082 1176.64C101.271 1178.31 101.441 1179.98 101.593 1181.65L104.58 1181.38ZM104.063 1176.31L103.518 1171.47L100.537 1171.8L101.082 1176.64L104.063 1176.31ZM102.428 1161.79L101.339 1152.12L98.3577 1152.45L99.4476 1162.13L102.428 1161.79ZM100.249 1142.44L99.1588 1132.76L96.178 1133.1L97.2678 1142.78L100.249 1142.44ZM98.069 1123.09L96.9791 1113.41L93.9983 1113.75L95.0881 1123.42L98.069 1123.09ZM95.8892 1103.74L94.7994 1094.06L91.8186 1094.4L92.9084 1104.07L95.8892 1103.74ZM93.7095 1084.39L92.6197 1074.71L89.6388 1075.05L90.7287 1084.72L93.7095 1084.39ZM91.5298 1065.03L90.44 1055.36L87.4591 1055.69L88.549 1065.37L91.5298 1065.03ZM89.3501 1045.68L88.2602 1036.01L85.2794 1036.34L86.3693 1046.02L89.3501 1045.68ZM87.1704 1026.33L86.0805 1016.65L83.0997 1016.99L84.1896 1026.67L87.1704 1026.33ZM84.9907 1006.98L83.9008 997.303L80.92 997.639L82.0099 1007.31L84.9907 1006.98ZM82.811 987.627L81.7211 977.952L78.7403 978.287L79.8302 987.963L82.811 987.627ZM80.6313 968.276L79.5414 958.6L76.5606 958.936L77.6505 968.612L80.6313 968.276ZM78.4516 948.924L77.3617 939.248L74.3809 939.584L75.4707 949.26L78.4516 948.924ZM76.2718 929.573L75.182 919.897L72.2012 920.233L73.291 929.908L76.2718 929.573ZM74.0921 910.221L73.0023 900.545L70.0215 900.881L71.1113 910.557L74.0921 910.221ZM71.9124 890.869L70.8226 881.194L67.8418 881.529L68.9316 891.205L71.9124 890.869ZM69.7327 871.518L68.6429 861.842L65.662 862.178L66.7519 871.854L69.7327 871.518ZM67.553 852.166L67.0081 847.328L64.0272 847.664L64.5722 852.502L67.553 852.166ZM66.9752 847.143L65.7691 842.169L62.8539 842.876L64.0601 847.85L66.9752 847.143ZM63.3567 832.221L60.9444 822.272L58.0292 822.979L60.4416 832.928L63.3567 832.221ZM58.532 812.324L56.1196 802.376L53.2045 803.083L55.6169 813.031L58.532 812.324ZM53.7073 792.428L51.2949 782.48L48.3798 783.187L50.7921 793.135L53.7073 792.428ZM48.8826 772.532L46.4702 762.584L43.5551 763.291L45.9674 773.239L48.8826 772.532ZM44.0579 752.636L41.6455 742.687L38.7304 743.394L41.1427 753.343L44.0579 752.636ZM39.2332 732.739L36.8208 722.791L33.9057 723.498L36.318 733.446L39.2332 732.739ZM34.4084 712.843L31.9961 702.895L29.081 703.602L31.4933 713.55L34.4084 712.843ZM29.5837 692.947L28.3776 687.973L25.4624 688.68L26.6686 693.654L29.5837 692.947ZM28.3776 687.973C27.9802 686.334 27.5933 684.694 27.2169 683.051L24.2931 683.722C24.6723 685.376 25.0621 687.029 25.4624 688.68L28.3776 687.973ZM25.082 673.167C24.4115 669.862 23.783 666.55 23.1966 663.232L20.2427 663.755C20.8335 667.097 21.4667 670.433 22.1422 673.763L25.082 673.167ZM21.562 653.253C21.0588 649.919 20.5978 646.58 20.1791 643.237L17.2026 643.609C17.6245 646.978 18.0889 650.342 18.5959 653.701L21.562 653.253ZM19.0488 633.188C18.7141 629.833 18.4218 626.475 18.1718 623.114L15.1804 623.336C15.4322 626.722 15.7267 630.105 16.0639 633.485L19.0488 633.188ZM17.5487 613.021C17.3834 609.654 17.2605 606.285 17.18 602.916L14.1812 602.987C14.2623 606.382 14.3861 609.776 14.5527 613.168L17.5487 613.021ZM17.0657 592.805C17.0701 589.434 17.1168 586.064 17.206 582.694L14.2074 582.614C14.1175 586.009 14.0704 589.405 14.066 592.801L17.0657 592.805ZM17.6009 572.589C17.7748 569.224 17.9911 565.86 18.2499 562.498L15.2591 562.268C14.9984 565.655 14.7804 569.044 14.6052 572.434L17.6009 572.589ZM19.1528 552.427C19.4959 549.075 19.8813 545.726 20.309 542.381L17.3336 542C16.9026 545.37 16.5144 548.744 16.1688 552.121L19.1528 552.427ZM21.7177 532.368C22.229 529.038 22.7824 525.713 23.3781 522.394L20.4256 521.864C19.8255 525.208 19.2679 528.558 18.7528 531.913L21.7177 532.368ZM25.2891 512.464C25.6283 510.814 25.9781 509.165 26.3383 507.518L23.4079 506.876C23.045 508.536 22.6927 510.197 22.3509 511.86L25.2891 512.464ZM26.3383 507.518L27.4146 502.596L24.4842 501.955L23.4079 506.876L26.3383 507.518ZM29.5674 492.753L31.7201 482.909L28.7897 482.268L26.637 492.111L29.5674 492.753ZM33.8729 473.065L36.0256 463.222L33.0952 462.581L30.9425 472.424L33.8729 473.065ZM38.1783 453.379L40.3311 443.535L37.4007 442.894L35.248 452.737L38.1783 453.379ZM42.4838 433.692L44.6366 423.848L41.7062 423.207L39.5534 433.05L42.4838 433.692ZM46.7893 414.005L48.942 404.161L46.0117 403.52L43.8589 413.363L46.7893 414.005ZM51.0948 394.318L53.2475 384.474L50.3172 383.833L48.1644 393.676L51.0948 394.318ZM55.4003 374.63L57.553 364.787L54.6226 364.146L52.4699 373.989L55.4003 374.63ZM59.7058 354.943L61.8585 345.1L58.9281 344.459L56.7754 354.302L59.7058 354.943ZM64.0113 335.256L66.164 325.413L63.2336 324.772L61.0809 334.615L64.0113 335.256ZM68.3168 315.569L70.4695 305.726L67.5391 305.085L65.3864 314.928L68.3168 315.569ZM72.6223 295.882L74.775 286.039L71.8446 285.398L69.6918 295.241L72.6223 295.882ZM76.9277 276.195L79.0805 266.352L76.1501 265.711L73.9973 275.554L76.9277 276.195ZM81.2332 256.508L83.386 246.665L80.4555 246.024L78.3028 255.867L81.2332 256.508ZM85.5387 236.821L87.6914 226.978L84.7611 226.337L82.6083 236.18L85.5387 236.821ZM89.8442 217.134L91.997 207.291L89.0665 206.65L86.9138 216.493L89.8442 217.134ZM94.1497 197.447L96.3025 187.604L93.3721 186.962L91.2193 196.806L94.1497 197.447ZM98.4552 177.76L100.608 167.917L97.6775 167.276L95.5248 177.119L98.4552 177.76ZM102.761 158.073L104.913 148.23L101.983 147.588L99.8303 157.432L102.761 158.073ZM107.066 138.386L109.219 128.543L106.289 127.901L104.136 137.745L107.066 138.386ZM111.372 118.699L113.524 108.856L110.594 108.214L108.441 118.058L111.372 118.699ZM115.677 99.0122L116.753 94.0906L113.823 93.4493L112.747 98.3709L115.677 99.0122ZM116.753 94.0906C117.142 92.3123 117.467 90.5396 117.73 88.7742L114.763 88.3326C114.51 90.0309 114.198 91.737 113.823 93.4493L116.753 94.0906ZM118.574 77.9986C118.603 74.3442 118.37 70.7421 117.892 67.2108L114.92 67.6131C115.379 71.004 115.603 74.4635 115.574 77.9743L118.574 77.9986ZM115.68 56.6323C114.685 53.1435 113.447 49.7513 111.985 46.4766L109.246 47.6996C110.65 50.8461 111.84 54.1044 112.795 57.455L115.68 56.6323ZM106.897 36.9427C104.978 33.8844 102.85 30.9674 100.534 28.2128L98.2383 30.1441C100.466 32.7928 102.512 35.5974 104.356 38.5374L106.897 36.9427ZM93.0253 20.4464C90.3506 18.038 87.5072 15.8129 84.5157 13.7923L82.837 16.2787C85.7128 18.2211 88.4465 20.3604 91.0184 22.6762L93.0253 20.4464ZM75.16 8.38622C71.9367 6.81499 68.5889 5.4634 65.1361 4.35189L64.2173 7.20797C67.5332 8.27537 70.7491 9.57355 73.8459 11.0833L75.16 8.38622ZM54.6401 1.7851C51.1276 1.18876 47.5361 0.834792 43.8835 0.741655L43.8072 3.741C47.3162 3.83046 50.7655 4.17049 54.1383 4.74313L54.6401 1.7851ZM33.088 1.22403C31.3151 1.42727 29.5329 1.69235 27.743 2.02145L28.2854 4.97238C30.0089 4.65553 31.7243 4.40028 33.4296 4.20487L33.088 1.22403Z" fill="white"/>
</svg>
