<svg width="156" height="1614" viewBox="0 0 156 1614" fill="none" xmlns="http://www.w3.org/2000/svg">
<path d="M0.500002 1610.5L35.0219 1613.33L20.2071 1582.01L0.500002 1610.5ZM96.5052 848.499L99.4883 848.184L99.4674 847.986L99.4204 847.792L96.5052 848.499ZM15.9117 1603.21L14.6287 1600.5L15.9117 1603.21ZM150.787 1363.09L153.771 1362.77L150.787 1363.09ZM57.9079 689.329L60.823 688.622L57.9079 689.329ZM55.8612 508.2L52.9309 507.559L55.8612 508.2ZM146.277 94.7725L149.207 95.4138L146.277 94.7725ZM13.3418 1607.74L17.1947 1605.92L14.6287 1600.5L10.7758 1602.32L13.3418 1607.74ZM17.1947 1605.92C18.6928 1605.21 20.1809 1604.49 21.6591 1603.75L18.9828 1598.38C17.5412 1599.1 16.0898 1599.8 14.6287 1600.5L17.1947 1605.92ZM30.436 1599.15C33.3385 1597.55 36.1992 1595.9 39.0172 1594.19L35.9099 1589.06C33.1621 1590.72 30.3725 1592.33 27.5421 1593.89L30.436 1599.15ZM47.3874 1588.88C50.1473 1587.05 52.8625 1585.17 55.5321 1583.24L52.0129 1578.38C49.41 1580.26 46.7626 1582.1 44.0715 1583.88L47.3874 1588.88ZM63.437 1577.26C66.0354 1575.21 68.5863 1573.11 71.0888 1570.96L67.1812 1566.41C64.7413 1568.5 62.254 1570.55 59.7206 1572.55L63.437 1577.26ZM78.4743 1564.35C80.8937 1562.09 83.263 1559.79 85.581 1557.44L81.3118 1553.22C79.0516 1555.51 76.7414 1557.76 74.3823 1559.96L78.4743 1564.35ZM92.398 1550.24C94.6228 1547.8 96.7948 1545.31 98.913 1542.77L94.3116 1538.92C92.2461 1541.39 90.1282 1543.82 87.9589 1546.21L92.398 1550.24ZM105.115 1535.04C107.13 1532.42 109.09 1529.76 110.994 1527.06L106.092 1523.6C104.236 1526.23 102.325 1528.83 100.359 1531.38L105.115 1535.04ZM116.541 1518.85C118.333 1516.07 120.069 1513.26 121.745 1510.41L116.576 1507.36C114.941 1510.14 113.249 1512.88 111.501 1515.59L116.541 1518.85ZM126.6 1501.77C128.158 1498.85 129.657 1495.91 131.095 1492.93L125.694 1490.32C124.291 1493.22 122.83 1496.1 121.31 1498.94L126.6 1501.77ZM135.225 1483.92C136.539 1480.89 137.791 1477.83 138.981 1474.75L133.384 1472.59C132.223 1475.6 131.002 1478.58 129.721 1481.53L135.225 1483.92ZM142.357 1465.43C143.418 1462.3 144.415 1459.15 145.347 1455.98L139.592 1454.28C138.682 1457.38 137.71 1460.45 136.676 1463.5L142.357 1465.43ZM147.946 1446.41C148.746 1443.21 149.48 1439.99 150.149 1436.75L144.273 1435.53C143.621 1438.69 142.905 1441.83 142.126 1444.96L147.946 1446.41ZM151.951 1427C152.484 1423.74 152.951 1420.47 153.35 1417.18L147.395 1416.46C147.005 1419.66 146.55 1422.85 146.031 1426.03L151.951 1427ZM154.343 1407.32C154.606 1404.04 154.801 1400.74 154.929 1397.43L148.934 1397.19C148.81 1400.42 148.619 1403.64 148.363 1406.84L154.343 1407.32ZM155.107 1387.52C155.098 1384.22 155.022 1380.92 154.877 1377.61L148.883 1377.87C149.024 1381.1 149.099 1384.32 149.107 1387.53L155.107 1387.52ZM154.241 1367.71C154.101 1366.07 153.944 1364.42 153.771 1362.77L147.804 1363.4C147.974 1365.01 148.127 1366.62 148.263 1368.22L154.241 1367.71ZM153.771 1362.77L153.249 1357.82L147.282 1358.45L147.804 1363.4L153.771 1362.77ZM152.205 1347.93L151.161 1338.03L145.195 1338.66L146.238 1348.56L152.205 1347.93ZM150.117 1328.14L149.073 1318.24L143.107 1318.87L144.151 1328.77L150.117 1328.14ZM148.029 1308.34L146.985 1298.45L141.019 1299.08L142.063 1308.97L148.029 1308.34ZM145.941 1288.55L144.898 1278.66L138.931 1279.29L139.975 1289.18L145.941 1288.55ZM143.854 1268.76L142.81 1258.86L136.844 1259.49L137.887 1269.39L143.854 1268.76ZM141.766 1248.97L140.722 1239.07L134.756 1239.7L135.8 1249.6L141.766 1248.97ZM139.678 1229.18L138.634 1219.28L132.668 1219.91L133.712 1229.81L139.678 1229.18ZM137.59 1209.39L136.546 1199.49L130.58 1200.12L131.624 1210.01L137.59 1209.39ZM135.503 1189.59L134.459 1179.7L128.492 1180.33L129.536 1190.22L135.503 1189.59ZM133.415 1169.8L132.371 1159.91L126.405 1160.53L127.448 1170.43L133.415 1169.8ZM131.327 1150.01L130.283 1140.11L124.317 1140.74L125.361 1150.64L131.327 1150.01ZM129.239 1130.22L128.195 1120.32L122.229 1120.95L123.273 1130.85L129.239 1130.22ZM127.151 1110.43L126.108 1100.53L120.141 1101.16L121.185 1111.06L127.151 1110.43ZM125.064 1090.63L124.02 1080.74L118.053 1081.37L119.097 1091.26L125.064 1090.63ZM122.976 1070.84L121.932 1060.95L115.966 1061.58L117.01 1071.47L122.976 1070.84ZM120.888 1051.05L119.844 1041.15L113.878 1041.78L114.922 1051.68L120.888 1051.05ZM118.8 1031.26L117.756 1021.36L111.79 1021.99L112.834 1031.89L118.8 1031.26ZM116.712 1011.47L115.669 1001.57L109.702 1002.2L110.746 1012.1L116.712 1011.47ZM114.625 991.675L113.581 981.779L107.615 982.408L108.658 992.304L114.625 991.675ZM112.537 971.883L111.493 961.987L105.527 962.616L106.571 972.512L112.537 971.883ZM110.449 952.091L109.405 942.195L103.439 942.824L104.483 952.72L110.449 952.091ZM108.361 932.299L107.318 922.403L101.351 923.033L102.395 932.929L108.361 932.299ZM106.274 912.507L105.23 902.612L99.2635 903.241L100.307 913.137L106.274 912.507ZM104.186 892.716L103.142 882.82L97.1757 883.449L98.2196 893.345L104.186 892.716ZM102.098 872.924L101.054 863.028L95.0879 863.657L96.1318 873.553L102.098 872.924ZM100.01 853.132L99.4883 848.184L93.5221 848.813L94.044 853.761L100.01 853.132ZM99.4204 847.792L98.2142 842.818L92.3839 844.232L93.59 849.206L99.4204 847.792ZM95.8018 832.87L93.3895 822.921L87.5592 824.335L89.9715 834.284L95.8018 832.87ZM90.9772 812.973L88.5649 803.025L82.7346 804.439L85.1469 814.387L90.9772 812.973ZM86.1526 793.077L83.7402 783.129L77.9099 784.543L80.3223 794.491L86.1526 793.077ZM81.3279 773.181L78.9155 763.233L73.0852 764.647L75.4976 774.595L81.3279 773.181ZM76.5032 753.284L74.0909 743.336L68.2606 744.75L70.6729 754.698L76.5032 753.284ZM71.6786 733.388L69.2663 723.44L63.4359 724.854L65.8482 734.802L71.6786 733.388ZM66.8539 713.492L64.4416 703.544L58.6112 704.958L61.0236 714.906L66.8539 713.492ZM62.0292 693.596L60.823 688.622L54.9928 690.036L56.1989 695.01L62.0292 693.596ZM60.823 688.622C60.4272 686.989 60.0418 685.355 59.6667 683.719L53.8191 685.059C54.1998 686.72 54.591 688.379 54.9928 690.036L60.823 688.622ZM57.5398 673.871C56.8718 670.578 56.2457 667.279 55.6616 663.974L49.7538 665.018C50.3468 668.373 50.9823 671.722 51.6603 675.064L57.5398 673.871ZM54.033 654.032C53.5317 650.71 53.0725 647.384 52.6554 644.053L46.7025 644.798C47.1259 648.179 47.5921 651.556 48.1009 654.927L54.033 654.032ZM51.5293 634.042C51.1959 630.699 50.9046 627.354 50.6556 624.005L44.6728 624.45C44.9256 627.848 45.2212 631.244 45.5595 634.637L51.5293 634.042ZM50.0349 613.95C49.8702 610.596 49.7477 607.24 49.6675 603.883L43.6699 604.026C43.7513 607.433 43.8756 610.84 44.0428 614.244L50.0349 613.95ZM49.5537 593.809C49.558 590.452 49.6046 587.094 49.6935 583.736L43.6963 583.577C43.6061 586.985 43.5588 590.393 43.5544 593.801L49.5537 593.809ZM50.0869 573.67C50.2602 570.317 50.4757 566.966 50.7335 563.617L44.7519 563.156C44.4902 566.555 44.2714 569.956 44.0955 573.36L50.0869 573.67ZM51.6331 553.583C51.9749 550.243 52.3588 546.907 52.7849 543.575L46.834 542.813C46.4015 546.195 46.0118 549.582 45.6649 552.971L51.6331 553.583ZM54.1884 533.599C54.6978 530.282 55.2492 526.969 55.8425 523.662L49.9375 522.602C49.3352 525.958 48.7756 529.321 48.2585 532.688L54.1884 533.599ZM57.7464 513.769C58.0844 512.125 58.4327 510.483 58.7916 508.842L52.9309 507.559C52.5666 509.224 52.213 510.892 51.87 512.561L57.7464 513.769ZM58.7916 508.842L59.868 503.92L54.0072 502.637L52.9309 507.559L58.7916 508.842ZM62.0208 494.076L64.1735 484.233L58.3127 482.95L56.16 492.794L62.0208 494.076ZM66.3262 474.389L68.479 464.546L62.6182 463.263L60.4655 473.107L66.3262 474.389ZM70.6318 454.702L72.7845 444.859L66.9237 443.576L64.7709 453.42L70.6318 454.702ZM74.9372 435.015L77.09 425.172L71.2292 423.889L69.0764 433.733L74.9372 435.015ZM79.2427 415.328L81.3955 405.485L75.5347 404.202L73.3819 414.046L79.2427 415.328ZM83.5483 395.641L85.701 385.798L79.8402 384.515L77.6874 394.358L83.5483 395.641ZM87.8537 375.954L90.0065 366.111L84.1457 364.828L81.9929 374.671L87.8537 375.954ZM92.1592 356.267L94.312 346.424L88.4512 345.141L86.2984 354.984L92.1592 356.267ZM96.4647 336.58L98.6175 326.737L92.7567 325.454L90.6039 335.297L96.4647 336.58ZM100.77 316.893L102.923 307.049L97.0622 305.767L94.9095 315.61L100.77 316.893ZM105.076 297.206L107.228 287.362L101.368 286.08L99.215 295.923L105.076 297.206ZM109.381 277.519L111.534 267.675L105.673 266.393L103.52 276.236L109.381 277.519ZM113.687 257.832L115.839 247.988L109.979 246.706L107.826 256.549L113.687 257.832ZM117.992 238.145L120.145 228.301L114.284 227.019L112.131 236.862L117.992 238.145ZM122.298 218.458L124.45 208.614L118.59 207.332L116.437 217.175L122.298 218.458ZM126.603 198.771L128.756 188.927L122.895 187.645L120.742 197.488L126.603 198.771ZM130.909 179.084L133.061 169.24L127.201 167.958L125.048 177.801L130.909 179.084ZM135.214 159.397L137.367 149.553L131.506 148.271L129.353 158.114L135.214 159.397ZM139.52 139.71L141.672 129.866L135.812 128.584L133.659 138.427L139.52 139.71ZM143.825 120.023L145.978 110.179L140.117 108.897L137.964 118.74L143.825 120.023ZM148.131 100.336L149.207 95.4138L143.346 94.1312L142.27 99.053L148.131 100.336ZM149.207 95.4138C149.603 93.6026 149.934 91.7964 150.202 89.9975L144.267 89.1145C144.02 90.7791 143.714 92.4519 143.346 94.1312L149.207 95.4138ZM151.062 79.0134C151.092 75.2871 150.854 71.6137 150.367 68.0121L144.422 68.8169C144.871 72.1374 145.091 75.5257 145.063 78.9645L151.062 79.0134ZM148.11 57.2236C147.096 53.6655 145.833 50.2065 144.343 46.8675L138.865 49.3138C140.241 52.3959 141.406 55.5874 142.341 58.8688L148.11 57.2236ZM139.156 37.148C137.2 34.0304 135.031 31.0572 132.67 28.2496L128.079 32.1123C130.262 34.7082 132.267 37.4565 134.074 40.3372L139.156 37.148ZM125.017 20.334C122.291 17.8794 119.393 15.6113 116.343 13.5515L112.986 18.5245C115.804 20.4277 118.483 22.5241 121.003 24.7937L125.017 20.334ZM106.805 8.04025C103.519 6.43818 100.105 5.05991 96.5839 3.92642L94.7463 9.63849C97.9937 10.6839 101.144 11.9555 104.177 13.4343L106.805 8.04025ZM85.8794 1.30867C82.297 0.700427 78.6344 0.339516 74.9101 0.244462L74.7575 6.24316C78.1946 6.3309 81.5728 6.66388 84.8757 7.22462L85.8794 1.30867ZM63.9055 0.736205C62.099 0.943178 60.2832 1.21332 58.4601 1.54861L59.5451 7.45028C61.2353 7.13959 62.9171 6.88939 64.5888 6.69788L63.9055 0.736205Z" fill="white"/>
</svg>
