<svg viewBox="0 0 385 769" fill="none" xmlns="http://www.w3.org/2000/svg">
<path d="M-3.09648e-06 769C102.108 769 200.035 728.49 272.236 656.383C344.438 584.275 385 486.476 385 384.5C385 282.524 344.438 184.725 272.236 112.617C200.035 40.5097 102.108 3.03233e-06 9.15527e-05 -1.68289e-05L5.29902e-05 184.046C53.2328 184.046 104.285 205.165 141.927 242.758C179.568 280.35 200.715 331.336 200.715 384.5C200.715 437.664 179.568 488.65 141.927 526.242C104.285 563.835 53.2328 584.954 4.94843e-06 584.954L-3.09648e-06 769Z" fill="white" fill-opacity="0.09"/>
</svg>
