<svg width="358" height="238" viewBox="0 0 358 238" fill="currentColor" xmlns="http://www.w3.org/2000/svg">
<path d="M357.5 27.0002L357.5 178.151C357.5 183.907 355.757 189.528 352.501 194.274L331.336 225.123C326.021 232.87 317.23 237.5 307.835 237.5L27 237.5C12.3644 237.5 0.5 225.636 0.499999 211L0.499994 46.5197C0.499994 39.7218 3.21435 33.2052 8.04022 28.4173L28.7226 7.89793C33.4984 3.15974 39.9831 0.500331 46.7118 0.500315C84.2126 0.500283 114.363 0.500206 141.988 0.500129C200.881 0.499974 248.296 0.499866 330.985 0.50023C345.621 0.500306 357.5 12.3651 357.5 27.0002Z"  stroke="#5DF05D"/>
</svg>
